<?xml version="1.0" encoding="utf-8"?>
<svg version="1.1"
  xmlns="http://www.w3.org/2000/svg"
  xmlns:xlink="http://www.w3.org/1999/xlink" x="0px" y="0px" viewBox="0 0 800 600" style="enable-background:new 0 0 800 600;" xml:space="preserve">
  <g id="France">
    <path fill="#c0c0c0" class="st0" d="M411.806,30l0.583,1.397l0.384,2.686l0.38,1.175l1.369,1.524l0.601,0.911l0.122,1.209l-0.225,0.365
		l-0.883,0.885l-0.221,0.555l0.756,2.663l-0.044,0.395l-0.296,0.674l-0.04,0.279l0.122,0.207l0.463,0.238l0.174,0.197l0.328,0.767
		l0.202,0.344l0.281,0.125l0.562,0.119l0.313,0.012l0.712-0.1l0.364,0.041l0.503,0.266l0.194,0.351l0.119,0.41l0.253,0.453
		l1.425,1.367l0.217,0.4l0.514,1.223l0.202,0.372l0.708,0.597l3.063,1.407l0.174,0.08l0.597,0.128l0.506-0.39l1.152-2.003
		l0.696-0.753l0.882-0.553l2.005-0.631l3.043-0.958l0.993,0.304l0.649,0.616l0.636,1.147l0.531,0.957l0.471,1.15l0.304,0.356
		l0.538,0.075l0.514,0.169l0.305,0.559l0.435,1.439l-0.534,1.008l0.309,1.747l1.013,3.394l0.059,1.921l0.198,0.685l0.601,0.775
		l0.503,0.398l1.674,0.874l0.668,0.19l0.93-0.112l1.677-0.613l0.519-0.401l0.38-0.383l0.391-0.258l0.546-0.043l0.55,0.168
		l0.249,0.314l-0.059,0.485l-0.372,0.669l0.475,0.354l2.473,0.016l0.866,0.183l0.839,0.42l0.759,0.73l0.621,1.134l0.324,2.322
		l0.004,2.801l0.336,2.452l1.346,1.264l0.15-0.387l0.055-0.034l0.063,0.055l0.174-0.12l0.103-0.18l0.166-0.499l0.688-1.174
		l0.309-0.354l0.518-0.192l1.67-0.127l1.59,0.195l0.791,0.403l0.657,0.462l0.685,0.329l0.866-0.009l2.433-1.029l0.811-0.087
		l0.744,0.357l1.27,1.413l0.815,0.474l0.791,0.71l1.049,2.256l0.704,0.331l0.281-0.278l-0.048-0.411l0.02-0.384l0.478-0.204
		l0.345,0.124l0.514,0.325l0.475,0.418l0.234,0.39l-0.091,0.624l-0.376,0.433l-0.902,0.708l-0.407,0.584l-0.174,0.489l-0.206,1.088
		l-0.736,2.396l-0.091,1.08l0.542,0.275l0.763-0.349l0.411-0.065l0.38,0.195l0.645,2.575l0.229,0.561l0.265,0.475l-0.012,0.391
		l-0.918,0.459l-0.886,0.635l-0.701,0.656l-0.277,0.341l-0.194,0.447l-0.158,0.702l0.182,0.077l0.21,0.911l0.047,0.874l-0.277-0.026
		l-0.027-0.002l2.144,1.159l0.514,0.148l0.568-0.083l2.36-0.342l5.744,1.582l0.285,0.078l1.136-0.2l5.337-2.654l1.595-0.256
		l0.416-0.274l0.352-0.68l0.269-0.945l0.293-1.903l-0.04-0.41l-0.142-0.299l-0.091-0.358l0.103-0.589l0.221-0.469l4.083-4.147
		l1.033-0.475l0.174,0.889l0.431,0.182l1.198-0.25l0.353,0.466l-0.052,1.046l-0.206,1.234l-0.087,1.045l-0.411-0.45l-0.233,0.055
		l-0.72,1.587l-0.044,0.539l0.06,0.496l-0.036,0.638l-1.472,3.678l-0.166,0.95l0.511,0.833l1.812,0.747l0.597,1.094l0.068,0.774
		l-0.099,0.513l-0.194,0.497l-0.206,0.728l-0.126,0.31l-0.34,0.399l-0.071,0.362l0.079,0.298l0.375,0.623l0.095,0.353l-0.008,2.22
		l0.345,0.45l1.001,0.144l0.858-0.138l1.662-0.589l0.703-0.035l0.1-0.005l0.693,0.386l1.424,1.413l0.763,0.435l1.365,0.395
		l0.455,0.438l1.63,2.369l0.57,0.554l0.696,0.52l0.882,0.26l1.729-0.483l0.827-0.021l0.799,0.795l0.74,0.911l0.265,0.886
		l-0.174,0.214l-0.309,0.198l-0.119,0.837l0.091,0.543l0.186,0.232l0.637,0.125l0.273-0.085l0.201-0.299l0.162-0.324l0.142-0.158
		l0.237,0.04l0.435,0.262l1.187,0.437l0.295,0.265l0.417,0.376l1.844,3.346l0.158,0.54l-0.008,0.616l-0.122,0.554l-0.04,0.527
		l0.237,0.524l0.826,0.219l0.993-0.582l0.962-0.758l0.72-0.323l1.199,0.561l0.328,0.088l0.566-0.076l0.127-0.237l0.087-0.424
		l0.455-0.625l0.954-0.487l0.862,0.198l0.823,0.409l0.827,0.143l0.475-0.208l0.494-0.655l0.412-0.219l0.411,0.061l0.839,0.519
		l0.447,0.11l1.203,1.606l0.669,0.627l0.962,0.453l2.429,0.582l0.72,0.728l0.526,1.686l0.665-0.222l3.264-0.198l0.562-0.21
		l0.372-0.566l0.463-0.176l0.087-0.316l-0.004-0.378l0.202-0.359l0.273-0.11l1.08-0.1l-0.25-0.542l2.2-0.243l1.088,0.116l1.049,0.42
		l0.067,0.051l1.824,1.369l1.017,0.56l0.765,0.081l0.327,0.035l0.408-0.079l0.728-0.502l0.312-0.122l0.424,0.073l3.513,1.761
		l0.657,0.636l0.237,0.489l0.103,0.487l0.008,0.328l-0.075,0.024l0.265,0.392l1.859,1.981l0.13,0.352l-0.166,0.474l-0.681,0.033
		l-0.209,0.537l0.241,0.683l0.641,0.78l2.546,2.463l0.059,0.248l-0.079,0.595l0.044,0.236l0.206,0.161l0.53,0.191l0.162,0.169
		l0.301,1.088l0.123,0.246l0.043,0.13l0.076,0.46l0.103,0.209l0.17-0.018l0.514-0.339l0.155-0.003l0.241,0.929l-0.194,0.742
		l-0.107,0.717l0.491,0.82l0.452,0.194l1.705,0.015l1.492,0.554l0.487-0.112l0.66-0.88l-0.146-0.971l-0.289-0.948l0.222-0.814
		l0.384-0.094l1.598,0.366l1.116-0.109l0.424,0.063l2.389,1.356l0.827,0.043l-0.02,2.066l0.443,1.606l0.843,0.665l1.175-0.743
		l0.059-0.296l-0.122-0.306l-0.032-0.323l0.348-0.345l0.209,0.027l1.464,1.068l0.601,0.314l0.602,0.206l3.299,0.03l1.029,0.484
		l0.242,0.036l0.225-0.232l0.404-0.825l0.242-0.293l0.34-0.118l0.783-0.1l0.289-0.136l0.194-0.324l0.277-0.85l0.178-0.29
		l0.637-0.363l0.155-0.047l0.743-0.225l0.744,0.063l0.166,0.654l1.654,0.112l0.693,0.254l0.253,0.847l-0.285,0.184l-0.095,0.133
		l-0.068,0.194l0.538,0.562l0.867,1.411l0.503,0.637l0.835,0.532l1.674,0.293l0.851,0.444l0.281,0.351l0.372,0.757l0.356,0.305
		l0.382,0.087l0.148,0.034l0.459-0.118l0.447-0.193l0.483-0.103l0.424,0.072l0.811,0.29l0.368,0.055l0.467-0.121l0.898-0.492
		l0.423-0.114l3.185,0.926l2.18-0.229l0.693,0.079l6.068,3.248l3.763,0.784l0.443,0.419l-0.016,0.018l-0.787,0.906l-1.195,2.27
		l-1.737,4.796l-0.475,0.802l-0.234,0.201l-1.404,0.757l-0.337,0.015l-0.083,0.144l-0.178,0.171l-0.178,0.309l-0.083,0.547
		l-0.083,0.321l-0.218,0.189l-0.293,0.102l-1.076,0.018l-0.435,0.144l-0.202,0.519l-0.047,1.106l-0.17,0.459l-0.412,0.552
		l-0.506,0.494l-0.455,0.297l-1.049,1.259l-0.585,0.509l-0.633,0.206l-0.447,0.318l-1.615,2.529l-0.324,1.89l-0.004,2.012
		l0.451,1.228v0.397l-0.957,0.758l-0.459,0.472l-0.198,0.524l-0.079,1.1l-0.194,0.561l-0.249,0.373l-0.265,0.547l-0.194,0.657
		l-0.281,1.523l-0.044,0.757l0.123,0.694l0.249,0.735l0.194,0.769l-0.048,0.805l-0.526,0.846l-0.704,0.384l-0.617,0.507
		l-0.265,1.209l-0.079,1.168l-0.242,0.974l-0.403,0.835l-2.421,3.4l-0.253,0.701l-0.076,0.828l-0.194,0.45l-0.261,0.347
		l-0.277,0.513l-0.257,0.874l-0.242,1.119l0.119,2.364l1.654,2.923l0.083,1.785l-0.364,0.688l-1.021,1.085l-0.206,0.763l0.048,0.929
		l-0.071,0.255l-0.242,0.573l-0.154,0.282l-0.253,0.246l-0.115,0.248l-0.043,0.239l0.019,0.145l0.032,0.144l-0.008,0.254
		l0.198,1.061l-0.083,0.638l-0.519,0.284l-0.214,0.274l-0.546,1.847l-0.103,0.791l0.475,1.994l-0.019,0.93l-0.226,0.376
		l-0.633,0.676l-0.135,0.341l0.107,1.224l0.122,0.613l0.15,0.261l0.566,0.297l0.518,0.725l0.863,1.729l0.229,0.287l0.246,0.214
		l0.201,0.296l0.083,0.542l-0.091,0.204l-0.156,0.579l-0.021,0.008l-1.346,0.51l-0.918,0.513l-0.21,0.172l-1.46,1.2l0.091,0.038
		l0.637,0.489l0.131-0.003l0.011,0.567l-0.166,0.324l-0.309,0.102l-0.396-0.085l-0.221,0.12l-0.052,0.179l0.083,0.228l0.273,0.385
		l0.034,0.12l0.005,0.021l-0.004,0.148l-0.052,0.161l-0.067,0.095l-0.585,0.53l-0.495-0.074l-0.326-0.208l-0.173-0.111l-0.593-0.208
		l-0.447,0.131l0.004,0.348l0.194,0.35l0.127,0.138l0.186,0.265l0.063,0.319l-0.122,0.53l-0.212,0.277l-0.544,0.714l-0.694,0.28
		l-0.37,0.15l-1.593-0.068l-1.066-0.046l-1.013,0.214l-1.448,0.631l-0.257,0.053l-0.297-0.126l-0.154-0.204l-0.107-0.203
		l-0.158-0.127l-1.123-0.354l-0.831-0.5l-0.217-0.924l0.696-1.607l-1.041,0.105l-0.439-0.071l-0.071-0.012l-0.498-0.288
		l-0.902-0.189l-1.907,0.334l-0.993-0.145l-0.348-0.268l-0.348-0.089l-0.344,0.089l-0.34,0.268l-0.713,0.218l0.095,0.631
		l0.396,0.783l0.186,0.674l-0.288,0.477l-0.57,0.487l-0.621,0.36l-1.005,0.225l-0.06,1.067l-0.985,0.582l-0.566,0.743l-0.475,0.883
		l-0.19,0.723l4.554-0.45l0.704-0.34l0.57,0.466l0.574,0.523l0.399,0.574l-0.296,0.62l-0.36,0.231l-0.391,0.108l-0.4,0.235
		l-0.558,0.757l-0.206,0.082l-0.349,0.044l-0.72,0.744l-0.245,1.158l0.155,1.399l-2.599,1.912l-1.112,1.149l-0.728,1.204
		l-0.084,0.079l-2.423,2.249l-1.147,0.401l0.048,0.962l-0.55,0.285l-0.142,0.099l-0.142,0.357l-0.962,0.346l-0.36,0.356
		l-0.514,0.893l0.459,1.042l-0.875,1.267l-2.554,1.951l-4.118,1.299l-1.856,1.078l-0.57,1.967l0.158,0.507l0.511,0.975l0.122,0.62
		l-0.063,0.775l-0.14,0.35l-0.074,0.185l-0.265,0.481l-0.602,1.82l-0.055,0.271l0.107,0.315l0.202,0.274l0.285,0.315l0.016,0.943
		l-0.147,0.463l-0.432,0.543l-0.403,0.302l-1.27,0.676l-1.009,1.141l-0.38,0.321l-2.742,1.51L550,291.511l-0.514,0.676l0.119,0.734
		l0.926,1.038l-1.353,1.714l-1.334,2.293l-0.435,0.471l-0.15,0.338v0.285l0.083,0.261l0.091,0.229l0.027,0.171v0.424l0.079,0.376
		l-0.071,0.366l-0.439,0.422l0.183,0.113l1.882,1.159l0.562,0.608l0.467,0.84l0.052,0.613l-0.681,1.529l-0.557,1.25l-0.127,0.433
		l-0.273,1.568l-0.02,0.598l0.036,0.512l-0.166,0.369l-0.843,0.263l-0.221,0.026l-0.23-0.029l-0.301-0.097l-0.071-0.006
		l-0.063,0.006l-0.063,0.02l-2.295,1.127l-0.934,0.595l-0.142,0.666l0.4,0.758l0.676,0.851l-0.119,0.474l-0.293,0.557l-0.51,1.199
		l0.921-0.551l1.737-0.414l1.745-0.068l1.302,0.582l1.242-0.64l1.954-2.294l2.449-1.626l0.989-1.05l-0.198-1.276l-0.269-0.117
		l-0.641,0.295l-0.4-0.209l-0.162-0.234l-0.368-0.916l-0.02-0.223l-0.352-0.942l-0.158-0.553l0.206-0.757l0.807-1.1l1.092-1.447
		l1.242-1.08l1.179-0.383l1.258-0.058l1.242-0.319l3.264-2.244l2.453-0.488l2.552,0.082l5.703,1.48l0.576,0.286l0.357,0.552
		l0.04,0.508l0.043,0.545l-0.273,0.929l-1.008,1.187l-0.206,0.641l0.732,1.266l1.357,1.445l0.87,1.503l-1.357,2.646l-0.665,1.98
		l-0.352,1.894l0.332,0.928l3.046,0.674l0.585,0.568l-0.04,0.422l-0.269,0.422l-0.309,0.377l-0.174,0.285l0.107-0.054l0.067,0.547
		l0.012,0.576l-0.055,0.054l0.016,0.427l-0.079,0.231l0.024,0.171l0.336,0.256l0.364,0.051l0.293-0.222l0.273-0.282l0.32-0.131
		l0.871,0.385l2.592,2.935l0.186,0.125l0.139,0.587l0.439,1.144l0.269,1.007l0.206,0.554l0.265,0.444l-0.55,0.262l-0.403,0.506
		l-0.308,0.662l-0.241,0.742l-0.523,0.881l-0.771,0.657l-0.867,0.443l-0.815,0.241l-0.946-0.008l-0.265,0.04l-0.028,0.282
		l-0.04,0.38l-0.04,0.247l-0.238,0.076l-0.225-0.361l-0.252-0.152l-0.331-0.133l-1.039,0.315l-0.59,0.355l-0.487,0.809l-0.206,0.902
		l-0.027,0.979l0.103,0.981l0.431,2.273l0.772,1.167l1.033,0.774l1.001,0.204l0.511,0.192l0.87,0.866l0.511,0.391l1.242,0.317
		l0.47,0.331l0.234,0.814l-0.091,0.311l-0.439,0.962l-0.103,0.455l0.075,0.441l0.419,0.645l0.15,0.407l0.21,2.26l0.289,0.794
		l1.749,0.982l1.666,1.262l0.128,0.204l0.247,0.393l0.265,0.68l0.309,0.612l0.51,0.389l1.638,0.719l0.296,0.228l-0.04,0.679
		l-0.34,0.831l-0.791,1.425l-1.239,1.483l-0.198,0.321l0.194,1.578l0.411,1.091v0.854l-1.041,0.877l-0.728,1.334l-0.257,0.264
		l-0.202-0.073l-0.479-0.584l-0.304-0.132l-1.349,0.374l-1.369,0.626l-0.495,0.474l-0.665,1.168l-0.562,0.511l-0.348,0.084
		l-0.894,0.012l-0.301,0.134l-0.202,0.46l0.178,0.295l0.222,0.25l-0.075,0.337l-1.246,0.603l-1.377-0.488l-1.404-0.763l-1.341-0.228
		l-0.288,0.149l-0.689,0.536l-0.332,0.19l-0.3,0.051l-0.692-0.025l-0.34,0.061l-1.327,0.766l-0.127,0.107l-0.565,0.476l-0.455,0.614
		l0.673,1.031l0.623,0.54l0.06,0.381l-0.044,0.434l0.103,0.491l0.459,0.798l0.403,0.347l1.341,0.126l1.005,0.733l0.246,1.553
		l-0.075,3.027l0.669,1.131l1.254,1.089l2.639,1.543l0.724,0.184l1.887-0.38l0.665,0.056l1.919,0.792l0.688,0.756l0.158,0.271
		l0.083,0.318l-0.012,0.164l-0.036,0.145l0.004,0.259l-0.071,0.039l-0.19,0.85l-0.028,0.07l0.435,1.167l0.206,1.332l0.147,0.46
		l1.163,2.208l0.221,0.701l-0.685,0.014l-1.38-0.412l-0.704,0.005l-0.879,0.484l-0.704,0.87l-0.273,1.093l0.431,1.142l-0.534,0.404
		l-1.313,2.286l-1.951,1.502l-0.408,0.722l0.119,1.67l0.859,1.503l1.163,1.231l1.001,0.839l-1.286,0.712l-0.269,0.463l-0.321,1.672
		l-0.095,0.321l-0.008,0.271l0.142,0.492l0.158,0.243l0.843,0.993l0.301,0.525l0.451,1.086l0.214,0.404l0.345,0.362l0.759,0.55
		l0.352,0.414l0.242,0.525l0.127,0.5l0.174,0.467l0.36,0.411l0.51,0.21l0.455-0.075l0.459-0.155l0.514-0.044l0.482,0.141
		l2.251,1.204l1.535,0.563l4.071,2.518l0.72,0.306l0.997,0.168l0.503,0.196l0.265,0.389l0.206,0.444l0.36,0.352l0.368,0.086
		l1.539,0.038l6.659-1.927l1.104-0.088l1.574-1.034l1.183,0.215l-0.526,1.735l0.467,0.992l0.847,0.851l0.449,0.97l0.152,0.327
		l-0.075,0.923l-0.427,0.573l-0.554,0.427l-0.419,0.473l-0.245,0.649l-0.316,1.194l-0.296,0.613l-0.855,0.954l-1.979,1.676
		l-0.771,1.239l-1.658,1.835l-0.598,1.101l0.186,1.343l0.749,2.546l-0.505,0.358l-0.162,0.004l-0.159-0.024l-0.165,0.071
		l-0.025,0.194l0.059,0.673l-0.034,0.186l-0.306,0.155l-0.221-0.021l-0.318,0.265l-0.321,0.385l-0.326,0.343l-0.429-0.641
		l-0.738-0.427l-0.744,0.298l-0.57,0.639l-0.206,0.62l-0.058,0.604l-0.481,0.373l-0.417,0.416l-0.162,0.504l-0.288,0.629
		l-0.441,0.062l-0.693-0.129l-0.791-0.298l-0.879,0.089l-0.598,0.358l-0.504,0.565l0.127,0.567l-0.689,0.783l-0.384,0.228
		l-0.273-0.664l-0.728-0.169l-0.5,0.214l-0.497,0.068l-0.283,0.493l-0.293,0.226l-0.134,0.387l-0.264,1.482l0.227,1.428l0.019,0.278
		l0.14,0.586l0.102,0.446l-0.513,0.33l-0.481-0.886l-0.33-0.198l-0.608-0.02l-0.665,0.416l-0.495,0.577l-0.499,0.408l-0.301,0.311
		l-0.251-0.614l-0.619,0.042l-0.79-0.096l-0.698,0.104l-0.517,0.361l-0.646,0.679l-0.165,0.781l0.332,0.242l-0.022,0.026
		l0.184,0.147l0.019,0.238l-1.118,1.442l-0.181,1.253l-0.847,0.581l-0.162,0.547l-0.878,0.081l-0.054-0.314l-0.119-0.179
		l-0.138-0.206l-0.19,0.168l-0.072,0.393l0.155,0.678l-0.515,0.173l-0.453-0.17l-0.612-0.014l-1.371,0.392l-0.386-0.517
		l-0.608-0.223l-0.405,0.252l-0.587,0.53l0.064,1.358l-0.576,0.8l0.002,0.858l-0.915,0.117l-0.741,0.105l-0.327,0.694l-0.181,0.572
		l-0.355,0.39l-1.049,1l-1.048,0.626l-0.243,0.795l0.795,0.242l2.323-0.626l0.805,0.17l0.178,0.395l-0.483,0.915l-0.652,0.447
		l-0.113,0.959l0.251,0.404l0.299,0.634l-0.742,0.585l-0.766,0.45l-0.43,0.103l-0.738,0.34l-0.399-0.083l-0.153-0.256l-0.084-0.413
		l-0.459,0.176l-0.672-0.004l-0.911,0.118l-0.134,0.507l-0.372,0.629l-0.805,0.503l-1.015-0.267l-1.066,0.176l-1.122,0.02
		l-0.778,0.284l-0.885,0.57l-0.477,0.915l0.145,0.688l0.21,0.77l-1.267,0.004l-0.512-0.48l-0.122-0.224l-0.746-0.274l-0.989-0.485
		l-1.03-0.116l-1.293,0.227l-1.014,0.408l-0.556,0.31l-0.602,0.537l-0.374,1.082l-0.015,1.25l0.711,0.303l0.539-0.164l-0.204,0.499
		l-0.981,0.113l-2.173,0.131l-0.351-0.188l0.556-0.31l0.621-0.229l0.491-0.393l-0.114-0.981l-0.744-0.679l-0.678,0.074l-1.815,0.246
		l-0.671,0.001l-0.401-1.088l-0.949-0.178l-1.266,0.009l-0.94-0.599l0.094-0.307l0.065-0.506l0.103-0.258l-0.629-0.018l-0.61,0.16
		l-1.115,0.57l0.645,0.262l0.55,1.165l0.637,0.294l0.924,0.399l-0.425,0.475l-0.884-0.096l-1.12,0.027l-0.483,0.18l-0.717,1.256
		l-1.441-0.452l-1.1-0.863l-0.32-0.481l0.805-0.512l0.582-0.535l-0.254-0.4l-0.417-0.268l-0.657-0.144l-0.098-0.458l-0.18-0.392
		l-0.597-0.061l-0.748-0.004l-1.711-0.777l-0.33-1.153l-0.527-0.579l-0.716-0.299l-0.804-0.086l-0.433,0.551l-0.401,0.856
		l-0.925-0.396l-0.595-0.061l-0.526-0.652l-0.449-0.645l-0.36-0.71l-0.493-0.275l-0.406,0.257l-0.389,0.109l-1.697-0.15
		l-0.769,0.046l-1.157-0.192l-0.544-0.055l-0.955,0.235l-0.894-0.422l0.138-0.929l0.122-0.537l0.271-0.534l0.318-0.864l-0.452-0.522
		l-0.052-0.617l-0.159-0.308l-0.495-1.913l-1.711-1.115l-2.139,1.444l-2.873-0.067l-1.457,0.187l-2.312-0.119l-1.178-0.393
		l-0.769-1.181l-0.32-1.248l0.787-1.459l1.187-0.671h3.408l1.059-0.328l0.729-0.592l0.791-0.965l0.489-1.184l-0.134-1.25
		l-1.119,0.741l-1.075,0.393l-0.978-0.174l-0.825-0.96l-0.265-0.812l-0.025-0.451l-0.197-0.271l-0.794-0.27l-0.29-0.039
		l-0.907,0.039l-0.159-0.174l-0.545-0.755l-0.237-0.15l-0.262,0.337l-0.246,0.71l-0.187,0.722l-0.065,0.393l0.205,0.998l0.346,0.436
		l0.464,0.257l0.554,0.468l0.458,1.322l-0.427,1.18l-0.901,0.648l-1.115,0.12l-0.589-0.124l-2.09-1.216l-0.969,0.448l-0.405,0.331
		l-0.935,0.206l-0.374,0.328l-0.311,0.727l0.181,0.276l0.379,0.963l0.102,0.673l1.281-0.097l-0.912,0.852l-0.82,0.473l-0.189-0.903
		l-0.673-1.214l-1.588-0.903l-1.299-1.224l-0.589-1.39l0.096-3.095l-0.096-0.902l-0.24-0.793l-0.396-0.914l-0.533-0.778l-0.663-0.4
		v0.327l1.14,1.822l0.168,0.554v3.783l0.527,1.774l1.041,1.087l1.162,0.836l0.879,0.995l-0.105,1.095l-1.112,0.06l-4.798-0.122
		l-2.815-0.65l-0.998-0.59l-0.029-0.887l0.772-0.859l0.09-0.666l-0.324-0.694l-0.934-0.696l-1.614-0.661l-3.966,0.425l-7.791-0.641
		l-0.928-0.204l-0.816-0.408l-1.053-0.82l-0.598-1.237l0.598-1.177l-0.062-0.183l-0.991-0.825l-2.215-0.226l-2.165,0.279
		l-1.452,0.576l-0.523,0.391l-7.632,6.314l-4.508,1.998l-1.243,1.054l-2.922,3.884l-0.804,0.355l-1.529-0.76l-0.919,0.173
		l-1.645,0.082l-2.592,1.095l-2.81,2.294l-0.642,0.797l-0.252,0.474l-0.523,0.451l-0.436,0.523l-0.657,0.6l-0.489,0.673
		l-0.439,0.899l-0.707,0.747l-0.841,0.772l-0.377,0.971l-0.311,0.797l-0.384,0.973l-0.598,1.419l-0.274,0.971l-0.274,0.82
		l-0.38,1.493l-0.274,1.119l0.109,0.521l0.492,0.298l0.053,1.044l-0.327,3.129l-0.271,2.977l-0.056,2.081l0.165,1.338l-0.218,2.156
		l0.162,2.819l0.165,2.152l0.218,1.705l0.545,0.666l0.819,0.369l1.038,0.225l0.872,0.296l0.327,0.518v0.593l-0.109,0.592
		l0.275,0.517l0.383,0.37l0.598,0.963l0.218,1.11l-0.022,0.187l-1.652,0.287l-1.001,0.049l-0.977-0.113l-0.788-0.251l-0.459-0.292
		l-0.372-0.396l-0.301-0.485l-0.245-0.573l-0.253-0.072l-1.12-0.029l-0.408-0.088l-0.652,0.432l-1.238-0.479l-1.258,0.984
		l-0.641,0.108l-0.657-0.023l-0.617,0.066l-0.613,0.366l-1.155,1.128l-0.613,0.391l-0.799,0.127l-1.5-0.232l-0.783,0.059
		l-0.676,0.348l-1.615,1.281l-0.304,0.447l0.348,0.99l0.475,0.537l0.016,0.225l-1.025,0.058l-0.842-0.159l-1.761-0.605l-0.74,0.02
		l-0.296,0.273l-0.321,0.839l-0.257,0.253l-0.4,0.012l-0.427-0.144l-0.775-0.442l-0.708-0.189l-0.739-0.587l-0.601-0.807
		l-0.281-0.837l-0.609-0.03l-1.191-0.262l-2.227-1.051l-0.46-0.382l-1.068-0.604l-1.203,0.13l-2.366,0.743l-1.808-0.229
		l-0.609,0.291l-0.182,0.27l-0.289,0.765l-0.182,0.301l-0.914,0.703l-0.645,0.692l-0.443,0.288l-0.629,0.161l-0.997,0.113
		l-0.518-0.083l-0.471-0.304l-0.752-0.657l-0.364-0.8l-0.503-1.94l-0.522-0.871l-0.593-0.263l-0.716-0.04l-0.898-0.211l-2.148-1.476
		l-0.803-0.337l-2.377-0.329l-0.704-0.294l0.019-0.159l-0.027-0.13l-0.075-0.106l-0.115-0.075l0.139-1.296l0.424-1.079l0.7-0.682
		l0.962-0.09l-0.153-0.222l-0.322-0.47l-0.89-0.276l-0.617-0.393l0.332-1.056l-4.352-0.43l-0.419-0.197l-2.077-1.428l-0.586,0.043
		l-1.124,0.432l-1.21-0.063l-0.59,2.05l-0.847,0.346l-0.554-0.725l-0.645-1.784l-0.736-1.021l-0.677-1.223l-0.321-0.174l-0.36-0.02
		l-0.194-0.208l0.166-0.741l-0.898-0.245l-4.716-0.015l-1.278,0.415l-0.423-0.054l-0.657-0.482l-0.392-0.718l-0.288-0.808
		l-0.376-0.749l-0.677-0.61l-0.799-0.25l-3.264-0.222l-0.293-0.177l-0.633-0.52l-0.324-0.125l-0.392,0.128l-0.36,0.294l-0.364,0.191
		l-0.411-0.172l-0.609-0.608l-0.332-0.256l-1.136-0.445l-1.654-0.984l-0.657-0.116l-0.744,0.073l-0.669-0.147l-1.321-0.523
		l-0.673-0.068l-1.049,0.077l-0.882,0.349l-0.182,0.75l0.083,1.115l-0.538,1.461l0.423,0.589l-0.285,0.225l-0.142,0.221
		l-0.233,0.524l0.542,0.195l0.459,0.581l0.261,0.789l-0.04,0.839l-0.076,0.128l-0.256,0.428l-0.502,0.183l-1.357-0.183l-4.772,0.14
		l-0.635-0.268l-1.46,0.387l-0.747,0.04l-0.766-0.15l-0.187-0.18l-0.027-0.214l0.013-0.217l-0.084-0.17l-1.058-0.906l-0.694,0.25
		l-0.679,0.685l-1.074,1.523l-0.569,0.083l-0.596-0.713l-0.821-1.458l-0.611-0.304l-2.038-0.534l-0.621,0.097l-0.718,0.489
		l-2.348,0.351l-2.954,1.091l-1.325,0.124l-1.511-0.601l-0.222-0.23l-0.178-0.262l-0.264-0.237l-0.488-0.14l-0.404-0.182
		l-0.107-0.337l-0.049-0.368l-0.234-0.288l-0.631-0.522l-0.462-0.772l-0.223-0.901l0.085-0.906l-0.689,0.293l-1.108,0.306
		l-1.026-0.122l-0.455-0.971l-2.225-1.356l-0.087-0.053l-0.588-0.557l-0.209,0.518l-0.265,0.397l-0.299,0.116l-0.332-0.34
		l-1.84,1.458l-0.926,0.556l-1.169,0.091l-2.065-0.969l-0.976-0.027l-0.067,1.241l-0.337,0.115l-0.641,0.442l-0.301,0.047
		l-0.37-0.245l0.006-0.311l0.054-0.338l-0.222-0.315l-0.168-0.052h-0.621l-0.253-0.117l0.008-0.195l0.073-0.226l-0.055-0.223
		l-1.486-2.002l-0.681-0.572l-1.313-0.819l-0.388-0.065l-0.374,0.055l-0.376-0.047l-0.389-0.38l-0.214-0.477l0.041-0.281l0.128-0.24
		l0.02-0.366l-0.158-0.409l-0.56-1.452l-1.025-0.354l-2.951,0.534l-3.051-0.253l-1.464-0.478l-1.334-1.004l-0.467-0.548
		l-0.635-0.184l-1.325-0.166l-0.287-0.241l-0.633-0.405l-0.332-0.131l-1.436,0.133l-1.248-1.024l-1.316-0.732l-2.22-0.396
		l-0.72-0.439l-0.647-0.749l-0.172-0.701l0.31-0.687l0.801-0.692l-0.864-0.23l-0.859,0.326l-0.659,0.748l-0.265,1.05l-0.092,1.373
		l-0.327,0.708l-0.651,0.215l-1.049-0.089l-0.937-0.252l-0.847-0.49l-0.694-0.789l-0.481-1.136l0.315-0.443l1.576-1.705l0.485-0.655
		l0.584-1.659l0.416-2.092l-0.147-1.922l-1.1-1.14l-0.459-0.005l-0.423,0.152l-0.425,0.075l-1.596-0.84l-1.191-0.357l-0.759-0.027
		l-0.572,0.349l-0.303,0.898l-0.217,0.461l-0.418,0.242l-0.483,0.062l-0.413-0.062l-0.467-0.216l-0.19-0.24l-0.279-0.899
		l-0.063-0.461l0.107-0.321l0.005-0.248l-0.377-0.272l-0.726-0.348l-0.351-0.041l-0.777,0.332l-0.823,0.11l-0.449,0.222
		l-0.413,0.069l-0.091-0.2l-0.103-0.226l-0.128-1.024l-0.477-0.651l-1.098-0.537l-0.01-0.642l0.027-1.109l0.091-0.613l0.103,0.075
		l0.024,0.017l0.584,0.427l0.288-0.393l0.702-0.296l3.392-0.551l0.888-1.27l0.855-0.463l0.716-0.525l0.334-0.455l0.829-1.635
		l0.165-0.592l0.335-0.421l1.506-1.968l0.293-0.606l1.128-1.582l0.262-1.663l0.922-3.011l1.57-8.686l0.91-3.039l1.342-6.891
		l2.47-15.102l1.05-7.511l0.262-3.331l-0.094-0.789l-0.327-1.521l0.04-0.456l1.013-1.478l0.149-0.341l0.103-0.65l0.685-2.469
		l0.757-0.946l0.96-0.038l2.344,0.583l1.347-0.204l0.776-0.554l0.012-0.82l-0.947-0.999h0.523l-0.375-0.769l-2.892-2.73
		l-0.416-0.178l-0.179-0.108l-0.162-0.167l-0.181-0.119l-0.263,0.024l-0.164,0.164l-0.075,0.233l-0.05,0.215l-0.09,0.092
		l-0.248,0.505l-1.724,2.64l-0.433,2.375l-0.34,1.296l-0.251,0.604l2.332-26.653l1.592-8.599l0.685-11.497l0.24-0.806l1.306-2.661
		l0.548-0.848l0.616-0.234l0.405,0.2l0.09,0.247l-0.02,0.411l-0.024,0.617l-0.107,0.18l-0.083,0.289v0.291l0.119,0.293l0.404,0.656
		l0.335,0.425l2.564,2.006l1.615,0.913l0.594,0.184l4.635,5.18l1.072,1.598l0.447,1.643l0.098,1.085l0.508,2.025l0.713,5.039
		l0.156,0.62l1.293,3.147l1.303,1.711l1.467,1.433l1.227,0.725l0.338,0.383l0.316,0.681l0.058,0.501l-0.111,0.865l0.047,1.129
		l0.167,1.122l0.319,0.878l0.517,0.396l-0.153-0.746l-0.143-1.537l-0.232-0.667l0.363-1.459l-0.436-1.174l-0.85-0.872l-0.903-0.56
		l1.182,0.057l0.991,0.22l0.88,0.441l0.867,0.725l-0.964-1.703l-1.523-0.758l-1.662-0.542l-1.363-1.063l-0.698-1.411l-0.486-1.72
		l-1.453-10.414l-0.5-2.105l-1.276-3.434l-0.767-1.529l-0.857-1.366l-1.772-2.044l-5.425-3.96l-0.13-0.234l-0.153-1.028
		l-0.243-0.234l-1.265-0.467l-2.05-2.054l-1.153-0.468l-0.722-0.151l-0.633-0.395l-0.54-0.55l-0.466-0.62l-0.711-0.544l-1.346,0.296
		l-0.686-0.281l0.657-3.823l-0.007-0.704l2.545-0.784l0.748,0.033l2.439,2.892l0.436,0.29l0.457,0.433l2.682,1.254l-0.859-0.977
		l-3.439-2.791l-0.991-1.188l-0.204-0.497l-0.057-0.637l-0.169-0.82l-0.254-0.796l-0.326-0.573l0.426-0.228l0.267-0.327l0.196-0.329
		l0.183-0.244l0.43-0.385l0.593-0.365l0.355-0.052l0.307,0.068l0.245-0.13l0.16-0.638l-0.048-0.571l-0.226-0.571l-0.275-0.477
		l-0.24-0.296l0.212-0.175l0.384-0.421l0.193-0.153l-0.627-0.421l-0.422-0.739l-0.542-1.817l0.803,0.561l0.642,0.04l0.508-0.458
		l0.422-0.931v-0.339l-0.161-0.247l-0.218-0.256l-0.253-0.202l-0.729-0.274l-0.135-0.449l-0.038-0.557l-0.279-0.75l0.013-0.516
		l-0.052-0.211l-0.142-0.086l-0.492-0.168l-0.131-0.092l-0.228-0.258l-0.232-0.182l0.004-0.236l0.455-0.452l-0.894-0.681
		l-0.293-0.074l-0.156-0.108l0.01-0.251l0.05-0.268l-0.046-0.162l-0.205-0.043l-0.579,0.043L270,315.771l-0.346,0.024l-0.327-0.065
		l-0.364-0.389l-0.042-0.463l0.245-0.54l0.38-0.468l0.357-0.243l-0.206-1.058l0.419-0.729l2.636-1.647l0.31-0.705l-0.033-0.447
		l-0.173-0.471l-0.104-0.784l-0.832-1.188l-1.713-0.113l-1.42,0.858l0.043,1.749l-1.029-0.284l-0.731-0.897l-0.697-1.057
		l-0.611-0.174l-0.386-0.068l-1.178-0.713l-0.866-0.753l-0.512-0.215l-2.033,0.65l-0.972-0.052l-0.416-1.183l-0.226-1.4
		l-0.611-1.012l-0.882-0.619l-1.05-0.208l-2.56-0.109l-1.029-0.339l0.324-0.689l-0.623-0.597l-2.041-0.366l-1.284-1.133
		l-1.084-0.295l-0.48-0.303l-0.279-0.457l-0.43-1.217L246.781,295l0.011,0.695l0.222,0.907l0.052,0.484l-0.164,0.249l-0.36-0.199
		l-0.36-0.505l-0.852-4.083l0.168-0.97l-0.613-0.26l-0.303-0.623l-0.177-0.751l-0.237-0.646l-0.575-0.674l-0.589-0.511l-0.458-0.54
		l-0.388-1.426l-0.508-0.411l-0.645-0.219l-0.629-0.068l-0.327-0.34l-1.134-2.325l-2.131-2.238l-1.187-0.856l-0.99-0.341
		l-0.444-0.364l-0.28-0.875l-0.152-1.068l-0.046-0.959l0.095-1.212l0.26-0.575l0.982-0.716l-0.223-0.794l0.562-0.593l1.464-0.91
		l0.467-0.847l0.645-2.024l0.455-0.996l0.673-0.508l-0.071-0.951l-0.428-0.995l-0.413-0.652l-0.592-0.59l-2.302-1.298l-4.415-0.783
		l-1.364-0.753l0.508-0.346l0.414-0.387l0.446-0.321l1.246-0.179l0.293-0.197l0.119-0.458l0.115-0.836l0.016-0.768l-0.407-0.883
		l-0.108-0.851l0.047-0.624l0.15-0.727l0.246-0.675l0.34-0.48l0.919-0.402l3.523-0.365l0.265-0.206l0.259-0.131l0.284-0.049
		l0.305,0.386l0.285,0.267l1.962,0.519l0.589-0.018l-0.264-0.382l0.443,0.007l0.411,0.122l0.372,0.239l0.341,0.367h-0.782v0.418
		l1.57,1.156l1.592,0.315l0.389,0.264l0.848,0.918l0.878,0.394l2.066,0.069l-0.773-0.516l-1.57-0.319l-0.666-0.546l-1.159-1.381
		l-1.349-1.125l-1.319-0.804l-0.768-0.257l-0.903-0.092l-0.34-0.128l-0.536-0.551l-1.453-0.427l-5.282,0.368l-1.204,0.739
		l-0.27,0.418l-0.153,0.368l-0.206,0.354l-0.396,0.367l-1.14,0.335l-0.894,0.895l-0.726,0.293l-0.754-0.013l-0.689-0.282
		l-0.57-0.516l-0.933-1.088l-0.615-0.358l-0.639-0.083l-0.358,0.019l-0.285,0.064l-0.304,0.267l-0.143,0.381l-0.059,0.344
		l-0.041,0.161l-1.118-0.032l-3.583-1.892v-0.386l0.879,0.131l1.644,0.788l0.869-0.147l0.657-0.776l-0.352-0.753l-0.768-0.758
		l-0.581-0.795l-0.28,0.14l-0.128,0.085l-0.114,0.122l0.187,0.414l0.017,0.228l-0.204,0.551h-0.285l-0.063-1.637l-0.439-0.867
		l-1.592-1.035l3.047-1.834l0.408,0.025l0.396,0.173l0.642,0.124l-0.076,0.313l-0.045,0.004l-0.161,0.103l0.282,0.352l0.368-0.428
		l1.318-0.741l0.122-0.378l-0.585-0.117l-0.943-0.026l-0.628-0.251l0.349-0.802l-0.623-0.422l-0.799-0.088l-0.488-0.306l0.318-1.078
		l-0.541-0.735l0.426-0.383l2.389-0.129l1.399-0.392l0.795,0.055l-0.62-0.173l-1.031,0.18l-0.701-0.007l-2.922-1.162l-0.604-0.097
		l-0.498,0.064l-1.253,0.42h-1.434l-0.351,0.12l-0.22,0.203l-0.234,0.042l-0.394-0.365l0.576-0.106l0.673-0.42l0.57-0.644
		l0.293-0.764l-0.592,0.584l-0.542,0.09l-0.565-0.055l-0.652,0.157l0.311,0.064l0.237,0.111l0.153,0.215l0.082,0.38l-0.967,0.014
		l-0.449-0.106l-0.411-0.296l-0.061,1.357l-0.522,0.304l-1.274-0.464l-0.639,0.044l-1.994,0.692l-0.741,0.074l-0.573-0.062
		l-0.5-0.249l-0.515-0.498l-0.078-0.214l-0.589-1.114l-0.143-0.057l-0.159-0.302l-0.366-0.178l-0.434-0.074l-0.117-0.06l0.055-0.079
		l-0.022-0.277l-0.657-0.254l0.638-0.464l1.044-0.002l0.564,1.14h0.265l0.212-0.3l0.218-0.124l0.268,0.088l0.346,0.337l0.042-0.365
		l0.22-0.831l0.595,0.708l0.97,0.316l1.042-0.102l0.813-0.536l-0.285-0.388l1.494-2.088l0.178-1.056l-0.863-1.121v0.351l0.368,0.383
		l0.05,0.365l-0.227,0.284l-0.477,0.132l0.545,0.388l-0.171,0.27l-0.167,0.122l-0.444,0.03l-0.196-0.318l-1.916-1.234l0.801,0.118
		l0.764,0.27l-0.453-0.659l-0.455-0.296l-1.184-0.208l0.526,0.351l-0.791,0.379l-1.978,0.21l-0.393,0.4l-0.337,0.68l-0.751,0.349
		l-1.265,0.312v-0.354h0.259v-0.422l-0.498,0.088l-0.12,0.092l-0.164,0.242h-0.262l-0.146-0.693l-0.041-0.576l0.122-0.439
		l0.327-0.268l-0.551-0.021l-0.402-0.298l-0.253-0.527l-0.099-0.703H201.4l0.053,0.444l0.181,0.71l0.053,0.395v1.359l0.137,0.568
		l0.341,0.628l0.428,0.57l0.399,0.4l-0.096,0.39l-0.063,0.164l-0.103,0.222l-0.103-0.206l-0.396-0.57l-0.319,0.222l-0.345-0.365
		l-0.408-0.589l-0.518-0.464l0.226,0.753l-0.215,0.351l-0.352-0.148l-0.183-0.744l-0.138-0.873l-0.246,0.085l-0.134,0.631
		l0.231,0.755l-0.545-0.04l-0.224-0.079l-0.253-0.27l-1.204,0.659l-0.609,0.055l-0.535-0.326l0.246-0.159l0.253-0.229l-0.372-0.346
		l-0.444-0.284l-0.43,0.023l-0.322,0.607l0.173,0.083l0.163,0.192l0.188,0.113l-0.416,1.909l0.215,1.621l0.632,1.315l0.851,0.996
		l-0.52-0.027l-0.804-0.222l-0.243,0.249h-0.238l-0.463-1.632l-0.061-0.514l0.083-0.621l0.358-0.957l0.082-0.766l-0.095-1.323
		l-0.268-0.981l-0.421-0.749l-0.548-0.626l-0.365-0.234l-0.43-0.183l-0.362-0.222l-0.15-0.347l0.085-0.738l0.461-1.593l2.877-1.34
		l-0.148-0.298l-0.081-0.32l-0.033-0.405v-0.567l-0.182,0.125l-0.449,0.178l-0.178,0.12l-0.023-1.202l0.023-0.386h-0.238
		l-0.299,0.602l-0.411-0.107l-0.514-0.264l-0.606,0.12l0.536,0.209l0.364,0.417l0.243,0.607l0.162,0.783l-0.19,0.041l-0.038,0.041
		v0.093l-0.056,0.212l-0.455-0.333l-0.268,0.208l-0.301,0.366l-0.542,0.148l0.148,0.172l0.396,0.601l-0.534,0.262l-0.182,0.529
		l-0.122,0.525l-0.349,0.238l-0.284-0.224l-1.167-1.33l-0.976-0.28l-1.682-0.458l-1.024-0.035l0.691-0.282l0.681,0.074l1.523,0.56
		v-0.352l-0.606-0.37l-0.682-0.241l-1.607-0.166v-0.424l0.342-0.035l0.162-0.125l0.043-0.285v-0.528l0.131-0.225l0.651,0.1
		l0.24-0.069l0.492-1.263l0.346-0.677l0.489-0.394v-0.422l-0.832,0.983l-1.05,1.001l-1.164,0.688l-0.803,0.192l0.295,0.171
		l0.238,0.241l0.183,0.292v0.354l-3.137,0.789l-0.545-0.171l-0.165-0.31l-1.143-1.475l-0.548-1.165l-0.424-0.496l-0.163-0.245
		l-0.146-0.427l-0.421,0.352l-0.626-0.014l-1.352-0.338l-0.991,0.046l-0.318-0.046l-0.303-0.176l-0.434-0.497l-0.178-0.106
		l-1.45,0.074l-0.737-0.264l-0.322-0.779l-0.33-0.158l-1.997,1.127l-0.556-0.547l-0.814,0.016l-0.857,0.181l-0.694-0.072
		l-0.053-0.19l-0.732-1.366l-0.268-0.299l-0.278-0.223l-0.134-0.341l0.157-0.662l-0.332-0.014l-0.24-0.104l-0.475-0.304
		l-0.121-0.622l-0.719-0.83l-1.022-0.69l-1.012-0.2l0.346,1.169l-0.277,0.862l-0.858,0.949l-0.777-0.216l0.385,0.033l0.304-0.084
		l0.222-0.26l0.134-0.502l-0.464,0.172l-0.382,0.018l-0.288,0.128l-0.197,0.494l-1.081-0.898l-0.509-0.207l-0.618-0.06l-0.465-0.265
		l-0.488-0.673l-0.377-0.897l-0.117-0.929l-0.403,0.679l0.226,0.862l0.515,0.78l0.466,0.444v0.353l-0.481,0.04l-0.377,0.137
		l-0.346,0.253l-0.386,0.383l-0.723-1.254l-0.536,0.148l-0.109,0.702l0.557,0.404l-0.106,0.216l-0.129,0.174v0.355h1.045v0.43
		l-1.243,1.201l-0.587,0.353l-0.943,0.271l-5.613-0.271l0.022-0.432l-0.085-0.794l0.063-0.329l0.243-0.151l0.36,0.002l0.322-0.072
		l0.145-0.388l-0.133-1.017l-0.57-1.463l-0.374-1.556l-0.573-1.041l-1.826-2.377l-3.392-2.691l-0.384-0.208l-0.514,0.319
		l-0.47,0.575l-0.499,0.273l-1.147-1.125l-0.66-0.119l-1.293,0.077l-2.877-0.817l0.254-0.203l0.194-0.349l0.16-0.364l0.232-0.419
		l0.025-0.203l0.05-0.217l0.133-0.203l0.129-0.007l0.302,0.348l0.223,0.086l12.318-2.773l2.188,0.668l0.569-0.238l0.173-0.411
		l0.371-1.62l-0.172-0.649l-0.542-0.696l-0.116-0.402l-0.192-1.28l-0.516-0.526l-1.623-0.365l-0.302-0.189l-0.242-0.281l-0.17-0.341
		l-0.092-0.367l-0.961,0.357l-2.039-1.312l-1.065,0.365l-0.556,1.018l-0.536,1.311l-0.676,1.091l-0.989,0.339l0.335-1.22l0.19-0.381
		l-0.432-0.659l-0.235-0.489l-0.094-0.421l0.19-0.681l0.296-0.253l0.143-0.229l-0.263-0.585l-0.467-0.122l-2.299-0.096l0.102-0.604
		l-0.102-0.576l0.419-0.232l0.318,0.028l0.318,0.127l0.418,0.077l0.486-0.171l0.088-0.391l-0.1-0.405l-0.067-0.211l0.68-1.794
		l0.489-0.469l0.634,0.299l-0.5,2.127l1.059,0.508l3.408-0.241l0.388,0.197l0.257,0.248l0.294,0.215l0.497,0.086l0.464-0.042
		l1.806-0.531l2.568-0.173l-0.243,0.241l-0.24,0.105l-0.562,0.01l0.786,0.313l3.134-0.669v-0.431l-1.199,0.084l-0.449-0.22
		l-0.161-0.682l-0.354,0.45l-0.526,0.147l-0.477-0.192l-0.212-0.585l-0.24,0.068l-1.636,0.113l0.321-0.522l0.162-0.131l0.324-0.134
		l0.019-0.241l0.178-0.244l0.375-0.271l0.738-0.818l-0.646,0.012l-0.869,0.633l-0.601,0.178v-0.394h0.284v-0.429h-0.284
		l-0.118,0.281l-0.24,0.295l-0.141,0.247l-0.57-0.247l-1.209,0.842l-0.858,0.156l0.107-0.218l0.038-0.023l0.14-0.117l-0.285-0.393
		l-0.323,0.318l-0.439,0.234l-0.514,0.143l-0.528,0.056v-0.358l2.187-2.658l0.422-0.344l3.662-2.182l-0.682,0.204l-1.198,0.69
		l-0.764,0.287l-2.585,0.427l-1.187,0.512l-2.416,1.529l-1.873,0.462l-1.141,0.584l-0.747,0.099l-0.668-0.155l-1.332-0.544
		l-0.743-0.124l-0.136,0.19v0.417l-0.061,0.417l-0.338,0.192l-1.933-0.021l-0.512-0.197l-0.337-0.588l-0.237-1.198l0.712-0.07
		l-0.061-0.739l-0.651-1.553l-0.059-1.085l0.193-1.08l0.452-0.794l0.72-0.228v-0.36l-0.972-0.719l0.386-1.672l0.944-1.764
		l0.685-1.01l0.399,0.261l0.413,0.169l-0.285-0.43l0.61-0.424l0.721-0.236l1.185-0.132l0.745,0.212l1.271,0.721l0.481-0.141
		l-0.889-1.225l-0.277-0.791l0.501-0.354l1.754,0.457l0.715-0.028l-1.047-0.429l0.117-0.238l0.07-0.191l-0.084-0.184l-0.338-0.217
		v-0.358h2.993l0.864-0.155l1.267-0.609l0.888-0.026l-0.528-0.326l-0.234-0.071v-0.432l1.089-0.198l1.066-0.63l1.032-0.408
		l0.994,0.047l0.695,0.835l-0.283,1.28l0.896-0.099l1.168-0.707l0.404-0.12l0.469,0.092l0.867,0.347l0.512-0.007v-0.432
		l-0.736-0.212l0.201-0.589l0.657-0.677l0.638-0.467l0.737-0.298l0.887-0.17l0.871,0.059l0.69,0.408l0.226-0.352l0.212,0.014
		l0.189,0.269l0.157,0.43h0.237l0.256-0.274l0.156-0.344l0.025-0.436l-0.15-0.526l0.53-0.104l0.467-0.18l0.81-0.51l1.354-0.406
		l0.238,0.189l-0.097,0.553l-0.137,0.421l0.043,0.295l0.449,0.173v0.358h-0.258v0.432l0.383,0.248l0.257,0.432l0.058,0.582
		l-0.199,0.684l1.078-1.08l0.561-0.292l0.763,0.184l-0.382,0.349l-0.167,0.083v0.361l0.464,0.627l1.131,0.726l0.496,0.66
		l0.283-0.396l-0.283-0.394l0.283-0.396l-0.177-0.361l-0.134-0.476l-0.209-1.18h0.237l0.123,0.34l0.117,0.175l0.305,0.313
		l-0.099-1.012l0.112-1.114l0.302-0.649l0.47,0.366l0.166-0.267l0.084-0.276l0.025-0.316l-0.013-0.364l0.499,0.699l0.715,0.222
		l1.78-0.094l0.424,0.172l0.88,0.793l0.43,0.22l0.491,0.019l1.364-0.377l-0.014,0.982l0.939,0.297l1.119-0.007l0.545-0.299
		l-0.38-1.34l-0.156-0.888l0.156-0.397l1.997-0.363l-0.556-0.359l-1.323-1.659l-0.159-0.95l0.388-0.492l1.103-0.509l0.831-1.502
		l0.214-0.483h0.234l0.358,0.288l1.214,0.076l1.322,0.783l0.53,0.045l-0.217,0.175l-0.103,0.156l-0.07,0.192l-0.131,0.27
		l0.897,0.074l0.47-0.045l0.34-0.225l0.386-0.474l0.262-0.184l3.229-1.218l0.447-0.343h0.262l0.362,0.095l1.14-1.428l0.617,0.142
		l0.248,0.838l-0.023,1.134l-0.276,1.05l-0.495,0.584l0.042,0.263l0.047,0.163l0.193,0.369l0.141-0.736l0.312-0.556l1.145-1.434
		l0.942-0.809l0.338-0.433l0.397,0.185l0.71-0.867l0.486-0.149l0.47,0.312l0.273,0.528l0.024,0.61l-0.268,0.568v0.365l0.523,0.43
		l-0.29,0.473l-0.493,1.511l-0.251,0.461l-0.819,1.092v0.432h0.285l1.263-2.617l0.747-1.102l0.625,0.147l0.378-0.321l0.405-0.107
		l0.402,0.107l0.384,0.321l-0.288,0.397l0.15,0.055l0.092-0.002l0.039,0.071l0.007,0.272l-0.369,0.114l-0.295,0.17l-0.646,0.511
		v0.362l0.501,0.433l0.981,0.383l1.941,0.092l0.76,0.284l-0.051,0.482l0.001,0.349l0.05,0.393l-0.369,0.314l-0.152,0.083v0.363
		l0.561,0.364l0.691,0.607l0.585,0.68l0.253,0.581l2.492,2.158l0.38,1.73l0.156,0.462l0.059,0.297l-0.112,0.268l-0.078,0.29
		l0.131,0.368l0.19,0.172l0.497,0.252l0.917,0.699l2.184,1.066l-0.112,0.523l-0.156,0.41l-0.216,0.327l-0.299,0.287l0.45,0.021
		l0.368,0.204l0.323,0.344l0.322,0.433l0.533,0.442l0.102-0.541l-0.021-0.833l0.157-0.43l1.523,0.082l0.624-0.278l0.74-0.809
		l0.905-1.438l0.293-0.36l0.405-0.315l0.678-0.229l2.583-1.613l0.539-0.608v-0.394l-0.324-0.04l-0.744-0.356l1.707-0.521
		l0.834,0.122l0.337,0.795l0.997-0.396l1.155-0.764l0.998-0.991l0.533-1.055l0.137,0.673l0.274,0.425l0.387,0.176l0.508-0.085v0.432
		l-0.285,0.234l-0.167,0.302l-0.142,0.327l-0.189,0.326l-1.068,1.186l0.676,0.547l0.713-0.488l0.782-0.813l0.866-0.432l0.183,0.311
		l0.21,1.355l0.131,0.313l0.435,0.205l0.257,0.504l0.136,0.65l0.077,0.612l0.417-0.233l0.277-0.438l0.131-0.596l-0.019-0.704
		l0.162,0.845l0.207,0.725l0.341,0.337l0.573-0.332v-0.391l-0.157-0.061l-0.342-0.301l0.424-0.655l0.449-0.34l0.47,0.052
		l0.486,0.514l-0.265-0.358l-0.206-0.396l-0.315-0.83l1.708-0.606l1.832-0.184l0.098,0.262l0.807,1.499l0.062,0.622l0.194,0.579
		l0.337,0.424l0.473,0.17l-0.162,0.57l-0.121,0.222l0.987,1.506l0.234,0.772l-0.149,1.274l0.377-0.411l1.19-0.769l-1.068-0.755
		l0.205-0.455l-0.564-1.029l-0.14-0.925h0.26l0.157,0.262l0.163,0.172l0.467,0.358l-0.283-0.671l-0.346-0.355l-0.399-0.136
		l-0.433-0.019l-0.358-0.34l-0.71-1.722l-0.371-0.707l0.122-0.467l0.283-0.523l0.442-0.422l0.592-0.172l0.131-0.184v-0.411
		l0.068-0.408l0.343-0.186h1.439l-0.24-0.432l3.901-0.788l-0.113,0.25l-0.009,0.255l0.128,0.307l0.277,0.408l-0.951,1.559
		l0.009,1.353l0.871,0.99l1.615,0.455l2.802,0.035l3.019-0.471l1.847-1.013l0.231-0.05l0.382-0.085l3.03,0.394l4.112-0.924
		l1.4,0.531l-0.603-1.005l-0.854-0.445l-1.464-0.135l-0.006,0.135l-0.181,0.222l-0.212,0.094l-0.103-0.268l-0.043-0.373
		l-0.131-0.326l-0.203-0.226l-1.318-0.389l-0.477-0.312l-0.203-0.354l-0.326-1.367l-1.422-1.275l-0.324-1.375l-0.019-1.607
		l-0.16-1.377l-0.462-0.91l-0.923-0.239v-0.431l0.53-0.246l0.405-0.526l0.256-0.675l0.312-2.789l0.255-0.595l0.33,0.495l0.215-0.666
		l0.031-0.515l-0.193-0.327l-0.458-0.123l-0.156-0.337l0.414-3.375l0.248-0.87l0.514-0.28l0.933,0.444v-0.359l-0.738-0.356h-0.86
		l-0.716,0.416l-0.302,0.898l-0.12,0.24l-0.271-0.34l-0.27-0.584l-0.122-0.492l0.032-1.393l0.084-0.626l0.168-0.592l-0.539-0.11
		l-0.204-0.44l0.038-0.657l0.184-0.754l0.269-0.752l0.265-0.357l0.747-0.523l-0.47-0.369l-0.093,0.083l-0.197,0.286l-0.322-0.927
		l-0.257-1.103l-0.165-1.148l-0.062-1.059l0.297-0.557l0.696-0.051l1.38,0.408v-0.362l-0.81-0.246l-0.984-0.48l-0.826-0.021
		l-0.299,1.109l-0.607-0.715l-0.634-2.162l-0.565-0.688l0.248-0.265l0.108-0.083l0.168-0.088l-1.1-0.874l-0.465-0.652l-0.29-0.918
		h0.783v-0.363l-0.495-1.205h-0.288l-0.31,1.019l-0.709-0.454l-0.86-0.952l-0.757-0.45l0.101-0.407l0.067-0.172l0.12-0.223
		l-0.533,0.129l-0.504,0.23l-0.449,0.045l-0.371-0.404l-0.118-0.768l0.145-2.004l-0.027-0.845l-0.112-0.402l-0.161-0.379
		l-0.559-1.021l-0.05-0.285l-0.028-0.304l-0.134-0.458l-0.377-0.631l-0.99-1.218l-0.199-0.351l0.24-0.823l1.081-0.994l0.246-0.598
		l0.173-1.85l-0.011-0.981l-0.284-0.837l-0.312-0.659l-0.212-0.572l-0.341-0.41l-1.229-0.245l-1.685-0.717l0.306-1.397l-0.074-0.881
		l0.167-0.453l1.028-0.134l0.358,0.125l0.76,0.559l0.453,0.125l1.067-0.159l0.382,0.159l0.185,0.253l0.141,0.716l0.171,0.279
		l0.178,0.053l0.419-0.08l0.187,0.027l0.842,0.291l2.536,0.388l2.86,0.985l0.608-0.046l0.018,0.135l0.013,0.293l0.093,0.284
		l0.277,0.13l0.358-0.132l0.52-0.578l0.416-0.133l0.447,0.075l0.796,0.31l0.458,0.019l0.649-0.301l0.595-0.57l0.988-1.353
		l0.551-0.424l1.769-0.554l0.698-0.068l4.598,0.845l0.31,0.173l0.152,0.426l0.19,0.977l0.838,1.795l0.171,1.024l-0.978,0.7
		l-0.162,0.555l-0.094,0.555l-0.154,0.248l-0.849,0.019l-0.337,0.125l-0.246,0.298l-0.186,1.398l0.484,1.162l0.654,1.042
		l0.572,1.626l2.921,3.698l0.368,0.89l0.133,1.285l-0.077,0.646l-0.171,0.459l-0.175,0.301l-0.073,0.18l0.121,0.6l0.314-0.048
		l0.411-0.265l0.435-0.069l0.41,0.354l0.29,0.421l0.405,0.239l0.744-0.211v-0.402l-0.396-0.583l0.284-0.804l0.642-0.711l0.663-0.309
		l5.047,0.265l4.528,1.739l6.559,0.402l1.639,0.498l0.943,0.088l1.394-0.767l0.935,0.215l1.648,0.736h2.616l0.67,0.278l1.156,0.765
		l1.926,0.452l3.584,2.186l0.972-0.889l6.134-1.457l1.788-0.856l1.05-0.928l0.872-0.239l0.34-0.282l0.919-1.438l2.542-1.85
		l4.766-1.085l4.764-1.085l1.76-0.906l0.738-0.662l0.635-0.88l-2.72,1.719l-3.159,0.453l-3.168-0.432l-2.739-0.937h-0.785
		l-0.67-0.057l-0.879-0.285l-0.763-0.461l-0.324-0.568l-0.122-0.355l-0.542-0.369l-0.125-0.504l0.047-0.643l0.118-0.425l1.96-3.62
		l1.533-5.21l0.573-0.684l1.913-1.546l0.418-0.007l0.386-0.383l5-2.319l0.389-0.552l4.791-2.882l1.324-0.406l1.505-1.036
		l2.991-1.102l3.296,0.043l15.76-5.109l0.931-0.748l0.929-0.322l1.523-1.699l4.988-4.033l2.022-2.511L371,88.144l0.333-0.51
		l0.854-3.161l1.309-1.772l1.315-0.183l3.788,1.862l0.374-0.029l0.324-0.326v-0.409l-0.405,0.027l-0.256-0.095l-0.199-0.255
		l-0.212-0.455h0.785v-0.443l-0.742-0.015l-0.772-0.256l-0.592-0.475l-0.249-0.673l-0.368-0.767l-1.639-0.802l-0.368-0.492
		l0.063-1.924l0.321-2.343l0.785-1.597l0.878,0.181l0.589,0.12V72.98l-2.113-1.674v-0.408l0.701-2.032l0.028-2.826l0.194-2.455
		l1.19-0.904l-1.035-1.599l-0.208-0.839l-0.166-2.833l-0.399-2.58l-0.019-1.249l0.19-1.075l0.806-2.392l0.436-0.889l0.212-1.153
		l-0.243-1.388l-0.617-2.234l-0.09-0.844l-0.01-0.308l0.929-0.743l0.33-0.141l0.798-0.074l0.728-0.274l0.645-0.667l1.106-1.549
		l1.178-1.113l7.333-3.213l0.685,0.141l1.309-0.772l6.146-0.78l6.564-2.158l0.405-0.221l0.321-0.052l2.296,0.278l3.125-0.82
		l1.554-0.729l0.567-0.404L411.806,30z M391.195,514.69h0.107l0.38-0.082l0.13-0.055l-0.423-0.741l-0.388-0.872l-0.396-0.556
		l-0.435,0.203l-0.419,0.932l0.071,0.653l0.503,0.389L391.195,514.69z M677.27,503.979l0.978,1.421h-0.199l-0.003,0.053
		L677.27,503.979z M643.17,526.738l0.318-0.587l-0.318-0.301l-0.511-0.168l-0.274-0.2l0.162-0.486l0.399-0.107l1.009,0.05
		l0.287-0.152l0.29-0.228l0.365-0.204l1.542-0.299l0.52-0.231l0.396-0.299l0.221-0.109l0.168,0.044l0.097-0.052l0.037-0.415
		l-0.564-0.442l-0.075-0.086l-1.426-0.708l-0.094-0.198l-0.103-0.341l-0.171-0.203l-0.539,0.472l-0.221-0.021l-0.15-0.223
		l-0.059-0.371l0.187-0.19l1.15-0.691l-0.841-0.7l-0.813,0.068l-1.511,0.632l0.287-0.386l-0.234-0.441l-0.146-0.565l-0.022-0.586
		l0.115-0.498l0.334,0.262l0.371-0.006l0.349-0.215l0.256-0.365l0.473,0.278l0.143-0.223l0.044-0.436l0.144-0.357l0.184-0.239
		l0.074-0.23l0.178-0.173l1.234-0.192l0.33-0.341l0.081-0.513l-0.01-0.629l0.42-0.651l0.169-0.418l-0.181-0.19l-0.473-0.051
		l-0.1-0.152l0.087-0.224l0.312-1.316l0.495-0.589l0.657-0.309l0.726-0.192l-0.221-0.489l0.212-1.137l-0.274-0.505v-0.387
		l0.299,0.158l0.106,0.007l0.044,0.097l0.1,0.448l0.632-0.355l0.408,0.184l0.343,0.366l0.445,0.192l0.601-0.205l0.455-0.508
		l0.33-0.694l0.206-0.753l-0.284-0.355l1.439-0.085l2.43-1.27l4.28-0.919l1.212-0.627l0.115-1.011l2.072-2.308l0.411-0.318
		l0.903-0.157l0.91-0.009l0.414,0.123l0.346-0.029l1.982,0.564l0.804,0.45l0.261,0.263l0.237,0.348l0.203,0.419l0.353,1.011h0.262
		l1.368-2.359l0.561-1.514l-0.365-1.139l0.306-1l-0.212-0.913l-0.523-0.851l-0.617-0.8l1.047-1.456l-0.006-0.453l-0.249-0.497
		l-0.006-0.442l0.156-0.511l0.256-0.357l0.891-0.953l-0.131-0.257l-0.041-0.156l0.047-0.217l0.125-0.442l-0.392-0.424l-0.25-0.83
		l-0.062-0.92l0.187-0.684l0.626-0.409l1.579-0.006l0.691-0.301l0.505,0.716l0.343,0.301l0.747,0.415v0.39l-0.324,0.422
		l-0.066,0.562l0.187,0.6l0.433,0.526l-0.175,0.98l0.723,4.759l-0.063,1.571l-1.24,4.871l0.041,0.634l-0.078,0.735l0.037,1.508
		l-0.05,0.134l-0.115,0.129l-0.103,0.173l-0.019,0.243l0.094,0.14l0.177,0.112l0.178,0.06l0.075,0.008l0.103,0.467l0.094,0.292
		l-0.01,0.273l-0.187,0.424l0.308,0.25l0.131,0.347l0.103,0.402l0.237,0.419l0.305,0.245l1.035,0.465l-0.106-0.753l-0.169-0.344
		l-0.579-1.352l1.109,1.646l0.365,0.905l0.159,0.996l-0.084,3.015l0.128,1.56l0.48,1.096l-0.23,0.677l-0.172,0.72l-0.103,0.812
		l-0.019,0.974l0.181,1.064l0.707,2.015l0.159,1.019l-0.28,6.433l0.28,1.219l-0.103,0.428l-0.075,0.899l-0.084,0.403l-0.274,0.466
		l-1.035,0.974l-0.411,0.665l-0.589,1.26l-2.626,3.824l-0.579,0.582l-0.212,0.478l-0.012,1.828l-0.327,3.571l0.333,3.505
		l-0.053,3.759l-0.115,0.254l-0.287,0.125l-0.38,0.326l-0.343,0.45l-0.199,0.496h0.523l-0.106,0.912l-0.187,0.577l-0.361,0.263
		l-0.399-0.04l-0.305,0.025l-0.119,0.29l0.175,0.773l-0.514-0.25l-0.576-0.138l-0.554-0.035l-0.442,0.073l0.068,0.45l-0.365,0.511
		l-0.224,0.475l0.52,0.346l1.258-0.529l0.767-0.129l0.349,0.464l-0.137,0.727l-0.365,0.61l-0.551,0.418l-0.673,0.15l-0.361,0.25
		l-0.286,0.531l-0.389,0.493l-0.664,0.125l0.156,0.362l0.044,0.356l-0.044,0.349l-0.156,0.362l0.442,0.177l0.113,0.397l-0.169,0.449
		l-0.386,0.343l0.237,0.379l-0.598,0.262l-1.041,0.694l-0.663,0.091v0.376l0.358,0.297l0.125,0.395l-0.128,0.393l-0.355,0.312v0.318
		l0.433-0.187l0.611-0.578l0.473-0.282l-0.144,0.76l-0.299,0.868l-0.33,0.764l-0.268,0.43L667.706,570l-0.492-0.164l-0.947-0.87
		l-0.604-0.264l-1.19-0.185l-0.988-0.436l0.415-1.315l0.187-0.168l0.352-0.106l-0.62-0.555l-0.928-0.393l-0.549-0.445l0.508-0.728
		v-0.318l-0.446,0.147l-1.128,0.898l-0.259-0.349l0.085-0.11l0.046-0.037l0.047-0.063l0.081-0.169l-0.408,0.119l-0.153,0.088
		l-0.221,0.172l-0.262-0.379l-0.402-0.353l-0.972-0.308l-0.941-0.144l-0.585,0.138l-0.417-0.293l-0.308-0.343l-0.377-0.289
		l-0.891-0.197l-0.096-0.187l-0.075-0.231l-0.209-0.206l-0.361-0.1h-0.306l-0.302-0.04l-0.337-0.241l0.523-0.35v-0.317l-0.486-0.175
		l-0.278-0.176l-0.362,0.04l-0.536-0.14l-0.486-0.225l-0.209-0.212l0.178-0.989l-0.121-0.346l-0.58-0.22l0.281-0.669l0.253-1.048
		l0.374-0.713l0.66,0.329l2.05-0.944l0.327-0.311l0.177-0.705l0.43-0.36l0.523-0.303l0.461-0.555l-0.9-0.041l-2.402-0.691
		l-0.922-0.019l-0.9-0.167l-0.486-0.505l0.336-1.031l-0.95-0.008l-1.57,0.614l-0.9,0.065l0.097-0.186l0.187-0.484l-0.545,0.038
		l-0.411-0.119l-0.383-0.175l-0.492-0.123l0.501-0.255l1.075-0.171l0.492-0.276l0.321-0.435l0.172-0.532l-0.069-0.477l-0.424-0.276
		v-0.382l0.872-0.004l0.779-0.267l1.249-0.75l-0.187-0.489l-0.296-0.332l-0.38-0.192l-0.442-0.071l1.259-0.414l0.308-0.284
		l-0.093-0.113l-0.134-0.343l-0.156-0.293l-0.141,0.046l0.458-0.728l0.065-0.009l0.11-0.259l0.336-0.432l0.078-0.329l-0.09-0.027
		l-0.434-0.324l-0.221-0.467l-0.175-0.306l-0.243-0.182l-0.408-0.1l-0.767,0.076l-1.305,0.722l-0.826,0.257l-1.573,0.1l-0.679,0.163
		l-0.598,0.404l-0.268-0.668l0.436-0.861l-0.162-0.699l-1.078-1.282l1.885-0.189l0.747-0.312l0.527-0.907l-0.486-0.337l0.324-0.598
		l0.757-0.573l0.831-0.251l0.2-0.145l1.025-0.549l0.206-0.01l0.059-0.642l-0.224-0.352l-0.598-0.447l-0.66-1.465l-0.268-0.456
		l-0.399-0.094l-1.068,0.294l-0.221-0.2l-0.284-0.655l-0.694-0.416l-0.875-0.189l-0.782,0.013l0.184-0.485l0.103-0.189l-0.287-0.252
		l-0.312-0.143l-0.346-0.04l-0.365,0.05l0.386-0.082l0.315-0.164l0.607-0.428v-0.385h-1.072v-0.351l0.455-0.185l0.159-0.498
		l-0.152-0.511L643.17,526.738z M268.592,327.6l-0.19,0.489l0.399,0.385l1.102,0.665l0.285,0.497l0.062,0.45l-0.31,2.331
		l-0.397,1.445l-0.561,0.874l-0.676-0.309l-0.548-1.912l-0.315-0.725l-0.419-0.774l-2.245-2.548l-0.81-0.58l-0.825-0.994
		l-0.635-1.06l0.17-0.493l0.086-0.572l-0.431-1.279l-0.843-1.912l1.189,0.162l1.301,0.684l1.195,0.97l0.902,1.025l0.433,0.222
		l0.483-0.169l0.52-0.06l0.536,0.556l0.156,0.687l-0.063,0.623l0.028,0.536l0.424,0.41V327.6z M266.219,315.892l-0.187-0.216
		l-0.168-0.067l-1.738-0.326l-3.704-2.412l-2.146,0.414l-0.587-0.239l-1.553-1.783l-0.421-0.313v-0.344l2.209-0.561l0.69,0.148
		l0.282,0.219l0.186,0.298l0.017,0.329l-0.246,0.324l-0.913-0.392l-0.393-0.02l0.666,1.169l1.01-0.027l1.1-0.493l0.931-0.237v0.379
		h-0.545v0.412l0.635,0.309l3.854,0.626l0.894,0.581l0.727,0.855l0.444,1.026l-0.355,0.032l-0.285,0.089L266.219,315.892z
		 M225.801,283.926l1.494,0.638l0.708,0.552l0.411,0.718l-0.858-0.345l-3.064-0.039l-0.441-1.024l0.298-0.502l0.702-0.121
		L225.801,283.926z M231.05,269.716l0.394,0.459l1.304,0.692l0.418,0.417l0.184,0.787l0.09,1.136l-0.187,0.746l-0.632-0.372
		l-0.559-1.27l-0.808-1.273l-0.972-0.673l-1.037,0.536l-0.608-0.87l-0.593-2.151l-0.649-0.845l2.184-0.121l0.695,0.121l0.781,0.496
		l0.1,0.637l-0.149,0.745L231.05,269.716z M196.042,250.234l0.458,0.234l1.147-0.055l0.38,0.435l-0.16,1.055l-1.019,0.301
		l-2.989-0.28l-1.982-0.598l-0.669-0.478l0.127-0.889l-0.296-0.931l-0.414-0.901l-0.226-0.817l0.323-0.317l0.154-0.359l0.254-0.007
		l0.34,0.326l0.483,0.115l1.723,0.907l0.953,0.754l0.107,0.156L196.042,250.234z M121.945,184.712l0.081,0.135l0.073,0.155
		l0.127,0.106l0.243-0.035v0.43l-1.966,1.035l-0.672,0.148v-0.394l0.129-0.021l0.27,0.043l0.125-0.021l-0.226-0.568l-0.369-0.117
		l-0.972,0.292v-0.394l1.57-0.903l0.872-0.247L121.945,184.712z M553.95,484.403l0.262-0.17l0.349,0.437l0.046,0.768l-0.841,0.381
		l-0.527,0.26l-0.536,0.17l-0.473-0.16l-0.916-0.496l-0.056-0.283l0.399-0.204l1.066,0.051l0.33-0.19l0.131-0.162l0.124-0.038
		l0.106,0.026l0.473-0.032L553.95,484.403z"/>
  </g>
</svg>
