<?xml version="1.0" encoding="utf-8"?>
<!-- Generator: Adobe Illustrator 23.0.1, SVG Export Plug-In . SVG Version: 6.00 Build 0)  -->
<svg version="1.1"
  xmlns="http://www.w3.org/2000/svg"
  xmlns:xlink="http://www.w3.org/1999/xlink" x="0px" y="0px" viewBox="0 0 800 600" style="enable-background:new 0 0 800 600;" xml:space="preserve">
  <g id="Iran">
    <path fill="#ebebea" class="st0" d="M126.831,35.275l0.082,0.118l0.441,0.257l0.12,0.07l0.66,0.128l0.711,0.021l-0.092,0.182l-0.121,0.118
		l0.65,0.465l0.37,0.864l0.924,3.843l0.379,0.805l0.645,0.572l-0.257,0.485l0.115,0.285l0.786,0.571l0.161,0.033l0.334-0.01
		l0.241,0.066l0.11,0.157l0.067,0.181l0.108,0.14l1.112,0.763l0.169,0.204l0.102,0.285l0.252,0.414l0.311,0.377l0.285,0.161
		l0.249,0.383l0.565,1.266l0.186,0.417l0.263,0.383l0.214,0.43l0.322,1.983l0.199,0.603l0.808-0.251l3.212,1.065l0.08-0.074
		l0.214-0.147l0.28-0.11l0.29,0.034l0.086,0.25l-0.08,0.374l-0.006,0.34l0.303,0.147l0.43,0.086l0.411,0.259l0.175,0.426
		l-0.266,0.586l0.205,0.403l0.268,0.202l0.287,0.169l0.29,0.31l0.128,0.314l0.242,0.854l0.156,0.335l0.292,0.216l0.736,0.333
		l0.148,0.266l-0.068,0.409l-0.126,0.332l-0.091,0.336l0.056,0.427l0.355,0.422l0.655,0.441l0.701,0.346l0.368,0.098l0.485,0.129
		l0.634,0.372l0.146,0.033l0.234,0.052l0.854,0.03l1.756,0.431l2.747,0.029l1.578,0.62l0.71,0.279l6.497,1.372l2.039,0.925
		l1.791,0.453l0.303-0.041l2.054-0.271l0.538-0.262l1.603-1.165l0.597-0.292l0.408-0.092l1.197-0.048l0.747-0.244l0.328-0.043
		l0.421,0.093l3.212,1.437l0.554,0.155l0.556-0.033l0.668-0.27l0.497-0.313l0.478-0.395l0.427-0.475l0.354-0.567l0.868-1.803
		l0.411-0.534l0.562-0.475l1.788-0.915l0.507-0.488l0.518-1.204l0.374-0.587l0.239-0.199l0.51-0.278l0.245-0.199l0.175-0.243
		l0.792-1.38l0.419-0.487l0.468-0.393l0.007-0.003l0.512-0.237l0.484-0.013l0.86,0.385l0.462,0.125l0.374-0.07l1.846-1.046
		l0.211-0.119l0.322-0.383l0.159-0.295l0.519-1.51l1.115-1.788l0.105-0.397l0.3-0.342l1.475-0.906l3.072-1.201l0.358-0.204
		l0.926-0.528l1.019-1.048l0.004-0.004l1.533-1.98l1.007-0.848l1.29-0.714l2.157-0.739l0.691-0.078l0.398-0.273l1.632-1.663
		l0.555-0.313l3.709-2.095l1.324-1.356l0.48-0.492l0.596-0.416l0.733-0.199l2.345,0.045l0.379-0.095l0.322-0.298l0.357-0.536
		l0.014,0.004l0.423,0.108l0.596,0.412l1.89,1.77l5.181,6.242l2.113,1.957l0.867,1.192l0.685,1.445l-0.325,0.104l-0.8,0.257
		l-1.622,1.098l-1.931,0.389l-1.039,0.54l-0.892,0.855l-0.567,1.132l-0.057,1.367l0.414,1.066l0.752,1.068l1.756,1.709l1.762,0.733
		l0.464,0.456l0.93,1.997l0.164,0.502l-0.016,0.553l-0.145,0.537l-0.005,0.019l-0.239,0.511l-0.279,0.42h-0.005l-0.003,0.009
		l-1.27,0.789l-5.693,1.011l-0.105,0.256l0.006,0.299l-0.089,0.256l-1.616,1.003l-0.287,0.45l0.073,1.629l0.612,1.129l2.004,1.607
		l4.082,2.024l0.389,0.328l0.082,0.327l0.144,0.576l-0.127,0.772l0.057,0.667l1.495,1.201l0.484,0.719l0.558,0.529l0.948,0.022
		l1.563-0.731h0.725l0.354,0.854l0.215,1.045l0.398,0.535l0.494,0.452l0.507,0.795l0.519,0.569l0.459,0.651l0.765,0.97l0.401,0.508
		l0.841,1.413l0.985,0.96l0.157,0.013l1.423,0.118l0.742-0.211l0.835-0.358l0.781-0.49l0.609-0.616l0.69-0.377l0.986,0.007
		l1.991,0.416l0.09,3.457l-0.349,1.151l0.216,0.838l0.06,2.074l0.582,1.45l0.432,4.795l1.275,4.564l-0.243,0.748l-0.03,0.889
		l0.133,0.844l0.236,0.601l1.089,1.778l0.01,0.405l-0.095,0.348l-0.048,0.281l0.324,1.53l0.642,1.466l1.563,2.35l2.075,2.161
		l2.253,1.621l4.973,2.595l2.308,0.781l11.853,1.604l1.272-0.194l1.051-0.433l0.993-0.183l1.102,0.572l-0.294,0.047l-0.341-0.095
		l-0.178-0.027l-0.241,0.313l2.572,1.003l4.01,0.926l1.445,0.564l0.976,0.928l-0.123,1.4l0.271,0.54l0.401,1.4l0.281,0.56
		l0.447,0.695l0.725,2.094l0.926,1.53l1.076,1.034l2.228,1.685l1.523,1.853l0.467,0.28l0.6,0.173l3.41,2.315l0.64,0.149l0.429,0.196
		l0.911,0.989l0.459,0.395l4.862,2.655l4.436,3.154l2.587,1.179l8.608,1.709l5.495,1.6l5.701,1.026l5.49,1.596l5.706-0.761
		l5.071-1.86l5.302-1.314l5.492-1.048l5.261-1.077l5.279-1.575l5.093-1.576l10.232-2.298l1.38-0.231l12.134-0.692l2.215-0.532
		l1.503-1.273l-0.07,1.466l-1.746,0.612l-2.193,0.273l-1.41,0.439l-0.386,0.195l-0.442-0.069l-0.826-0.259l-0.464,0.074
		l-0.853,0.331l-0.474,0.099l-1.806-0.24h-1.581l0.241,0.433l0.434,0.143l1.011-0.049l-0.615,0.208l-0.243,0.031l0.745,0.994
		l1.259,0.563l4.792,0.428l0.482,0.273l0.527,0.185l3.859-1.059l0.366-0.307l0.211-0.643l0.015-3.985l-0.168-0.659l-0.454-0.265
		l-0.585-0.234l0.088-0.562l0.702-1.313l-0.733-1.143l-0.492-1.42l-0.687-3.267l-0.933-2.527l-0.141-0.55l-0.291-3.285l8.412,0.737
		l0.612-0.033l0.558-0.238l0.57-0.551l0.57-0.383l0.672-0.032l0.71,0.094l0.682-0.002l1.099-0.365l5.216-3.033l0.698-0.108
		l1.877,0.411l0.682-0.01l0.462-0.219l0.758-0.819l0.609-0.245l0.386-0.365l1.466-0.966l0.781-0.657l0.143-0.279l0.096-0.595
		l0.421-0.977l0.096-0.554l0.038-0.936l-0.038-0.273l-0.14-0.256l-0.363-0.328l-0.108-0.212l-0.032-0.82l0.507-1.21l0.137-0.775
		l0.169-0.616l0.401-0.649l0.924-1.008l4.63-3.198l1.44-1.614l0.242-0.408l0.163-0.531l0.373-0.206l0.433-0.072l0.331-0.127
		l0.223-0.3l0.338-0.713l0.265-0.297l0.596-0.202l1.781-0.34l0.379-0.15l0.28-0.618l0.669-0.376l1.405-0.475l0.35-0.049l0.637-0.522
		l0.637-0.328l2.291-1.777l0.749-0.305l1.96-0.085l6.096-1.286l0.918,0.002l1.909,0.423l1.204,0.701l0.453,0.154l1.571,0.016
		l0.519,0.162l0.838,0.445l0.43,0.14l0.475,0.024l4.41-0.806l1.246,0.16l0.15,0.062l0.959,0.397l0.5,0.071l2.642-0.446l0.484-0.361
		l0.309-0.618l0.108-0.727l-0.147-0.681l-0.838-0.966l0.194-0.535l1.944-1.809l1.039-0.73l1.122-0.43l2.826-0.091l0.526,0.13
		l0.43,0.264l0.389,0.309l0.414,0.194l0.497-0.09l2.473-1.09l1.475-0.253l0.296,0.057l1.208,0.986l1.055,0.609l0.478,0.157
		l4.639,0.872l1.224,0.507l0.628,0.099l0.558-0.312l0.43-0.385l0.997-0.665l0.366-0.396l0.621-1.084l0.095-0.103l0.268-0.292
		l0.535-0.262l0.338-0.043l0.338,0.043l0.66,0.225l0.341,0.222l0.086,0.255l0.013,0.292l0.131,0.345l0.711,1.211l0.558,1.358
		l0.36,0.547l1.01,1.095l0.357,1.172l0.66,0.942l0.153,0.685l-0.076,0.652l-0.609,2.067l0.781,1.04l4.436,1.768l0.487-0.069
		l0.481-0.147l0.523-0.084l0.516,0.069l1.571,0.454l1.504-0.032l0.462-0.119l0.465,0.008l0.414,0.257l0.386,0.337l0.395,0.251
		l0.151,0.014l0.111,0.011l0.503-0.118l0.255,0.064l0.217,0.215l0.28,0.59l0.182,0.242l0.462,0.193l0.507-0.039l0.519-0.121
		l0.5-0.038l1.068,0.289l4.834,2.328l2.033,0.479l1.039,0.09l0.497,0.115l0.519,0.256l0.236,0.264l0.003,0.27l-0.067,0.279
		l0.026,0.301l0.487,0.913l0.108,0.29l0.08,0.711l0.003,0.54l0.15,0.443l0.526,0.439l0.526,0.2l2.403,0.361l0.389,0.185l0.813,0.584
		l0.43,0.115l2.791-0.278l0.535-0.257l0.414-0.645l0.284-0.651l0.37-0.549l0.478-0.347l0.602-0.046l0.503,0.262l1.549,1.377
		l1.332,0.549l0.698,0.105l0.695-0.074l0.268-0.163l0.194-0.232l0.22-0.179l0.351-0.001l0.656,0.127l0.315-0.025l0.325-0.111
		l0.411-0.514l0.076-0.58l0.169-0.27l1.848,1.035l2.393,0.551l1.217,0.561l0.433,0.314l0.411,0.134l0.895,0.136l0.341,0.191
		l1.007,1.046l4.114,2.972l0.66,0.062l1.73-0.796l0.711,0.188l0.618,0.592l0.596,0.827l0.143,0.513l-0.096,0.862l0.185,0.424
		l0.086,0.322l-0.128,0.347l-0.191,0.382l-0.102,0.432l0.073,0.812l0.605,2.674l0.36,0.533l1.931,1.608l0.58,0.649l0.182,0.261
		l-0.038,0.188l-0.112,0.131l-0.045,0.106l-0.038,0.26l-0.092,0.319l0.089,0.277l0.507,0.134l0.201,0.208l0.249,0.2l0.261,0.131
		l0.255,0.015l0.978-0.388l0.456,0.08l0.516,0.557l0.22,0.603l0.147,0.732l0.214,0.64l0.414,0.327l0.293-0.062l0.217-0.233
		l0.36-0.571l0.29-0.154l0.328,0.022l4.439,1.449l2.023,1.716l1.131,0.667l2.53,0.453l1.16,0.503l0.914,1.227l1.157,2.469
		l1.424,2.183l3.266,3.992l0.65,1.052l0.895,2.359l0.634,1.118l1.02,0.57l4.901-0.089l4.311-0.077l6.577-0.121l3.655-0.066
		l3.161-0.056l1.533,0.27l1.252,0.171l0.252,1.306l0.255,0.591l0.115,0.355l0.051,0.482l-0.045,0.472l-0.121,0.428l-0.166,0.369
		l-0.191,0.292l-0.134,0.406l0.051,0.462l0.185,0.575l-0.663,3.086l-0.178,1.878l0.44,1.096l-0.099,0.152l-0.048,0.107l-0.083,0.265
		l0.296,0.128l0.245,0.198l0.191,0.231l0.128,0.225l0.124,0.401l0.054,0.399l0.013,0.887l0.102,0.371l0.449,0.747l0.462,2.375
		l0.08,1.15l0.051,0.195l-0.061,0.235l-0.325,0.426l-0.153,0.262l-0.096,0.341l-0.054,0.375l-0.013,0.349l-0.118,0.412l-0.261,0.191
		l-0.29,0.114l-0.194,0.181l-0.089,0.461l0.108,0.766l-0.019,0.356l-0.376,0.402l-0.628,0.518l-0.357,0.451l0.424,0.191l0.755,0.12
		l0.624,0.335l0.539,0.498l0.494,0.608l0.319,0.527l0.274,0.639l0.194,0.673l0.14,1.362l0.112,0.572l0.019,0.617l-0.198,0.853
		l0.198,0.279l0.006,0.375l-0.204,0.901l-0.022,0.212l0.022,0.673l-0.092,0.265l-0.421,0.414l-0.121,0.228l0.08,1.014l0.421,0.857
		l0.749,1.168l0.226,0.353l0.325,1.552l0.077,0.766l-0.191,0.787l-0.411,0.714l-0.723,0.885l-0.341,0.728l-0.268,1.187l-0.169,0.387
		l-0.647,0.874l-0.178,0.418l-0.143,0.776l0.143,1.945l-0.245,0.67l-0.593,0.34l-0.736,0.125l-0.656,0.016l-0.443,0.367
		l-0.182,0.804l-0.025,0.806l0.022,0.367l0.172,0.164l0.15,0.363l-0.013,0.363l-0.309,0.164l-0.185,0.17l0.159,0.376l1.096,1.483
		l0.086,0.16l-0.06,0.429l-0.083,0.335l0.048,0.31l0.325,0.343l-0.746,1.051l-0.223,0.539l-0.185,1.557l-0.449,1.412l-0.102,0.735
		l-0.096,0.36l-0.437,0.707l-0.099,0.472l0.032,0.385l0.137,0.699l0.022,0.326l-0.134,1.328l-0.245,1.238l-0.946,0.318l-0.175,0.621
		l-0.599,1.078l-0.975,0.764l-0.558,0.653l-0.038,0.886l0.102,0.969l-0.124,0.912l-0.322,0.428l-0.36,0.087l-0.401-0.033l-0.43,0.07
		l-0.414,0.238l-0.201,0.25l-0.156,0.298l-1.399,1.603l-0.602,0.412l-0.768,0.217l-1.689,0.228l-0.768,0.396l-0.453,0.787
		l0.328,0.047l0.264,0.149l0.198,0.257l0.265,0.892l0.274,0.261l0.755,0.348l0.373,0.339l0.3,0.434l0.487,0.972l2.288,2.982
		l0.35,0.699l-2.297,0.136l-3.132,0.192l-2.18,0.13l0.214,0.795l-0.481,0.527l-1.466,0.782l-1.08,1.126l-0.972,1.265l-0.867,1.755
		l-0.185,1.666l0.052,0.497l0.337,3.225l0.883,5.677l-0.067,1.458l-0.953,2.152l-0.248,1.214l0.768,2.704l1.944,1.873l2.489,1.033
		l2.415,0.186l2.266-0.122l1.192,0.088l1.036,0.262l0.478,0.28l0.519,0.469l0.274,0.53l-0.033,0.057l-0.238,0.408l-0.456,0.166
		l-1.463,0.098l-0.545,0.365l-0.089,0.531l0.108,0.616l0.057,0.636l-0.172,0.738l-0.322,0.421l-1.01,0.632l-0.889,0.792
		l-1.173,1.598l-1.501,2.04l-1.676,2.268l-1.491,2.022l-0.188,0.515l0.045,2.909l0.449,2.351l0.883,3.012l1.045,3.555l1.074,3.663
		l1.134,3.856l1.252,4.233l1.357,5.065l1.048,3.904l-0.064,2.968l-0.414,2.897l-0.185,0.607l-0.806,1.042l-0.239,0.558l0.105,0.224
		l0.258,0.15l0.182,0.205l-0.265,0.8l0.064,0.374l0.153,0.357l0.121,0.389l0.054,0.789l-0.229,2.245l0.067,1.757l0.427,3.357
		l-0.392,2.678l0.073,0.848l0.462,1.749l0.363,3.389l1.026,0.432l3.113,0.458l5.165,0.758l0.05,0.007l5.23,0.768l6.045,0.887
		l3.558,0.518l1.693,0.247l0.793,0.315l0.605,0.481l1.102,1.407l0.214,0.668l-0.214,1.549l0.013,0.718l0.299,0.736l0.825,1.371
		l0.261,0.81l0.051,1.055l0.076,0.374l0.539,1.144l0.376,1.176l0.15,0.716l0.003,0.706l-0.22,0.757l-0.589,1.169l0.134,0.42
		l0.118,2.455l-0.185,0.104l-0.077,0.252l-0.045,0.648l0.041,0.039l0.076,0.191l-0.526,0.562l-2.546,3.082l-3.897,4.718
		l-3.531,4.274l-2.508,3.012l-3.336,4.001l-1.743,2.092l-2.546,3.047l-4.767,5.696l-0.01,0.009l-2.342,2.749l-1.781,2.088
		l2.489,2.956l1.631,1.931l2.014,2.42l2.323,2.782l2.412,2.895l2.536,3.033l0.602,0.495l0.65,0.257l0.542,0.389l0.284,0.896
		l-0.057,0.691l-0.367,1.239v0.692l0.293,0.721l0.981,1.084l0.395,0.608l0.096,0.396l0.083,0.881l0.159,0.402l0.328,0.371
		l0.28,0.102l0.284,0.036l0.335,0.177l0.315,0.502l0.162,0.601l0.236,0.512l0.529,0.226l0.299,0.241l0.089,0.305l-0.105,0.321
		l-0.284,0.303l-0.223,0.228l-0.086,0.216l0.07,0.206l0.239,0.185l0.398,0.182l0.344,0.274l0.271,0.364l1.303,3.004l0.179,0.684
		l0.073,0.591l0.159,0.527l0.889,0.996l0.883,1.937l0.895,1.102l3.18,2.896l1.281,1.665l1.957,1.819l0.975,1.129l0.57,0.311
		l1.845,0.518l1.471,0.852l0.934,0.294l2.049,0.174l0.985,0.214l2.565,1.151l4.072,0.826l0.856,0.448l0.358,0.421l0.264,0.47
		l0.316,0.426l0.5,0.284l0.513,0.167l0.322,0.206l0.214,0.355l0.201,0.609l0.449,0.757l1.947,2.114l0.623,0.395l5.046-1.026
		l0.685,0.416l0.15,1.223l-0.452,3.593l-0.494,3.974l0.57,2.414l0.805,3.352l0.188,2.072l0.256,2.814l0.155,1.748l0.296,3.208
		l0.166,1.811l-0.188,1.446l-1.62,3.655l0.605,0.735l0.153,0.377l-0.057,0.563l-0.143,0.497l-0.186,0.387l-0.304,0.231l-0.489,0.03
		l1.333,1.19l0.464,0.254l0.244-0.007l0.424-0.247l0.217-0.039l0.249,0.082l0.723,0.403l0.973,0.213l0.838-0.048l1.796-0.357
		l0.8-0.125l1.616-0.5l0.819-0.041l0.515,0.054l0.397-0.013l1.686-0.538l0.312,0.009l0.384,0.138l0.798,0.737l0.351,0.217
		l0.762,0.278l0.28,0.179l0.328,0.36l0.441,0.65l1.05,2.333l-0.531-0.209l-0.674,0.005l-0.605,0.263l-0.338,0.557l-0.115,0.349
		L695,500.785l-0.131,0.347l-0.045,0.408l0.156,3.907l0.277,0.647l0.385,0.563l0.258,0.557l-0.099,0.632l-0.462,0.421l-1.252,0.202
		l-0.508,0.266l-0.225,0.545l-0.245,5.014l-0.325,1.378l-0.691,0.679l-0.311-0.014l-0.241-0.125l-0.223-0.159l-0.266-0.123
		l-0.295-0.027l-0.899,0.201l-1.217-0.034l-1.201-0.185l-2.788-0.07l-2.415-0.059l-2.1-0.054l-0.335,0.098l-0.236,0.314l-0.319,0.59
		l-0.207,0.159l-0.229,0.125l-0.266,0.1l-0.953,0.217l-0.263-0.02l-0.344-0.169l-0.331-0.068l-0.264,0.164l-0.244,0.257
		l-0.257,0.201l-0.631,0.221l-5.159,0.549l-0.293,0.086l-0.242,0.189l-0.252,0.449l-0.178,0.164l-0.319,0.084l-0.65-0.03l-0.29,0.03
		l-0.255,0.114l-0.398,0.292l-0.252,0.144l-0.602,0.24l-0.268,0.169l-0.194,0.26l-0.057,0.303l0.092,0.226l0.118,0.194l0.029,0.214
		l-0.319,0.6l-0.969,0.954l-0.22,0.427l0.169,0.79l0.301,0.633l0.027,0.489l-0.669,0.356l-1.157-0.162l-1.37-0.487l-1.16-0.155
		l-0.523,0.836l-0.112,0.846l-0.28,0.354l-1.276,0.215l-0.633,0.195l-0.574,0.284l-1.107,0.737l-3.719,1.059l-0.746,0.584
		l-0.449,0.925l-0.261,1.065l-0.284,2.089l-0.245,1.847l-0.293,2.135l-0.389,2.853l-0.325,2.392l-0.172,0.604l-0.468,0.572
		l-0.535,0.124l-0.596-0.014l-0.653,0.157l-0.65,0.901l0.153,1.259l0.341,1.355l-0.089,1.181l-0.194,0.267l-0.453,0.451
		l-0.182,0.329l-0.105,0.491l-0.127,1.996l-0.185,2.925l-0.217,3.398l-0.185,2.875l-0.981,2.843l-0.196-0.498l-0.065-0.571
		l-0.537-0.387l-0.095-0.209l-0.148-0.107l-0.301,0.198l-0.088,0.194l-0.045,0.548l-0.095,0.209l0.171,0.161l0.306,0.36l0.173,0.155
		l-0.66-0.075l-0.499-0.202l-0.509-0.006l-0.667,0.516l0.728,0.233l0.301,0.169l0.253,0.297l-0.166,0.328l-0.482,0.622l-0.143,0.36
		v0.18l-0.035,0.134l-0.243,0.233l-0.444,0.237l-1.681,0.503l0.447,0.312l-0.72,0.964l-5.185-1.786l-1.802-0.387l0.012-0.557
		l-0.469-0.846l-4.306-1.545l-5.053-0.846l-4.285-1.015l-2.905-0.361l-0.509-0.28l0.474-0.44l-0.745-1.074l-0.098-0.459
		l-0.008-1.915l-0.098-0.3l-1.121-1.115l-0.479-0.283l-0.542-0.068l-0.552,0.054l-2.113,0.654l-0.529,0.292l-0.294,0.465
		l-0.482,0.585l-0.248,0.375l-0.008,0.224l0.095,0.217l0.12,0.693l0.151,0.093l0.211,0.022l0.341,0.168l0.266-0.004l0.13,0.088
		l0.123,0.216l0.325,0.348l-0.338-0.048l-0.005,0.075l0.893,0.461l-0.087,0.437l-0.358-0.086l-0.99-0.415l-1.255-0.522l-0.625-0.351
		l-1.336,0.024l-0.892-0.732l0.289-0.544l0.133-0.133l-0.449-0.206l-0.56-0.082l-1.117,0.054l-0.853,0.167l-0.181,0.067
		l-0.276,0.312v0.2l0.078,0.168l0.644,0.442l-0.209,0.634l-0.84-0.007l-0.62-0.412l-0.339-0.112l-1.054-0.156l-0.241-0.18
		l-0.339-0.444l-0.489-0.266l-1.132,0.071l-1.569,0.239l-1.653,0.066l-1.141,0.854l-1.298-0.45l-1.29-1.233l-1.387-0.364
		l-3.568,0.222l-1.392-0.014L581,558.4l-1.466-1.492l-1.127-0.619l-1.745,0.333l-3.643,0.585l-0.866,0.136l-1.719,0.267
		l-1.756,0.833l-0.652,0.147l-0.261-0.051l-0.228-0.224l-0.223-0.142l-0.266,0.061l-0.286,0.133l-0.286,0.075l-0.708-0.037
		l-0.61-0.124l-0.519-0.222l-0.401-0.337l-1.425-2.284l-0.758-0.917l-1.204-0.55l-1.074,0.024l-0.286-0.14l-0.191-0.324l-0.11-0.339
		l-0.166-0.275l-0.354-0.111h-2.642l-5.6-1.026l-1.919,0.307l-1.653-0.113l-0.577-0.275l0.221-0.547l-0.903,0.058l-0.989,0.196
		l-0.417,0.22l-0.71,0.593l-0.467,0.12l-0.213-0.086l-0.105-0.139l-0.151,0.005l-0.361,0.337l-0.246,0.178l-0.316,0.1l-0.271-0.038
		l-0.113-0.241l-0.181,0.083l-1.084,0.756l-1.137,0.178l-1.004-0.195l-0.976-0.312l-1.021-0.161l-0.828-0.387l-0.68-0.921
		l-0.921-1.959l-0.958-1.164l-1.169-0.279l-1.272,0.331l-1.25,0.643l-1.051,0.857l-0.677,0.422l-0.484-0.004l0.128-1.509l0.12-0.393
		l0.083-0.17l0.017-0.125l-0.048-0.267l-0.316-0.783l-0.482-0.42l-0.645-0.17l-0.77-0.028l-0.695,0.072l-1.706,0.393l-0.376-0.071
		l-0.642-0.322l-0.359-0.072l-0.354,0.035l-0.612,0.16l-0.316,0.036l-0.768-0.061l-2.103-0.662l0.231-0.21l-4.125-0.273
		l-0.452-0.244l-0.221-0.535l-0.176-1.677l-0.748-1.737l-0.384-1.388l-0.258-0.654l-0.306-0.276l-0.05-0.133l-0.688-0.828
		l-0.135-0.028l-0.391,0.067l-0.125-0.039l-0.055-0.142l-0.083-0.405l-0.419-1.231l-0.123-0.573l-0.301-0.668l-0.068-0.409
		l0.196-0.711l0.958-1.051l0.336-0.688l-0.421-1.097l-2.04-2.253l0.166-0.918l-0.228-0.213l-0.178-1.556l-0.218-0.773l-0.341-0.617
		l-0.592-0.576l-0.146-0.258l-0.088-0.305l-0.113-0.787l-0.01-0.318l0.527-4.298l-0.105-1.606l-2.007-8.015l-0.422-0.619
		l-1.046-0.914l-0.374-0.546l0.04-0.557l-0.948-0.633l-0.314-0.332l0.449,0.03l0.336-0.134l0.311-0.197l0.376-0.172l-0.261-0.236
		l-0.04-0.325l0.108-0.338l0.193-0.283l-0.948,0.411l-0.314,0.062l-0.286-0.072l-0.181-0.162l-0.128-0.163l-0.15-0.076l-0.158-0.118
		l-0.163-0.228l-0.213-0.139l-0.602,0.297l-0.181-0.118l-0.078-0.284l0.015-0.352l-0.396,0.09l-0.211-0.182l0.01-0.254l0.291-0.128
		l0.151-0.121l0.542-0.587l0.266-0.216v-0.258l-0.903-0.125l-0.738-0.5l-0.499-0.723l-0.196-0.781l-0.359,0.354l-0.394,0.139
		l-0.836,0.003l-0.462-0.151l-0.286-0.334l-0.231-0.333l-0.294-0.149l-3.199-0.038l-0.698-0.221l-0.211,0.259l-0.748-0.417
		l-0.926-0.192l-1.924-0.102l-0.913-0.181l-1.616-0.646l-0.958-0.142l-1.907,0.109l-0.974,0.251l-0.71,0.491l-0.66,0.319
		l-2.005,0.087l-0.815,0.164l-0.251,0.169l-0.514,0.51l-0.103,0.169l-0.063,0.367l-0.166,0.115l-0.238,0.051l-0.266,0.178
		l-0.532,0.451l-2.072,1.255l-0.745,0.634l-0.012,0.142l-0.161,0.11l-0.562,0.487l-0.336,0.113l-1.375,0.162l-1.275,0.311
		l-0.329,0.035l-1.031-0.035l-0.341,0.07l-0.457,0.327l-0.271,0.073h-1.152l-0.971-0.228l-0.309-0.008l-0.585,0.262l-1.034,0.966
		l-0.391,0.212l-0.341,0.266l-1.668,1.86l0.444-0.146l0.191-0.105l0.226-0.221l0.125,0.847l-0.186,1.035l-0.366,0.979l-0.434,0.7
		l-1.009,0.897l-1.162,0.589l-1.29,0.263l-1.385-0.077l-2.484-0.861l-1.415-0.188l-1.169,0.556l-0.366,0.658l-0.168,0.618
		l-0.299,0.452l-0.748,0.18l-0.602,0.07l-1.355,0.399l-0.459,0.216l-2.015,1.808l-0.341,0.216l-2.966,2.413l-3.35,1.96l-0.211,0.184
		l-0.193,0.227l-0.228,0.194l-0.324,0.083l-0.386-0.07l-0.522-0.308l-0.366-0.073l-2.647,0.238l-1.352-0.214l-0.527-0.784
		l-0.379-0.999l-0.903-0.851l-1.377-0.271l-2.805,0.109l-1.116-0.544l-0.555-0.887l-0.457-1.103l-0.582-1.056l-0.913-0.744
		l-0.655-0.126l-0.617,0.1l-0.595,0.17l-2.349,0.163l-0.647-0.072l-2.118-0.619l-0.532-0.084l-0.331-0.105l-0.592-0.472
		l-0.256-0.131l-0.321-0.013l-0.637,0.133l-2.027,0.952l-1.415,0.195l-1.255,0.354l-0.677,0.027l-1.378-0.447l-0.753-0.062
		l-0.723,0.391l-0.376-0.132l-1.611-1.399l-2.318-1.37l-2.993-2.265l-0.442-0.546l-0.178-0.675l-0.073-1.645l-0.246-0.688
		l-0.524-0.642l-0.986-0.62l-10.485-3.576l-0.675-0.059l-0.662-0.19l-0.411-0.459l-0.326-0.551l-0.386-0.475l-1.837-0.464
		l-0.286-0.343l-0.266-0.753l-0.63-0.385l-1.418-0.423l-2.484-2.235l-1.096-0.75l-1.646-0.73l-2.389-1.061l-0.635-0.671l-0.05-0.712
		l0.291-0.442l0.514-0.228l0.645-0.064l0.577,0.02l0.667-0.071l0.384-0.345l-0.273-0.811l-0.492-0.426l-1.252-0.479l-0.467-0.388
		l-0.243-0.414l-0.494-1.141l-0.211-0.352l-2.316-2.39l-1.014-0.807l-1.127-0.487l-5.495-1.21l-1.162-0.586l-3.638-3.385
		l-1.129-0.766l-1.275-0.535l-1.465-0.2l-2.14,0.264l-0.489-0.156l-0.58-0.367l-1.103,0.08l-1.189,0.284l-1.927,0.36l-1.213-0.191
		l-2.667-0.561l-0.364-0.092l-0.156-0.226l-0.038-0.332l-0.103-0.261l-0.161-0.169l-0.961-0.139l-1.317-0.398l-0.657-0.713
		l-0.71-1.188l-0.737-0.476l-0.239,0.975l-0.633,0.052l-0.604-2.084l-0.606-0.872l-0.474-1.267l-1.162-1.903l-0.529-0.503
		l-0.635-0.662l-0.152-0.703l0.68-1.88l-0.048-0.931l-0.632-1.034l-1.074-0.979l-0.381-0.456l-1.086-1.693l-1.016-1.078
		l-0.233-0.359l-1.884-4.669l-0.253-1.1l-0.03-4.476l-0.391-1.519l-0.693-1.288l-0.785-0.936l-0.994-0.616l-1.3-0.306l-1.25-0.07
		l-0.612-0.165l-0.261-0.375l-0.236-0.696l-1.45-1.84l-0.251-0.665l-0.186-0.971l0.115-0.87l0.637-0.382l0.602,0.211l0.607,0.512
		l0.507,0.639l0.301,0.585l0.326-0.284l-0.04-0.257l-0.141-0.293l0.045-0.391l0.221-0.255l0.622-0.558l0.208-0.369l0.105-0.769
		l-0.075-0.816l-0.301-0.508l-0.57,0.146l-0.258-1.023l-0.208-0.359l-0.376-0.324l-0.186,0.043l-0.284,0.149l-0.256,0.083
		l-0.113-0.158l-0.038-0.597l-0.06-0.294l-0.113-0.191l-0.738-0.126l-2.409,0.145l-0.557,0.102l-0.818,0.486l-0.858-0.105
		l-0.68-0.602l-0.273-0.984l-0.058-0.853l0.083-0.431l0.279-0.427l0.218-0.479l0.201-0.587l0.281-0.259l0.467,0.502l0.135-1.442
		l0.075-0.246l-0.296-0.099l-0.193-0.212l-0.374-0.678l0.221-0.868l-0.013-1.378l-0.158-1.404l-0.241-0.962l-0.406-0.732
		l-0.597-0.824l-0.472-0.228l-0.015,1.058l-0.181-0.391l-0.873-1.323l-1.626-1.345l-0.266-0.459l-0.211-0.609l-0.487-0.684
		l-1.009-1.019l-1.822-0.732l-0.281-0.368l-0.193-0.706l-0.449-0.677l-0.833-0.93l-0.823-1.196l-1.4-2.572l-0.743-1.083
		l-0.577-0.509l-1.272-0.781l-1.202-1.242l-0.108-0.161l-0.09-0.43l-0.028-0.652l-0.11-0.376l0.484-0.058l0.113-0.209l-0.181-0.256
		l-0.417-0.207l0.334-1.206l-0.707-2.018l0.181-0.931l-0.434-0.344l-0.484-0.648l-0.406-0.727l-0.166-0.583l-0.183-0.374
		l-0.449-0.315l-0.253-0.099l-0.818-0.318l-1.104-0.131l-1.149,0.174l-1.124,0.396l-9.675,6.196l-1.119,0.472l-0.994-0.217
		l-0.868-1.272l-0.075-0.578l-0.013-1.609l-0.241-0.619l-0.223-0.319l-0.078-0.193l-0.118-0.152l-0.331-0.2l-0.301-0.125
		l-0.291-0.071l-0.667-0.048l-0.326,0.038l-0.667,0.167l-0.371,0.039l-0.344-0.074l-0.444-0.335l-0.261-0.075l-0.637,0.107
		l-1.154,0.49l-0.635,0.131l-0.805-0.058l-0.291-0.308l0.043-1.472l-0.093-0.109l-0.427-0.303l-0.13-0.209l-0.015-0.193l0.015-0.536
		l0.048-0.27l0.128-0.229l-0.015-0.227l-0.371-0.247l-0.178,0.607l-0.324,0.597l-0.444,0.423l-0.527,0.076l-0.557-0.349
		l-0.263-0.456l-0.331-0.36l-0.534-0.049l-0.715-0.251l-2.04-1.194l-0.422-0.397l-0.203-1.151l-0.542-0.72l-0.808-0.42l-0.991-0.259
		l0.329-0.586l0.517-0.14l1.26,0.217l0.657-0.034l1.016-0.348l0.564-0.087l0.627,0.154l1.264,0.669l0.434,0.154l0.685,0.068
		l0.517,0.218l0.417,0.377l0.399,0.557l0.181-0.481l0.585-1.041l0.908-1.167l0.176-0.383l0.03-0.611l-0.637,0.13l-0.459-0.3
		l-0.286-0.55l-0.241-1.307l-0.364,0.169l-0.479,0.521l-0.482,0.36l0.045-0.456l0.045-0.121l0.12-0.156l-0.256-0.405l-0.263,0.064
		l-0.316,0.236l-0.429,0.105l-0.183-0.131l-0.344-0.492l-0.211-0.111l-0.196,0.041l-0.289,0.166l-0.156,0.038l-0.617-0.096
		l-0.557-0.163l-0.522-0.032l-0.524,0.291l-1.107-0.16l-0.878,0.552l-0.226,0.732l0.833,0.367l0.978,0.195l0.773,0.492l0.241,0.634
		l-0.615,0.629l-0.519-0.009l-1.666-0.228l-0.359,0.105l-1.686,1.575l-0.123,0.16l-0.271,0.429l-0.156,0.446l0.351,0.32
		l-0.125,0.256l-0.203,0.285l-0.105,0.189l0.228,0.767l0.539,0.549l0.625,0.477l0.504,0.556l0.258,0.635l0.201,0.804l0.173,1.605
		l-0.06,0.448l-0.273,0.732l-0.088,0.403l0.018,0.378l0.176,0.679l0.018,0.402l-0.193,0.703l-0.409,0.635l-0.557,0.453l-0.632,0.177
		l-2.093-0.248l-0.539,0.248l-0.597-0.281l-2.158,0.016l-1.31-0.723l-0.499-0.113l-0.083,0.617l0.15,0.426l0.414,0.671l0.083,0.491
		l-0.09,0.351l-0.226,0.307l-0.279,0.251l-0.263,0.175l-0.708,0.214l-2.263-0.214v-0.243l-0.166,0.216l-0.033,0.088l-0.217-0.099
		l-0.954-0.272l-0.459-0.28l-0.427-0.338l-0.201-0.204l-0.143-0.234l-0.274-0.694l-0.064-0.464l-0.562-1.771l-0.084-0.061
		l-0.175-0.366l-0.615-0.698l-0.386-0.827l-0.061-0.247l0.067-0.396l0.242-0.297l0.296-0.267l0.225-0.308l0.08-0.38l-0.059-0.385
		l-0.158-0.363l-0.202-0.302l-1.198-1.099l-0.991-1.131l-0.626-1.048l-0.288-0.247l-0.373-0.127l-0.389-0.018l-1.128,0.19
		l-0.373,0.015l-0.363-0.055l-0.342-0.153l-0.247-0.262l-0.135-0.341l-0.253-1.573l-0.277-0.78l-0.395-0.702l-0.516-0.558
		l-0.319-0.2l-0.344-0.118l-3.263-0.468l-0.048-1.098l0.105-17.277l-0.099-0.461l-0.33-0.201l-10.131-0.002l0.108-8.708l0.077-6.184
		l4.698-12.811l0.183-0.821l-0.086-0.771l-0.422-0.649l-1.216-0.917l-0.495-0.553l-0.11-0.274l-0.159-0.636l-0.172-0.328
		l-0.236-0.22l-0.558-0.366l-0.21-0.291l-1.103-1.983l-0.145-0.641v-0.006l-0.304-0.644l-1.077-0.528l-0.473-0.543l-0.703-1.585
		l-0.455-0.657l-0.067-0.097l-0.596-0.248l-0.465-0.058l-0.274-0.312l-0.249-0.372l-0.397-0.252l-0.483-0.139l-0.21-0.164
		l-0.029-0.288l0.064-0.508l0.121-0.395l0.183-0.32l0.164-0.354l0.048-0.508l-0.161-0.472l-0.601-0.46l-0.166-0.463l-0.3-0.148
		l-0.197-0.208l-0.545-0.758l-0.116-0.203l-0.145-0.201l-0.919-0.879l-0.142-0.209l-0.205-0.493l0.005-0.181l0.124-0.139
		l0.271-0.677l0.172-0.202l0.112-0.24l-0.048-0.422l-0.172-0.267l-0.824-0.631l-0.518-0.664l-0.346-0.564l-0.394-0.457l-0.66-0.348
		l-1.746-0.602l-0.433-0.028l-1.412,0.783l-0.545,0.207l-1.086,0.117l-0.972-0.214l-0.938-0.494l-0.985-0.725l-0.002-0.003h-0.006
		l-9.282-8.115l-1.278-1.459l-2.02-1.223l-1.416-1.149l-0.117-0.068l-2.876-1.669l-0.863-0.873l-3.073-1.468l-3.274-1.019
		l-3.634,0.409l-1.805-0.219l-0.656-1.471v-0.006l0.379-0.449l0.513-0.417l0.457-0.476l0.206-0.624l-0.177-0.504l-0.445-0.398
		l-0.58-0.247l-1.354-0.156l-0.43-0.37l0.03-0.448l0.62-0.347l0.679-0.061l0.516,0.04l0.5-0.1l0.65-0.493l0.832-0.828l0.424-0.519
		l0.22-0.473l-0.019-0.333l-0.357-0.227l-0.137-0.343l0.021-0.302l0.186-0.707l-0.006-0.379l-0.274-0.622l-0.43-0.438l-0.981-0.797
		l-1.227-1.74l-1.032-1l-0.159-0.538l-0.018-0.616l-0.094-0.75l-0.249-0.698l-0.35-0.638l-1.036-1.299l-0.094-0.073l-0.097-0.055
		l-0.115-0.065l-0.038-0.021l-0.158-0.03l-0.155,0.03l-0.153,0.086l-0.57,0.545l-0.934,0.118l-0.915-0.215l-0.529-0.453l0.481-0.636
		l1.463-0.896l0.379-0.557l-0.217-0.818l-0.653-0.45l-0.545-0.557l0.121-1.137l-0.666,0.167l-1.498,0.023l-0.562,0.24l-0.897,0.867
		l-0.507,0.339l-0.538,0.135l-0.21-0.258l0.008-1.316l-0.104-0.274l-0.108-0.286l-1.453-1.047l-0.468-0.469l-0.421-0.601
		l-0.309-0.602l-0.214-0.655l-0.132-0.75l-0.221-0.616l-0.405-0.447l-0.475-0.4l-0.414-0.461l-2.743-5.003l-0.057-0.052
		l-0.067-0.031l-0.076-0.012l-0.911,0.141l-0.801-0.052l-0.699-0.397l-0.637-0.896l0.66-0.3l0.299-0.206l0.255-0.264h0.006v-0.004
		l0.47-1.033l0.26-0.95l0.347-0.826l0.752-0.662l0.452-0.486l1.246-1.025l0.314-0.421v-0.415l-0.177-0.321l-0.226-0.323
		l-0.148-0.425l0.062-0.345l0.433-0.705l0.153-0.336l0.411-1.794l0.062-0.921l-0.169-0.847l-0.473-0.733l-0.637-0.407l-0.688,0.004
		l-0.615,0.495l-0.57-0.423l-0.395-0.808l-0.953-3.074l0.299-0.492l1.619-0.364l0.223-0.205l0.201-0.235l0.175-0.271l0.147-0.297
		l0.043-1.108l-0.257-1.514l0.127-1.028l1.201,0.354l1.058,0.559l0.953,0.23l2.119,0.168l0.679,0.24l0.183-0.039l0.126-0.242
		l0.083-0.399l0.008-0.4l-0.091-0.244l-0.344-0.486l-0.099-0.635l-0.014-0.705l-0.097-0.709l-0.127-0.261l-0.158-0.184l-0.151-0.227
		l-0.096-0.399l-0.108-0.306l-0.226-0.271l-0.277-0.217l-0.255-0.145l-0.459-0.523l0.236-0.605l0.857-0.987l0.096-0.431
		l-0.072-0.758l0.097-0.45l0.303-0.427l0.39-0.163l0.878-0.093l0.854-0.596l0.156-0.916l-0.061-0.954l0.204-0.723l0.714-0.035
		l0.553,0.294l0.365,0.195l0.832,0.29l0.468-0.626l0.236-0.921l0.261-0.686l0.081-0.708l-0.285-0.974v-0.006l-0.089-0.514
		l0.006-0.498l0.15-0.434l0.327-0.325l0.202-0.068l0.433-0.043l0.185-0.095l0.064-0.177l-0.086-0.463l0.032-0.177l0.425-0.705
		l0.215-0.088l0.456,0.158l0.65,0.423l0.319,0.132l0.397-0.031l0.924,0.401l0.489-0.126l0.452-0.424l0.827-0.5l0.311-0.033
		l0.551,0.146l0.784-0.261l0.382-0.076l0.331-0.179l0.245-0.456l-0.637-0.746l0.414-1.064l0.667-1.144l0.116-0.992l-0.465-0.392
		l-1.195,0.012l-0.43-0.3l-0.083-0.595l0.274-0.48l0.382-0.458l0.161-0.381l0.065-0.154l-0.223-1.113l-0.736-0.855l-1.705-1.528
		l-1.972-3.169l-0.401-1.092l-0.013-0.35l0.077-0.305l0.163-0.249l0.244-0.188l0.123-0.151l0.041-0.155l-0.045-0.161l-0.119-0.159
		l-0.346-0.721l-0.268-0.766l0.14-0.039h0.148l0.942,0.288l0.086-0.523l-0.299-1.458l0.002-0.625l0.108-0.665l0.244-0.602
		l0.392-0.436l0.634-0.222l2.157,0.067l0.634-0.147l1.545-0.824l1.211,0.069l0.644-0.075l0.481-0.463l0.421-0.622l0.937-0.599
		l0.489-0.442l0.36-0.621l0.062-0.595l-0.229-0.509l-0.513-0.367l-0.666-0.067l-0.551,0.273l-0.527,0.369l-0.585,0.216l-1.31,0.287
		l-0.661,0.025l-0.621-0.267l-0.252-0.208l-0.188-0.21l-0.132-0.263l-0.153-0.776l-0.148-0.136l-0.225-0.037l-0.95-0.364l-0.51-0.01
		l-0.497,0.189l-0.596,0.342l-0.618,0.203l-1.963-0.09l-0.991,0.344l-0.319-0.033l-0.317-0.102l-0.314-0.014l-0.747,0.643
		l-0.596,0.297l-0.634,0.045l-0.502-0.344l-0.344-0.071l-1.163,0.352l-0.554-0.157l-0.379-0.501l-0.787-1.962l-1.429-2.03
		l-0.919-0.846l-0.838-0.159l-0.398-0.252l-1.139-1.057l-1.189-0.437l-0.683-0.251l-0.806,0.014l-1.023,0.51l-0.548,0.154
		l-0.006,0.006l-0.003,0.002l-0.01,0.002l-0.609,0.419l-0.685,0.232l-0.663-0.092l-0.542-0.559l-0.006-0.002l-0.003-0.004v-0.006
		l-0.201-0.614l0.182-0.786l0.379-0.784l0.379-0.605l0.127-0.765l-0.392-0.771l-0.956-1.247l-0.156-0.803l0.076-1.763l-0.143-0.733
		l-0.449-0.446l-0.574-0.45l-0.175-0.46l0.746-0.484l-0.578-0.741l-0.214-0.666l-0.078-1.649l-0.15-0.886l-0.331-0.96l-0.542-0.687
		l-0.781-0.057l-1.727,0.691l-0.899,0.071l-0.835-0.394l-0.354-0.406l-0.115-0.348l-0.051-0.378l-0.148-0.497l-0.247-0.368
		l-0.265-0.256l-0.198-0.315l-0.029-0.543l-0.395-0.43l-0.488-0.421l-0.111-0.096l-0.448-0.577l0.062-0.611l0.137-0.093l0.382-0.151
		l0.092-0.073l0.029-0.809l0.33-1.312l0.599-1.39l0.049-0.719l-0.328-0.828l-0.749-1.383l-0.456-0.62l-0.516-0.282l-0.401-0.012
		l-0.36-0.115l-0.319-0.229l-0.284-0.34l-0.385-0.338l-0.446-0.076l-0.956,0.054l-0.803-0.183l-0.615-0.412l-0.242-0.671
		l0.331-0.951l1.094-1.346l0.425-0.689l0.166-0.928l-0.146-0.865l-0.284-0.629l-0.175-0.683l0.172-1.029l0.338-0.427l0.051-0.419
		l-0.204-0.347l-0.672-0.355l-0.35-0.383l-0.215-0.122l-0.298,0.014l-0.609,0.19l-0.287-0.062l-0.142-0.192l-0.156-0.589
		l-0.119-0.251l-0.223-0.164l-0.231-0.072l-0.218-0.101l-0.182-0.259l-0.245-0.683l-0.005-0.38l0.419-1.113l0.191-0.748
		l-0.191-0.654l-0.29-0.66l-0.099-0.779l0.215-0.693l0.384-0.327l0.425-0.249l0.362-0.472l0.096-1.254l-0.698-0.818l-1.775-1.143
		l-0.258-0.524l-0.182-0.549l-0.28-0.353l-1.122,0.17l-0.29-0.325l-0.433-1.109l-0.475-0.361l-1.147-0.107l-0.414-0.238
		l-0.191-0.636l0.411-1.157l-0.124-0.656v-0.006l-0.164-0.793l0.059-0.964l0.201-0.961l0.28-0.782l-0.121-0.665l-0.695-0.528
		l-0.62-0.703l0.135-1.18l0.255-0.342l1.067-0.864l0.315-0.508l-0.07-0.365l-1.133-1.389l-0.77-0.67l-0.862-0.396l-0.84,0.097
		l-0.392,0.224l-0.494,0.175l-0.433-0.045l-0.226-0.442l0.021-0.234l0.123-0.623l-0.022-0.196l-0.233-0.182l-0.201,0.042
		l-0.212,0.077l-0.237-0.079l-0.344-0.443l-0.175-0.481l-0.115-0.452l-0.182-0.357l-0.333-0.238l-1.107-0.537l-0.37-0.113
		l-1.998,0.235l-1.074-0.175l-0.54-0.854l0.09-0.297l0.042-0.139l0.319-0.401l0.271-0.419l-0.025-0.496l-0.155-0.551l0.056-0.498
		l0.188-0.476l0.261-0.502l0.003-0.006l0.285-0.563l0.744-0.846l0.271-0.6l0.255-0.822l0.287-0.498l0.405-0.322l0.594-0.289
		l0.171-0.245l-0.25-0.737l0.043-0.341l0.255-0.222l0.548-0.233l0.229-0.308l0.201-0.573l0.19-0.77l0.107-0.762l-0.132-1.882
		l0.868-0.988l1.115-0.875l0.691-1.001l-0.013-0.626l-0.236-0.618l-0.379-0.531l-0.437-0.373l-0.481-0.187l-0.392,0.083
		l-1.016,0.592l-1.541-0.284l-0.454-0.211l-0.282-0.199l-0.091-0.343l0.102-0.645l0.019-0.363l-0.096-0.998l0.003-0.464l0.39-1.587
		l0.037-0.676l-0.284-2.004l0.143-1.561l0.006-0.817l-0.22-0.654l-0.226-0.257l-0.236-0.157l-0.558-0.18l-0.386-0.199l0.096-0.242
		l0.268-0.271l0.135-0.288l-0.155-0.712l-0.153-0.472l-0.057-0.498l0.124-0.79l0.836-2.863l-0.148-1.162l-1.635-0.787l-0.5-0.484
		l-0.421-0.598l-0.296-0.886l-0.134-0.3l-0.102-0.304l0.016-0.33l-0.022-0.36l-0.233-0.247l-0.28-0.217l-0.186-0.284l-0.129-0.612
		l-0.096-0.268l-0.169-0.276v-0.007l0.437-0.738l0.499-0.416l0.296-0.472l-0.285-1.565l0.156-0.63l0.612-1.204l-0.252-0.978
		l-1.189-0.847l-1.373-0.723l-0.797-0.614l-0.035-0.343l0.214-0.722l-0.026-0.352l-0.373-0.789l-0.105-0.34l-0.013-0.356
		l0.076-0.263l0.006-0.296l-0.363-0.788l-0.182-0.846l-0.134-0.378l-0.006-0.016l-0.809-0.96l-0.188-0.482l0.344-0.482l0.628-0.394
		l0.462-0.169l0.481-0.012l0.685,0.084l0.711-0.078l1.673-0.443l0.738,0.083l2.13,1.062l0.784,0.066l0.679-0.163l1.596-0.73
		l0.593-0.435l0.519-0.794l0.013-0.722l-0.108-0.753l0.153-0.892l0.005-0.002l0.308-0.473l0.019-0.477l-0.105-0.514l-0.061-0.564
		l0.061-0.657l0.14-0.537l1.021-2.062l0.183-0.515l0.019-0.152l0.06-0.479l-0.159-1.308l0.137-0.453l3.276-2.704L120.154,30
		l0.475,0.336l0.832,1.264l0.422,0.485l1.843,0.862l0.599,0.509L126.831,35.275z M426.488,527.227l0.211,0.098l0.176,0.14
		l0.148,0.185l0.113,0.238l-0.647,1.323l-0.166,0.034l-0.361-0.112l-0.361-0.189l-0.166-0.201l-0.04-0.452l-0.073-0.344l-0.013-0.32
		l0.125-0.399l0.191-0.266l0.261-0.133l0.296,0.063L426.488,527.227z M411.396,521.073l-2.276-0.129l-0.236-0.014l-0.996-0.481
		l-0.625-1.022l0.309-0.482l0.454-0.342l0.552-0.171l0.597,0.034l0.519,0.18l1.144,0.115l0.439,0.175l0.058,0.15l0.028,0.073v0.004
		l-0.013,0.313l0.005,0.038l0.028,0.24l0.005,0.003l0.218,0.121l0.13,0.118l0.078,0.069l0.028,0.198l0.033,0.215l-0.07,0.206
		l-0.065,0.206L411.396,521.073z M389.206,510.326l-0.557,0.32l-0.595,0.001l-1.756-0.306l-0.542-0.23l-0.065-0.042l-0.411-0.267
		l-0.966-0.808l-0.279-0.322l0.121-0.149l0.221-0.052l0.246-0.091l0.296-0.018l2.602,0.803l2.311,0.172l0.718,0.283l0.404,0.37
		l0.253,0.23l-0.447,0.121l-1.184-0.101L389.206,510.326z M481.857,509.137l0.141-0.921l0.442-0.631l0.783-0.361l1.159-0.113
		l0.156,1.065l-0.926,0.814l-1.177,0.382L481.857,509.137z M478.47,503.308l0.607,0.146l0.788,0.348l0.492,0.379l0.181,0.137
		l0.246,0.646l-0.497,0.283l-0.497,0.283l-1.902,0.492l-0.682,0.613l-0.7,1.549l-0.354,0.599l-1.275,1.306l-0.201,0.461
		l-0.263,0.283l-1.172,0.594l-0.266,0.315l-0.264,0.17l-1.518,1.468l-0.906,0.528l-0.71-0.302l-0.672-0.684l-0.788-0.624
		l-2.06,1.065l-0.572,0.489l-0.572,0.329l-0.66-0.006l-1.402-0.206l-0.625,0.139l-0.657,0.309l-1.661,1.195l-1.724,0.734
		l-1.046,0.772l-0.542,0.289l-1.904,0.216l-1.352,0.372l-0.572,0.363l-0.284,0.109h-0.003l-0.09-0.017l-0.168-0.035l-0.349-0.116
		h-0.314l-0.133,0.295l-0.141,0.236l-0.336,0.184l-0.376,0.116l-0.284,0.043h-0.003l-0.13-0.091l-0.11-0.076l-0.158-0.396
		l-0.148-0.851l0.208-0.608l0.058-0.39l-0.161-0.18l-0.316-1.069l0.336-0.359l1.455,0.514l0.336-0.154l0.191,0.055l0.09,0.027
		l0.003-0.001l1.628-0.915l4.12-1.344l0.6-0.07l0.389-0.152l0.11-0.044l0.005-0.001l1.425-0.877l0.615-0.5l2.017-0.784l0.316-0.022
		l0.64,0.052l0.309-0.03l0.226-0.097l0.319-0.27l0.299-0.105l-0.093-0.232l-0.135-0.237l0.472-0.54l0.11-0.649l-0.143-1.544
		l-0.241-0.591l-0.527-0.505l-0.514-0.401l-0.211-0.276l0.783-0.454l4.308,1.634l1.167-0.276l3.252-2.105l4.075-0.924
		L478.47,503.308z M486.504,499.741l0.326,0.217l0.356,0.138l0.293,0.237l0.015,0.068l0.103,0.437l-0.116,0.439l-0.291,0.324
		l-0.221,0.11l-0.196,0.097l-0.482,0.083l-0.973-0.378l0.07-0.872l0.572-0.788L486.504,499.741z M296.364,423.995l0.556,0.251
		l0.333,0.195l-0.14,0.611l0.09,0.613L297,426.197l-0.305,0.048l-0.305-0.278l-0.305-0.778l-0.194-0.695l-0.222-0.417l0.362-0.222
		L296.364,423.995z M427.11,540.383l0.156,0.301l0.05,0.612l-0.309,0.233l-0.419-0.1l-0.492-0.229l-0.121-0.381l0.402-0.218
		L427.11,540.383z M468.662,514.488l0.238,0.365l0.06,0.814l-0.442,0.741l-0.627,0.37l-0.497-0.276l0.07-0.796l0.396-0.771
		l0.499-0.387L468.662,514.488z M399.142,514.165l0.364,0.171l0.246,0.517l-0.399,0.403l-0.542-0.074l-0.539-0.275l-0.306-0.424
		l0.246-0.376l0.615-0.021L399.142,514.165z M442.591,541.779l0.038,0.332l0.138,0.393l-0.243,0.213l-0.253,0.022l-0.173,0.106
		l-0.296-0.282l-0.143,0.112l0.018-0.211l-0.103-0.209l-0.11-0.335l0.444-0.244l0.532-0.142L442.591,541.779z"/>
  </g>
</svg>
