<?xml version="1.0" encoding="utf-8"?>
<!-- Generator: Adobe Illustrator 23.0.1, SVG Export Plug-In . SVG Version: 6.00 Build 0)  -->
<svg version="1.1" xmlns="http://www.w3.org/2000/svg" xmlns:xlink="http://www.w3.org/1999/xlink" x="0px" y="0px"
	 viewBox="0 0 800 600" style="enable-background:new 0 0 800 600;" xml:space="preserve">
<g id="Japan">
	<path fill="#bc3237" class="st0" d="M221.615,393.155l0.157,0.368l0.159,0.502l0.02,0.441l-0.271,0.189l-0.211,0.197l-0.708,1.288l-0.254,0.771
		l-0.207,0.166l-0.478,0.384l-0.376-0.199l-0.377-0.295l-0.082-0.431l0.43-0.173l0.294-0.803l0.535-0.729l0.309-0.175l0.45-0.149
		l0.291-0.376l0.184-0.488L221.615,393.155z M260.187,376.717l-0.065,0.474l0.355,0.379l0.313,0.489l-0.525,0.372l-0.216,0.126
		l-0.241,0.049l-0.162,0.091l-0.084,0.212l-0.156,0.645l-0.048,0.564l-0.062,0.116l-0.112,0.057l-0.169,0.156l-0.211,0.484
		l-0.249,1.208l-0.37,0.876l-0.249,1.177l-0.407,1.507l-0.7,2.296l-0.779,2.599l-0.232,0.691l0.055,0.44l-0.048,0.273l0.17,0.616
		l0.249,0.413l0.582,0.216l-0.069,0.218l-0.298,0.401l-0.067,0.198l-0.509,2.683l0.099,0.729l-0.657,0.545l-0.244,0.295
		l-0.094,0.396l-0.059,0.04l-0.273,0.464l-0.089,0.237l-0.025,0.292l0.055,0.155l0.072,0.09l0.038,0.108l0.008,0.512l-0.099,0.131
		l-0.261,0.269l-0.055,0.171l-0.201,1.149l-0.105,0.221l-0.271,0.373l-0.075,0.215l-0.025,0.176l-0.048,0.147l-0.142,0.12
		l-0.075-0.088l-0.055-0.037l-0.139-0.055l0.09-0.148l0.023-0.064l0.027-0.101l-0.826,0.148l-0.39,0.02l-0.33-0.168l-0.097-0.179
		l0.013-0.4l-0.057-0.243l-0.09-0.148l-0.398-0.435l-0.136-0.199l-0.1-0.032l-0.153-0.032l-0.446,0.119l-0.351-0.279l-0.224-0.177
		l-0.417,0.046l-0.432,0.118l-0.773,0.36l-0.306,0.24l-0.239,0.293l-0.353,0.619l-0.297,0.932l0.243,0.216l0.702,0.222l0.488,0.155
		l0.425,0.231l0.069,0.28l-0.062,0.186l-0.44,0.298l-0.18,0.36l0.378,0.146l0.661-0.296l0.151,0.212l-1.477,1.303l-0.561-0.053
		l-0.51,0.155l-0.032,0.512l-0.196,0.317l-0.351,0.735l-0.234,0.342l-0.254,0.254l-0.32,0.236l-0.343,0.2l-0.345,0.146l-0.751,0.262
		l-0.523,0.147l-0.529,0.064l-0.558,0.226l-0.382,0.297l-0.128,0.216l-0.867,0.226l-0.628,0.677l-0.348,0.331l-0.416,0.044
		l0.115-1.591l0.527-0.496l0.816-0.514l0.288-0.234l0.454-1.567l-0.223-0.418l0.543-0.929l0.191-0.785l0.143-1.207l-0.029-0.459
		l-0.257-0.683l-0.271-0.713l-0.457-0.797l-0.902-0.574l-0.224-0.633l0.263-1.041l-0.201-0.411l-1.206-0.228l-0.358-0.218
		l-0.207-0.049l-0.228-0.172l-0.153-0.303l0.473-0.629l0.493-0.254l0.502,0.114l0.525-0.038l0.49,0.122l0.219,0.413l-0.063,0.642
		l0.07,0.176l0.274,0.095l0.268-0.006l0.197-0.098l0.365-0.389l0.465-0.768l0.233-0.947l-0.119-0.877l-0.579-0.556l-0.789,0.044
		l-1.067-0.413l-0.848,0.26l-0.652,0.783l-0.06,0.243l-0.08,0.62l-0.082,0.202l-0.56,0.651l-0.15,0.254l-0.189,0.831l-0.333,0.593
		l-0.269,0.687l-0.227,0.985l-0.04,0.46l0.09,0.503l0.615,1.38l0.251,0.981l0.223,0.476l0.321,0.202l0.283,0.102l0.428,0.634
		l0.753,0.101l0.034,0.308l-0.244,0.839l-0.07,0.403l-0.141,0.492l-0.34,0.183l-0.403,0.156l-0.355,0.407l-0.264-0.288l-0.227,0.012
		l-0.241,0.109l-0.288,0.006l-0.309-0.156l-0.1-0.162l-0.015-0.338l-0.196-0.559l-0.243-0.347l-0.897-0.532l-3.161-0.104
		l-0.458,0.018l-0.54,0.213l-0.546-0.052l-0.209-0.35l-0.069-0.443l-0.115-0.35l-0.208-0.513l-0.279-0.304l0.233,0.024l0.326,0.047
		l0.024-0.284l-0.231-0.423l-0.54-0.549l-0.609-0.497l-0.445-0.265l0.535-0.275l0.166-0.053l0.191,0.008l0.269,0.112l0.177,0.029
		l0.244,0.097l0.395,0.506l0.269,0.235l0.341-0.567l0.995-0.96l0.236-0.769l0.253-0.396l0.234-0.867l0.124-0.805l-0.206-0.587
		l0.271-0.511l-0.03-0.441l-0.221-0.384l-0.577-0.674l-0.783-1.229l-0.268-0.212l-0.957-0.582l-0.321-0.12l-0.047-0.231
		l-0.213-0.529l0.197-0.891l0.191-0.196l0.668,0.257l0.253,0.119l-0.56-0.585l-0.223-0.358l0.364-0.657l0.117-1.065l-0.134-0.499
		l-0.181-0.521l-0.227-0.224l-0.085-0.124l-0.326-0.309l-0.023-0.453l0.274-0.227l0.365-0.521v-0.589l-0.497-0.506l0.554-0.661
		l0.853-0.317l0.624,0.806l0.408-0.129l0.433-0.3l0.253-0.252l0.067-0.16l0.196-0.645l0.007-0.024l0.072-0.093l0.174-0.068
		l0.035-0.08l-0.018-0.354l0.018-0.083l1.487-1.616l0.209-0.619l0.059-0.127l0.268-0.171l0.095-0.124l0.042-0.23l-0.067-0.214
		l0.025-0.22l0.162-0.484l0.154-0.046l0.537,0.531l0.191-0.267l0.03-0.295l-0.08-0.685l0.1-0.18l0.527-0.733l0.442-0.27l0.191-0.605
		l-0.075-0.628l-0.353-0.341l0.172-0.246l0.231-0.093l0.59,0.006l-0.169-0.319l-0.47-0.383l-0.062-0.297l0.11-0.201l1.464-1.29
		l0.311-0.396l0.244-0.611l-0.552,0.01l-3.359,0.643l-0.336,0.166l-0.281-0.151l0.189-0.337l0.371-0.289l1.417-0.724l0.437-0.409
		l0.227-0.121l0.318,0.029l0.333-0.122l0.171-0.038l0.196-0.006v-0.181l-0.281-0.118l-0.224-0.242l-0.142-0.289l-0.052-0.263
		l0.037-0.168l0.09-0.183l0.231-0.308l0.075-0.135l-0.035-0.104l-0.075-0.107l-0.042-0.161l-0.259-0.475l-1.581-1.287l-0.944-1.01
		l-0.595-0.341l-0.167-0.442l-0.137-1.603l0.042-1.063l-0.141-0.472l0.012-0.314l-0.032-0.123l-0.115-0.099l-0.11-0.026
		l-0.107-0.008l-0.089-0.05l-0.426-0.315l-0.147-0.173l-0.097-0.282l0.01-0.211l-0.067-0.132l-0.562-0.075l-0.465-0.126
		l-0.293-0.028l-0.208,0.001l-0.664-0.714l-0.344-0.235l-0.454,0.706l-0.844,0.603l-0.562,0.565l-0.48-0.222l0.09,0.465l0.271,0.42
		l0.316,0.754l0.892,1.528l0.378,0.406l-0.065,0.494l-0.306,0.103l-0.01,0.538l-0.313,0.332l-0.513,0.148l-0.297,0.315l-0.298,0.18
		l-0.395,0.215l-0.207,0.107l0.349,0.174l0.21,0.315l0.434,0.33l0.507-0.001l0.344-0.06l0.999-0.742l1.309-0.025l0.66,0.483
		l0.243,0.554l0.432,0.991l0.054,0.323l0.019,0.789l-0.043,0.218l-0.385,0.531l-0.083,0.322l0.203,0.393l-0.393,0.506l-0.743,0.386
		l-0.768,0.026l-0.189,0.159l0.018,0.272l-0.124,0.193l-0.358,0.057l-0.102,0.304l-0.174,0.101l-0.507,0.071l-0.348,0.26
		l-0.318-0.015l0.145-0.261l-0.072-0.377l-0.289-0.16l-0.174-0.203l-0.362-0.174l-0.014-0.493l-0.014-0.551l0.29,0.044l0.232-0.101
		l0.276-0.289l0.217-0.174l0.26-0.218l0.23-0.248l0.185-0.22l-0.056-0.462l-0.242-0.128l-0.185-0.114l-0.081-0.17l0.065-0.13
		l0.086-0.223l-0.243-0.231l-0.623-0.059l-0.203,0.159l-0.247-0.001l-0.667-0.146l-0.609,0.246l-0.29,0.304l-0.363,0.318
		l-0.493,0.115l-0.363,0.188l-0.42,0.057l-0.159-0.204l-0.014-0.218l-0.072-0.073l-0.189,0.174l0.114,0.305l-0.262,0.407
		l-0.521,0.739l-0.274,0.419l-0.175,0.45l-0.421,0.335l-0.391,0.217l-0.291,0.016l-0.073,0.189l-0.112,0.387l-0.488,0.445
		l-0.467,0.353l-0.06,0.234l-0.13-0.072l-0.276-0.086l-0.278,0.177l-0.19,0.104l-0.131-0.304l0.32-0.263l0.249-0.104l0.278-0.119
		l0.16-0.16l0.23-0.608l0.215-0.375l0.203-0.363l0.074-0.363l-0.087-0.145l-0.218,0.132l-0.131-0.159l0.001-0.189l0.247-0.044
		l0.131-0.189l0.219-0.073l0.173,0.261l0.233-0.175l0.275-0.568l-0.725,0.062l0.004-0.344l-0.417-0.885l-0.214-0.193l-0.177-0.115
		l-0.124-0.149l-0.047-0.301l-0.11-0.261l-0.339-0.111l-0.209,0.21l-0.239,0.106l-0.24-0.526l-0.472-0.305l-0.228-0.373
		l-0.177-0.382l-0.077-0.247l-0.027-0.291l-0.075-0.308l-0.172-0.239l-0.194-0.197l-0.276-0.092l-0.15-0.734l0.026-0.553
		l0.285-0.256l0.149-0.36l-0.078-0.314l0.044-0.405l0.181-0.15l0.057-0.719l0.374-0.615l0.793,0.371l0.298,0.459l0.013,0.059
		l-0.023,0.216l0.01,0.06l0.067,0.012l0.131-0.132l0.12-0.135l0.105,0.045l0.09,0.18l-0.135,0.15l-0.298,0.555l-0.059,0.374
		l0.121,0.314l0.209-0.12l0.298-0.54l0.63,0.193l0.316,0.374l0.225,0.374l-0.149,0.21l-0.045,0.225l0.046,0.584l-0.029,0.374
		l-0.164,0.195l-0.12-0.225l-0.106-0.586l-0.179,0l0.061,0.871l0.285,0.24l0.076,0.404l-0.269,0.27l0.42,0.284l0.165,0.119
		l0.18,0.194l0.21,0.149l0.075,0.149l0.105-0.075l0.089-0.15l0.284-0.135l0.119-0.194l0.179-0.36l1.077,0.372l1.074,0.459
		l0.314-0.09l-0.359-0.433l-1.12-1.611l-0.031-0.704l0.195-0.36l0.173-0.557l-0.041-0.507l-0.689-0.509l-0.63-0.644l-0.584,0.211
		l-0.389,0.27l-0.21,0l-0.031-0.48l-0.511-0.359l-0.225,0.165l-0.239,0.301l-0.285,0.031l-0.3-0.209l-0.083-0.264l-0.189-0.62
		l0.12,0.015l0.208,0.071l-0.074-0.447l0.014-0.21l0.285-0.121l-0.03-0.224l-0.225-0.014l-0.395,0.423l-0.1-0.257l-0.045-0.314
		l0.029-0.315l-0.269-0.102l0.049,0.528l-0.085,0.536l-0.08,0.182l-0.149-0.06l-0.331-0.015l-0.149,0.27l-0.143,0.064l-0.086-0.62
		l0.437-0.111l0.07-0.275l-0.077-0.248l-0.184-0.194l-0.228-0.142l-0.214-0.102l0.067-0.216v-0.146l-0.07-0.132l-0.147-0.177
		l-0.154,0.115l-0.204,0.024l-0.219-0.07l-0.356-0.336l-0.206-0.069h-0.534l-0.246-0.361l0.23-0.729l0.041-0.408l0.174-0.117
		l0.146,0.043l0.218-0.205l-0.044-0.16l-0.103-0.276l-0.264-0.479l0.099-0.671l0.085-0.569l0.247-0.249l0.58,0.537l0.488-0.076
		l0.592-0.89l0.132,0.218l-0.056,0.671l0.496,0.232l0.887-0.278l1.301,0.398l0.145,0.415l0.003,0.009l0.105,0.642l0.151,0.267
		l0.221,0.209l0.281,0.132l-0.074-0.329l-0.137-0.555l0.102-0.787l0.261-0.481l0.247-0.262l-0.188-0.292l0.14-0.182l-1.074-0.706
		l-0.401-0.453l-0.198-0.247l0.204-0.322l0.145-0.351l0.292-0.059l0.35,0.44l0.12,0.295l0.156,0.295l0.271,0.134l0.191-0.146
		l-0.092-0.34l-0.471-0.603l-0.146-0.79l0.365-0.483l-0.029-0.485l0.321,0.323l0.35,0.088l0.498-0.28l0.66,0.383l0.393,0.466
		l-0.088,0.246l-0.235,0.294l-0.089,0.279l0.249,0.145l0.191-0.221l0.087,0.248l-0.001,0.234l0.175,0.219l0.279,0.13l0.574,0.076
		l0.246-0.12l0.234-0.261l0.091-0.603l0.219-0.234l0.631-0.279l0.367-0.132l0.235,0.073l0.221-0.178l0.08-0.069l0.264-0.037
		l0.281-0.12l0.238-0.215l0.127-0.315l-0.253,0.006l-0.657,0.162l-0.196-0.077l-0.05-0.337l-0.181-0.075l-0.251-0.045l-0.1-0.117
		l0.02-0.172l0.112-0.204l0.219-0.199l0.211-0.037h0.201l0.211-0.084l0.354-0.292l-0.058-0.307l0.117-0.263l0.23,0.018l0.229-0.005
		l0.181-0.031l0.145-0.081l0.144-0.151l0.067-0.626l0.258,0.132l0.229,0.159l0.099,0.224l-0.192,0.232l0.087,0.395l0.288,0.175
		l0.125,0.093l0.42-0.091l0.072,0.205l-0.206,0.365l0.161,0.147l0.25,0.14l0.1,0.068l0.103-0.119l0.128-0.015l0.08-0.131
		l0.203-0.306l0.307-0.014l0.571,0.016l0.308-0.145l0.366-0.043l0.177-0.277l0.06-0.366l0.105-0.483l-0.087-0.191l-0.094-0.27
		l-0.4,0.244l-0.363,0.322l-0.259,0.126L232.98,348l-0.234-0.132l-0.131-0.132l-0.235,0.073l-0.248-0.22l-0.116-0.425l0.103-0.19
		l0.22,0.044l0.116,0.366l0.278,0.191l0.439,0.06l0.842-0.365l0.32-0.301l0.273-0.332l0.276-0.268l0.326-0.112l0.155-0.241
		l0.32-0.385l0.048-0.477l-0.066-0.432l-0.227-0.047l-0.158-0.191l0.032-0.304l0.099-0.135l0.159-0.087l0.207-0.157l0.115-0.188
		l0.229-0.748l0.167,0.179l0.216-0.023l0.472-0.309l0.176-0.195l0.067-0.161l0.12-0.119l0.34-0.062l0.973,0.087l0.432-0.066
		l0.432-0.343l0.624-0.939l0.164-0.077l0.264-0.034l0.243,0.02l0.297,0.15l0.505-0.293l0.708-0.018l0.776,0.12l-0.142,0.478
		l0.299-0.135l0.525,0.004l0.201,0.299l0.199,0.435l0.331,0.164l0.341-0.046l0.256-0.196l0.316-0.439l0.166-0.529l0.557-0.475
		l0.629-0.215l0.237,0.243l-0.069,0.524l-0.184,0.302l-0.057,0.151l0.012,0.142l-0.231,0.332l0.182,0.258l-0.04,0.331l-0.313-0.002
		l0.071,0.24l0.053,0.185l-0.13,0.201l-0.094,0.148l-0.333,0.235l-0.034,0.326l-0.005,0.095l0.089,0.078l0.401,0.109l0.441-0.109
		l-0.069,0.826l0.05,0.183l0.077,0.646l0.206,0.485l0.637,1.104l0.281,0.706l0.346,0.452l0.445,0.264l0.349-0.051l0.532,0.116
		l0.88,0.138l0.641,0.209l0.752,0.064l0.563,0.557l0.807,0.028l0.915,0.158l1.029-0.17l0.113-0.182l0.743-0.669l0.335-0.381
		l0.173-0.53l0.298-0.344l0.462-0.232l0.625-0.101l0.459-0.011l0.333-0.052l0.353,0.144l0.417,0.235l0.406-0.053l0.414,0.065
		l0.456,0.638l0.484,0.886l0.337,0.622l0.155,0.49l0.059,0.51l-0.222,0.669l0.168,0.689l-0.204,0.519l-0.371,0.761l-0.062,0.568
		l-0.181,0.078l-0.47-0.241l-0.326-0.164l-0.378,0.154l-0.1,0.351l0.062,0.386l-0.079,0.312l-0.513,0.127l-0.176,0.095l-0.1,0.382
		l-0.41,0.075l-0.414-0.001l-0.181-0.145l-0.296-0.34l-0.554,0.075l-0.157,0.551l0.246,1.654l0.372,0.3l0.398,0.154l1.323,0.049
		l0.87-0.459l0.935,0.431l0.222-0.395l1.053,0.409l1.235,0.234l0.59-0.201l0.69-0.396l0.374,0.056l-0.42,0.725l-0.219,0.519
		l0.014,0.37l-0.156,0.179l-0.327,0.125l-0.365,0.449l-0.089,0.421l-0.351,0.612l0.679,0.353l0.539-0.38l0.649-0.009l0.227,0.106
		l-0.557,0.379l-0.317,0.368l-0.118,0.29l0.355,0.184l0.213-0.11l0.307,0.054l0.206,0.2l0.275,0.022l0.07-0.275l0.038-0.308
		l0.163-0.013l0.176,0.402l0.145,0.22l0.187,0.136l0.184,0.035l0.187-0.072l0.129-0.143l0.096-0.557l0.356,0.683l-0.082,0.311
		l-0.523,0.138l-0.795-0.048l-0.325,0.01l-0.138,0.452l-0.33,0.412l-0.074,0.706l0.235,0.161l0.413,0.416l0.308,0.006l0.196,0.361
		l0.219-0.093l0.191-0.051l0.132,0.075l0.11,0.138l0.149,0.069l0.248-0.128l-0.01,0.125l0.084,0.114l0.163-0.062l0.266-0.352
		l0.534,0.108l0.42,0.089l0.06,0.245l-0.404-0.073l-0.426,0.219l-0.375,0.09l-0.63,0.491l-0.259,0.358l0.092,0.162l0.189,0.096
		l0.089,0.173l-0.214,0.403l-0.181,0.158l-0.177,0.095l-0.177,0.133l-0.167,0.281l0.266,0.035l0.602-0.087l0.115,0.135l-0.141,0.332
		l-0.326,0.276l-0.376,0.161l-0.294-0.018l-0.388,0.37l-0.96-0.126l-0.194,0.515v0.676l-0.015,0.075l-0.025,0.118l-0.087,0.099
		l-0.097,0.058l-0.057,0.066l-0.049,0.411l-0.022,0.361l-0.165,0.104l-0.287-0.411l-0.247-0.098l-0.11,0.331l-0.327,0.203
		l-0.251,0.436l-0.263,0.227l-0.1,0.121l-0.06,0.113l0.008,0.042l0.032,0.07l0.02,0.191l-0.08,0.267l-0.366,0.652l-0.117,0.149
		l-0.284,0.095l-0.426-0.045l-0.084,0.106l-0.116,0.416l-0.348,0.718l0.06,0.307l0.217,0.268l0.35-0.004l0.129,0.07l0.361,0.416
		l-0.395,0.456l-0.448,0.115l-0.34-0.138L260.187,376.717z M322.467,343.541l0.663-0.148l0.37-0.154l0.23,0.133l-0.389,0.222
		l-0.622,0.304l-0.769,0.376l-0.263,0.298l-0.721,0.095l-0.186,0.41l-0.583,0.046l-0.179,0.685l-0.499,0.098l-0.163,0.387
		l-1.668,1.135l-1.095,0.406l-0.572,0.465l0.256,0.297l-0.511,0.565l-0.067,0.297l-0.155,0.175l-0.278,0.113l-0.271-0.076
		l-0.286,0.188l0.064,0.428l-0.036,0.297l-0.349,0.289l-0.483,0.576l-0.587,1.165l-0.619,2.072l-0.139,0.923l-0.191,0.709
		l-0.045,0.332l-0.105,0.628l-0.019,0.564l-0.282,0.3l-0.381-0.826l-0.333-0.543l-0.293,0.056l-0.438-0.118l0.036-0.506
		l-0.575-0.593l-0.821-1.109l-0.298-0.771l-0.594-0.226l-0.573-0.274l-0.547-0.571l-0.348-0.858l-1.445-0.158l-1.888-0.485
		l-0.486-0.437l-1.382,0.212l-1.324,0.322l-0.379,0.342l-0.872,0.39l-1.664,0.783l-0.319,0.578l0.097,0.398l-0.316,0.321
		l-0.512,0.212l-0.477,0.079l-0.331,0.011l-0.216,0.044l-0.172,0.106l-0.204,0.19l-0.381,0.544l-0.104,0.053l0.06-0.431
		l-0.142-0.067l-0.139-0.099l-0.413,0.267l-0.47,0.439l-0.304,0.508l0.08,0.48l-0.134,0.294l0.055,0.202l0.125,0.166l0.08,0.178
		l0.025,0.12l0.079,0.084l0.023,0.116l-0.03,0.176l-0.087,0.096l-0.095,0.066l-0.042,0.089l-0.107,0.567l-0.253,0.326l-0.289,0.28
		l-0.238,0.169l0.054,0.532l0.154,0.166l-0.322,0.198l-0.122-0.284l-0.281-0.017l-0.516,0.641l-0.671,1.182l-0.513,0.686
		l-0.212,0.318l0.036,0.379l-0.023,0.225l-0.163,0.103l-0.313-0.232l-0.448-0.264l-0.711,0.379l-0.34,0.908l-0.15,0.93l0.306,1.115
		l-0.141,0.836l-0.258,0.165l-0.593-0.037l-0.122,0.281l0.057,0.421l-0.05,0.509l0.293,0.185l0.144,0.292l0.167,0.197l0.395,0.362
		l0.273,0.352l0.211,0.445l0.008,0.464l-0.53,0.22l-0.366-0.195l-0.161-0.119l-0.107-0.175l-0.197-0.475l-0.102-0.183l-0.363-0.289
		l-0.495-0.184l-0.457,0.091l-0.241,0.534l-0.186-0.4l-0.281-0.021l-0.311,0.212l-0.281,0.298l-0.358,0.206l-0.425-0.009
		l-0.401-0.132l-0.296-0.154l-0.58-0.532l-0.369-0.376l-0.961,0.26l-0.76,0.655l-0.159-0.511l0.071-0.648l0.465-0.641l0.35-0.761
		l0.612-0.674l0.254-0.314l0.082-0.3l-1.423,0.012l-0.261,0.064l-0.181-0.014l-0.883-0.611l-0.34-0.121l0.269,0.335l-0.393-0.044
		l-0.339-0.155l-0.251,0.024l-0.141,0.51l0.125,0.062l0.181,0.183l0.115,0.088l-0.351,0.159l-0.341-0.058l-0.281-0.233l-0.374-0.795
		l0.447-0.374l-0.229-0.528l0.272-0.363l0.11-0.194l-0.413-0.743l-0.204-0.421l-0.624-0.073l-0.44-0.203l-0.473,0.866l-0.294-0.078
		l0.371-0.592l-0.073-0.346l0.227-0.278l0.903,0.403l0.405-0.067l0.239-0.296h-0.42l0.124-0.359l0.005-0.329l-0.129-0.238
		l-0.281-0.08v-0.152l0.46,0.023l0.09-0.023l0.089-0.084l0.152-0.176l0.052-0.179l-0.217-0.079l-0.602-0.017l-0.196-0.138
		l-0.109-0.333l0.054-0.304l0.423-0.135l-0.192-0.279l-0.229-0.155l-0.297-0.191l-0.17,0.243l-0.344,0.052l-0.082-0.411l0.523-0.146
		l0.521,0.119l0.291,0.023l0.032,0.31l0.342,0.245l0.162,0.301l0.398-0.297l-0.049-0.43l0.228-0.359l0.461-0.104l0.251-0.229
		l-0.237-0.385l-0.254-0.182l0.347-0.309l-0.353-0.011l-0.339,0.126l-0.105-0.214l-0.221-0.101l-0.149-0.143l0.003-0.352
		l0.412-0.319l0.359-0.094l0.068-0.173l-0.798-0.035l-1.371,0.288l-0.389-0.124l-0.225-0.167l-0.238-0.081l0.112-0.28l0.149-0.098
		l0.339-0.034l0.157-0.128l0.037-0.146l0.079-0.693l-0.386,0.318l-0.241-0.304l0.01-0.564l0.348-0.46v-0.168h-0.281l0.079-0.195
		l0.122-0.155l0.159-0.106l0.191-0.062l-0.823-0.531l-0.373-0.05l-0.378,0.023l-0.223,0.116l-0.237,0.12l-0.297-0.166l-0.601,0.418
		l-0.513,0.162l-0.806,0.438l-0.712,0.393l-0.612,0.439l-0.217,0.374l-0.18,0.256l-0.34-0.014l-0.258-0.147l0.179-0.408l-0.756,0.47
		l-0.987,0.559l-0.307-0.1l0.393-0.4l0.451-0.266l0.879-0.799l0.846-0.284l0.365,0.113l0.274-0.118l-0.195-0.213l-0.037-0.202
		l0.33-0.212l0.585-0.231l0.454,0.024l0.387-0.26l0.492,0.012l0.598-0.525l2.438-1.223l0.331-0.311l0.142-0.397l0.129-0.229
		l0.592-0.72l0.186-0.154l0.434-0.411l2.079-0.874l0.344-0.343l0.555-0.378l0.64-0.644l0.422-1.016l-0.032-0.734l-0.113-0.679
		l0.183-0.903l0.15-0.66l0.125-0.681l0.875-0.143l0.052-0.61l0.308-0.519l-0.054-1.001l0.593-0.417l0.996-0.666l0.312-0.395
		l1.167-0.31l0.07-0.408l0.161-0.237l-0.086-0.429l-0.41-0.037l-0.223-0.001l0.044-0.236l0.37,0.061l0.273,0.01l0.28-0.531
		l0.239,0.394l0.15,0.106l0.103,0.169l0.211,0.143l1.136,1.386l0.585,1.522l0.183,0.425l0.166,0.359l0.191,0.258l0.435,0.202
		l0.396,0.195l0.405,0.043l0.547-0.224l0.731-0.169l0.716-0.219l0.107-0.442l0.62-0.227l0.427,0.056l0.468-0.236l0.377,0.015
		l0.39,0.179l1.128-0.075l0.482,0.096l0.989,0.375l0.507,0.037l0.433-0.141l0.34-0.248l0.269-0.309l0.223-0.317l0.303-0.351
		l0.691-0.626l0.269-0.378l0.151-0.456l0.14-1.129l-0.043-1.061l-0.1-0.429l-0.167-0.34l-0.259-0.332l-0.336-0.291l-0.336-0.213
		l-0.316-0.255l-0.286-0.43l0.432,0.25l0.614,0.26l0.582,0.134l0.348-0.134l0.373,0.393l0.592-0.202l0.627-0.49l0.467-0.474
		l0.562-0.454l1.266-0.596l0.629-0.4l0.177-0.252l0.161-0.342l0.186-0.298l0.256-0.129l0.181-0.027l0.331-0.116l0.196-0.027
		l0.199,0.055l0.301,0.232l0.373,0.096l0.251,0.213l0.221,0.085l0.191-0.009l0.321-0.137l0.191-0.009l0.723,0.182l0.146-0.176
		l0.254-0.532l0.331,0.39l0.122-0.152l0.035-0.355l0.06-0.223l0.331-0.05l0.194,0.151l0.107,0.269l0.07,0.31v0.687l0.095,0.25
		l0.336,0.097l0.161-0.11l0.447-0.544l0.095-0.195l0.431,0.354l0.465,0.159l0.222,0.283l-0.276,0.719l0.803,0.47l0.261,0.055
		l0.251,0.103l0.447,0.455l0.291,0.105l0.544-0.091l0.258,0.015l0.104,0.167l0.084,0.206l0.204,0.255l0.495,0.394l0.593,0.022
		l0.547-0.417l1.349,0.07l0.428-0.204l0.258-0.062l0.265-0.466l0.081,0.284l-0.218,0.279l-0.132,0.358l0.335-0.055l0.361-0.424
		l0.39-0.153l-0.127,0.345l-0.278,0.39l-0.029,0.215l-0.007,0.188l0.037,0.138l-0.4,0.09l0.234,0.056l0.187,0.103l0.284-0.033
		l-0.16,0.331l-0.218,0.377l-0.066,0.261l0.047,0.144l-0.361,0.588l-0.012,0.644l0.065,0.427l-0.122,0.097l-0.135,0.44l-0.02,0.154
		l0.007,0.247l0.107,0.504l0.107,0.209l0.137,0.099l0.259-0.014l0.048-0.262l0.214-0.063l0.286,0.613l0.246,0.423l0.679,0.421
		l-0.118,0.235l0.254,0.127l-0.007,0.404l0.014,0.365l-0.25,0.26l-0.081,0.236l-0.273,0.113l-0.229,0.143l-0.331,0.564l0.299,0.166
		l1.156-0.039v0.155l-0.181,0.028l-0.206,0.107l-0.174,0.033V343.541z M290.228,286.302l0.289,0.514l-0.251,0.677l-0.488,0.647
		l-0.418,0.421l-0.01-0.738l0.055-0.767l0.251-0.575L290.228,286.302z M289.596,286.096l0.055-0.14l0.418,0.251l-0.418,0.095
		L289.596,286.096z M289.26,285.84l0.274,0.023l0.012,0.223l-0.02,0.191l-0.296,0.075l-0.296,0.119l-0.135,0.449l0.045,0.27
		l0.062,0.183l-0.023,0.151l-0.224,0.169l-0.184,0.031l-0.184-0.061l-0.149-0.11l-0.055-0.112l-0.007-0.248l-0.038-0.127l-0.1-0.045
		l-0.201-0.006l-0.202,0.12l0.057,0.272l0.224,0.459l-0.187,0.255l-0.278-0.041l-0.328-0.236l-0.331-0.326l0.413-0.51l0.925-0.737
		l0.499-0.504l0.368,0.149L289.26,285.84z M296.412,328.22l-0.201,0.512l-1.467,1.903l-0.319,0.28l-0.619,0.297l-0.281,0.084
		l-0.246-0.022l-0.105-0.232l0.107-0.185l0.254-0.088l0.281-0.058l0.197-0.094l0.194-0.429l-0.211-0.288l-0.442-0.138l-0.508,0.02
		v-0.186l0.373-0.298l-0.206-0.469l-0.396-0.147l-0.363,1.254l-0.338,0.325l-0.375,0.234l-0.264,0.307l0.406,0.325l0.139,0.51
		l-0.119,0.471l-0.356,0.208l-0.151-0.057l-0.256-0.237l-0.099-0.047l-0.11,0.059l-0.238,0.229l-0.388,0.158l-0.462,0.476
		l-0.194,0.112l-0.346-0.173l-0.119-0.439l0.034-1.002l0.095,0.02l0.216-0.243l0.326-0.464l0.221-0.165l0.08,0.236l-0.018,0.391
		l-0.077,0.31l0.408-0.101l0.294-0.826l0.431-0.091v-0.185l-0.326-0.283l-0.376-0.211l-0.228-0.051l-0.204,0.009l-0.201-0.015
		l-0.211-0.13l-0.291,0.186l0.137,0.779l-0.549,0.465l-0.838,0.225l-2.188,0.213l-0.592,0.253l-0.617,0.429l-0.346-0.591
		l-0.37,0.192l-0.393,0.482l-0.431,0.271l-0.326,0.069l0.037,0.178l0.181,0.243l0.109,0.265l-0.135,0.185l-0.306,0.074l-0.617,0.005
		l-0.485,0.165l-0.96,0.651l-0.597,0.032l-0.102-0.097l-0.079-0.174l-0.059-0.164l-0.042-0.074l-0.191,0.046l-0.099,0.107
		l-0.06,0.121l-0.072,0.079l-0.552,0.305l-0.241-0.01l-0.201-0.295l0.311-0.352l-0.189-0.31l-0.353-0.346l-0.256-0.621l-0.281-0.33
		l-0.075-0.107l-0.005-0.324l0.075-0.2l0.04-0.194l-0.11-0.301l0.146-0.038l0.254-0.111l0.162-0.021l-0.1-0.26l-0.176-0.184
		l-0.427-0.236l-0.319,0.198l-0.403,0.125l-0.413-0.011l-0.741-0.45l-0.453,0.06l-0.769,0.419l-0.693,0.544l-1.847,2.189
		l0.189,0.341l0.136,0.522l0.043,0.359l0.067,0.568l-0.097,0.603l-0.234,0.264l-0.284,0.191l-0.242,0.391l-0.059,1.088l0.244,0.981
		l0.047,0.882l-0.652,0.789l-0.499,0.221l-0.301,0.061l-0.144,0.199l-0.037,0.62l0.105,0.456l0.432,0.932l0.035,0.387l-0.238,0.286
		l-0.91,0.522l-0.614,0.544l-0.411,0.245l-0.299,0.022l0.063-0.421l0.432-0.338l0.07-0.117l0.154-0.372l0.044-0.202l0.179,0.243
		l0.241,0.036l0.206-0.164l0.09-0.361l-0.084-0.439l-0.201-0.239l-0.254-0.156l-0.239-0.194l-0.363-0.219l-1.295-0.451l-0.462-0.083
		l-0.119-0.117l-0.507-0.728l-0.226-0.15l-0.567-0.241l-0.201-0.117l-0.467-0.424l-0.386-0.244l-0.378,0.091l-0.44,0.577h0.293
		v0.153l-0.723,0.029l-0.243-0.139l-0.042-0.398l0.612-0.497l0.341-0.356l-0.023-0.161l-0.187-0.051l-0.289-0.223l-1.194-0.458
		l-0.783,0.299l-0.301-0.075l-0.259,0.174l-0.642,0.281l-0.234,0.055h-0.56l-0.092-0.083l-0.074-0.149l-0.1-0.031l-0.167,0.263
		l0.182,0.281l0.07,0.315l-0.09,0.271l-0.291,0.147l-0.146,0.014l-0.085-0.027l-0.04-0.084l-0.01-0.164l-0.06-0.207l-0.125-0.014
		l-0.104,0.076l-0.002,0.068l-0.652-0.225l-0.181-0.097l-0.36-0.391l-0.207-0.097l-0.286,0.133l0.099,0.2l0.01,0.115l-0.109,0.194
		l-0.055-0.015l-0.197,0.185l-0.028,0.153l-0.069,0.089l-0.003,0.091l-0.047,0.091l-0.172,0.083l-0.141-0.032l-0.125-0.141
		l-0.097-0.178l-0.06-0.156l-0.104,0.248l-0.12,0.157l-0.147,0.041l-0.189-0.108l0.182-0.337l0.053-0.445l-0.085-0.388l-0.221-0.169
		l-0.139,0.167l-0.564,1.081l-0.477,0.678l-0.217,0.224l-1.022,0.65l-0.293,0.05l-0.167-0.326l-0.15,0.086l-0.184,0.035
		l-0.159-0.048l-0.065-0.157l-0.04-0.224l-0.1-0.009l-0.135,0.087l-0.146,0.061l-0.037,0.056l-0.117,0.121l-0.157,0.121
		l-0.181,0.056l-0.104-0.087l-0.052-0.196l-0.214-0.271l0.026-0.287l0.109-0.199l-0.017-0.117l-0.177-0.044l-0.687-0.521
		l-0.428-0.751l-0.632-0.168l-0.757-0.272l-0.445,0.824l-0.932,1.074l-0.751,0.646l-0.119,0.562l-0.217,0.216l-0.341-0.254
		l-0.112-0.2l-0.294-0.139l0.017-0.31l0.395,0.014l0.21-0.59l-0.04-0.28l0.117-0.359l0.076-0.285l-0.089-0.273l-0.155-0.191
		l0.15-0.589l-0.178-0.31l-0.524-0.05l-0.107-0.257l-0.08-0.336l-0.134-0.249l-0.025-0.272l0.239-0.406l0.273-0.245l0.263-0.166
		l0.244-0.219l0.201-0.401l0.05-0.327l-0.064-0.218l-0.092-0.177l-0.11-0.627l-0.281-0.495l-0.062-0.279l-0.044-0.094l-0.316-0.253
		l-0.095-0.23l0.077-0.185l0.137-0.167l0.087-0.175l0.07-0.766l0.07-0.306l0.14-0.288l0.231,0.103l0.334,0.049l0.298-0.051
		l0.13-0.195l0.134-0.073l0.85-0.189l0.321-0.165l0.45-0.145l-0.323-0.287l-0.294,0.01l-0.791-0.176l-0.206-0.087l-0.127,0.211
		l-0.053,0.065l-0.254-0.089l0.109-0.292l0.176-0.28l0.226-0.212l0.363-0.287l0.274,0.098l0.27,0.227l-0.035,0.276l0.177,0.114
		l0.264,0.023l0.301-0.044l0.281-0.101l0.211-0.141l0.278-0.097l0.507,0.286l0.336,0.087l0.374-0.044l0.141,0.824l0.264,0.228
		l0.391,0.039l0.129-0.275l0.262-0.37l-0.372-0.413l-0.062-0.164l0.015-0.317l0.44,0.119l0.301-0.104l0.565-0.114l0.365-0.097
		l0.245,0.232l0.343,0.501l-0.308-0.037l-0.313-0.241l-0.206-0.051l-0.237,0.087l-0.154,0.232l-0.122,0.286l-0.089,0.327
		l-0.057,0.36l0.146-0.074l0.261-0.197l0.152-0.053l0.993-0.047l0.794-0.219l0.239-0.576l0.623,0.012l1.013-0.207l-0.021-0.745
		l0.269-0.293l0.613-0.617l0.117-0.221l-0.147-0.495l0.144-0.11l0.43-0.102l0.783-0.607l0.323-0.342l0.299-0.397l0.09-0.266
		l0.038-0.566l0.154-0.116l0.419,0.027l0.22,0.039l-0.033-0.22l-0.003-0.409l0.057-0.438l0.378-0.132l0.291,0.141l0.555,0.142
		l0.297-0.231l0.051-0.203l0.143-0.093l0.643,0.077l0.709-0.094l0.91-0.269l0.67-0.305l0.366-0.176l0.362-0.229l0.097-0.575
		l0.077-0.214l0.141-0.33l0.464-0.093l0.103-0.188l0.462-0.436l0.683-0.63l0.829-0.606l0.49-0.717l0.275-0.268l0.397,0.108
		l0.137-0.336l0.057-0.546l0.984-0.893l0.425-0.39l0.536-0.439l1.2-0.94l0.415-0.533l0.706-0.138l0.468-0.203l0.478-0.35l0.2-0.746
		l0.626-0.481l0.471-0.346l0.19-0.248l-0.054-0.269l0.324-0.375l0.118-0.367l1.225-0.958l0.579-0.486l0.697-0.314l0.046-0.321
		l0.377-0.12l0.521-0.273l0.936-0.281l0.361-0.257l0.261-0.46l0.246-0.418l0.167-0.645l0.055-0.426l-0.002-0.337l-0.066-0.354
		l-0.35-0.186l-0.464-0.326l-0.151-0.284l0.237-0.249l0.422-0.051l0.539-0.152l0.398-0.005l0.678,0.015l0.29-0.074l0.127-0.118
		l-0.211-0.185l-0.39-0.182l0.222-0.049l0.338-0.109l0.467-0.099l0.604-0.358l0.675-0.276l0.56-0.123l1.178-0.055l0.496-0.139
		l0.48,0.043l0.071-0.629l0.376-0.067l0.471,0.095l0.392-0.132l0.185-0.392l0.191-0.308l0.264-0.165l0.346,0.125l0.204-0.309
		l-0.002-0.352l0.29,0.1l0.296,0.319l0.446,0.372l0.309,0.191l0.682-0.235l0.358-0.023l0.363-0.256l0.112,0.12l-0.144,0.245
		l0.1,0.097l0.232,0.027l0.142-0.094l0.414-0.175l0.419-0.049l0.452-0.025l0.354,0.219l-0.27,0.165l-0.288,0.084l-0.246,0.124
		l-0.345,0.104l-0.26,0.339l-0.057,0.06l-0.012,0.304l0.13,0.299l0.085,0.348l0.614,0.397l0.721,0.376l0.642,0.128l0.408,0.101
		l0.4,0.054l0.355-0.057l0.49-0.871l1.059-0.488l0.675-0.305l1.122-0.282l1.077,0.31l2.026,0.465l3.708-0.295l1.99-0.567
		l0.543,0.447l2.854-0.427l1.318-0.262l0.499-0.175l0.401-0.285l0.253-0.531l1.002-0.2l0.194-0.009l0.194-0.04l0.308-0.39
		l0.767-0.252l1.077-0.415l0.655-0.413l0.799-0.464l1.094,0.323l1.177-0.122l0.905,0.021l1.55-0.079l0.645,0.023l0.311,0.083
		l0.426,0.132l0.169,0.298l0.43-0.327l0.364,0.024l0.084,0.289l0.261-0.082l0.369,0.121l0.233,0.081l0.416-0.346l0.13-0.077
		l0.208-0.079l-0.084-0.322l0.582-0.405l0.471-0.034l0.374-0.044l0.325-0.225l0.842-0.614l-0.034-0.33l1.031-0.326l1.018-0.211
		l0.54-0.079l0.344-0.227l0.489,0.367l0.228,0.456l0.308,0.213l0.324,0.5l0.238,0.576l0.043,0.44l-0.141,0.345l-0.413-0.269
		l-0.419,0.296l-0.255,0.539l-0.083,0.326l-0.198,0.213l-0.573,0.679l-0.344,0.564l0.003,0.5l0.159,0.135l0.219-0.04l0.029-0.444
		l0.28-0.224l0.279-0.42l0.267-0.181l0.107,0.516l0.247,0.106l0.112,0.105l-0.182,0.136l-0.207,0.006l-0.25-0.016l-0.022,0.403
		l1.29,0.727l0.301-0.129l0.17-0.154l0.227,0.41l-0.122,0.34l-0.095,0.229l-0.199,0.477l-0.037,0.205l0.114,0.295l0.231-0.191
		l0.195-0.419l0.262-0.4l0.37,0.022l0.501,0.244l0.154-0.144v-0.628l-0.587,0.135l-0.484-0.218l-0.255-0.686l0.484-0.422
		l0.254-0.088l0.599-0.012l0.271-0.088l0.204-0.206l0.197-0.258l0.081-0.267l0.488-0.322l-0.102,0.413l-0.12,0.384l0.363,0.147
		l0.265,0.171l-0.086,0.391l0.035,0.249l-0.037,0.167l0.007,0.12l0.191,0.046l0.151-0.081l0.146-0.195l0.196-0.414l0.005,0.459
		l-0.079,0.453l0.048,0.346l0.381,0.138l0.59,0.025l0.187-0.025l0.194-0.082l0.403-0.23l0.181-0.304l0.402-0.383l0.496-0.265
		l0.428,0.214l-0.103,0.119l-0.47,0.201l-0.15,0.711l-0.258,0.177l0.472,0.16l1.061-0.294l0.57,0.028l0.28-0.202l0.212-0.378
		l-0.003-0.5l-0.563,0.283l-0.251-0.461l-0.349-0.135l0.297-0.41l0.665-0.213l0.197,0.16l0.166,0.382l0.434-0.02l0.345,0.467
		l0.338,0.114l0.49-0.19l-0.223-0.102l-0.151-0.191l-0.302-0.557l0.057-0.181l0.23-0.061l0.215,0.208l0.293-0.103l0.3-0.142
		l-0.065-0.186l-0.146-0.135l-0.142-0.188l-0.067-0.354l-0.084-0.1l-0.293-0.347l-0.089-0.317l0.237-0.031l0.363,0.277l0.265,0.221
		l0.29,0.181l0.699-0.167l0.163,0.238l0.199,0.172l0.414-0.26l0.233-0.264l0.413,0.073l0.196-0.114l0.023-0.333l-0.373-0.298
		l0.198-0.526l0.025-0.373l-0.088-0.305l-0.28,0.061l-0.009-0.703l0.525-0.292l0.784-0.646l0.285,0.484l-0.046,0.206l0.156,0.394
		l0.164,0.476l-0.1,0.31l-0.206-0.004l-0.102,0.27l0.335,0.273l0.086,0.287l0.445-0.078l0.113-0.434l0.139-0.131l0.046-0.158
		l-0.02-0.353l0.2-0.273l0.005-0.24l0.007-0.468l0.142-0.423l-0.008-0.402l-0.231-0.496l-0.237-0.417l-0.127-0.33l-0.446-0.353
		l-0.751-0.819l-0.387-0.359l0.039-0.71l-0.02-0.579l-0.487-0.613l-0.276-0.332l0.122-0.681l0.496-0.3l0.263-0.316l0.366-0.845
		l0.271-0.592l0.257-0.766l1.012-1.286l0.303-0.606l0.259-0.372l0.302-0.632l-0.317-0.558l0.098-0.172l0.426-0.028l0.364,0.052
		l0.701-0.309l1.684-1.48l0.406-0.635l0.994-0.473l0.73-0.645l0.984-1.059l4.312-5.887l1.022-1.749l1.457-3.588l0.104-0.486
		l-0.004-0.614l-0.148-0.152l-0.161-0.165l0.032-0.249l0.185-0.437l0.137-0.736l-0.158-0.491l-0.362-0.342l-0.221-0.882
		l-0.228-0.189l-0.042-0.548l0.171-1.298l-0.119-0.398l-0.255-0.202l-0.208,0.059l-0.044,0.29l-0.407-0.027l-0.127-0.324
		l0.087-0.658l0.155-0.608l0.173-0.412l0.311-0.342l-0.159-0.291l0.307-0.298l0.275-0.48l0.145-0.397l-0.181-0.322l-0.06-0.719
		l0.566-0.842l0.713-0.413l1.201-0.663l0.794-0.219l0.466,0.25l0.643-0.029l2.263-1.254l0.548-0.132l0.407-0.508l0.462-0.391
		l2.911-0.955l0.827-0.179l0.93,0.373l0.204,0.285l-0.147,0.504l0.033,0.302l0.281,0.217l-0.059,0.348l-0.101,0.195l-0.536,0.17
		l-0.356-0.018l-0.423-0.082l-0.393,0.168l-0.299,0.191l-0.157,0.402l-0.177,0.871l0.237,0.585l0.383,0.056l-0.044,0.395
		l-0.058,0.356l-0.138,0.279l-0.373,0.35l-0.153,0.247l-0.433-0.023l-0.896-0.202l-1.169,0.449l-0.326,0.57l-0.443,0.6l-0.013,0.503
		l-0.335,0.218l-0.441,0.142l-0.122,0.343l-0.263,0.167l-0.698-0.299l-0.411-0.28l-0.295-0.254l0.215-0.281l0.074-0.172
		l-0.183,0.006l-0.19,0.252l-0.234,0.08l-0.08,0.209l-0.205,0.395l-0.493,0.642l-0.255,0.752l0.318,0.135l-0.05,0.551l-0.113,0.186
		l-0.392-0.015l-0.011,0.562l-0.148,0.318l0.283,0.184l0.383-0.088l0.43-0.241l0.398,0.067l0.609,0.723l0.347,0.126l0.491-0.221
		l0.417-1.029l0.296-0.191l0.173,0.103l0.141,0.49l-0.105,1.465l0.115,1.446l-0.556,0.718l-0.049,0.64l-0.767,1.103l0.366,0.902
		l0.974,0.639l0.571,0.538l0.973,0.34l0.596,0.411l0.828,0.069l0.908-0.178l1.176,0.207l0.713-0.147l0.353-0.503l0.68-0.458
		l0.232-0.695l0.277-0.462l0.095-0.432l0.135-0.394l-0.118-0.503l0.274-0.646l0.421-0.296l1.064-0.571l1.796-0.364l1.984-0.465
		l2.554-1.102l1.833-0.688l2.11-1.379l1.11-0.491l0.482-0.506l0.425-0.55l1.376,0.241l0.874-0.194l0.78-0.376l1.649-1.22l2.311-2.35
		l2.325-1.445l0.562-0.646l0.388-0.838l0.528-1.094l0.765-1.215l1.203-1.048l0.582-0.831l0.391-0.981l0.9-3.276l0.362-0.95
		l0.63-0.795l1.495-1.226l2.661-1.85l0.171-0.239l0.476,0.011l0.845-0.109l1.716-0.811l0.475-0.345l1.346-1.012l2.128-2.35
		l0.351-0.506l0.149-0.467l0.612-5.389l0.219-0.984l0.408-1.093l0.766-1.413l1.03-2.599l0.393-1.089l0.572-0.868l1.831-1.698
		l0.642-0.877l0.543-1.006l0.852-3.273l0.869-2.412l0.2-0.792l0.138-0.959l0.135-0.431l0.233-0.489l0.08-0.506l0.043-1.088
		l0.116-0.839l0.273-0.997l0.308-0.654l0.653-0.311l0.652-0.757l0.512-2.134l0.582-2.585l0.221-5.159l-0.001-0.786l-0.415-1.117
		l-0.001-0.642l-0.236-0.836l-0.473-0.706l-0.783-0.781L430,187.431l-0.903,0.153l-0.271,0.283l-0.194,0.305l-0.228,0.243
		l-0.375,0.099h-1.345l-0.171-0.22l-0.281-0.687l-0.164-0.29l-0.442-0.577l-0.092-0.56l0.314-0.187l-0.379-0.229l-0.067-0.749
		l0.06-0.458l0.88,0.622l1.172,0.533l0.445,0.04l0.921-0.622l0.766-0.896l1.518-2.895l0.318-1.187l-0.1-0.578l0.292-0.843
		l0.171-0.35l0.18-2.634l0.09-0.588l-0.258-0.346l-0.27-0.251l-0.722-0.722l-0.358-0.403l-0.07-0.42l0.062-1.181l-0.043-1.171
		l-0.015-0.626l-0.243-0.267l-0.051-0.447l-0.274-0.411l-0.797,0.074l-0.403-0.182l0.074-0.505l0.411-0.445l0.409-0.467l0.525-0.118
		l0.263-0.624l0.43-0.213l0.218-0.432l0.344-0.658l0.232-0.657l0.983-0.696l0.48,0.059l0.531,0.443l0.257,0.141l0.303-0.019
		l0.366-0.13l0.301-0.322l0.889-0.679l0.433,0.22l0.441-0.141l0.36-0.329l0.261-0.455l0.532-1.667l0.259-1.699l0.144-0.495
		l-0.023-0.656l0.085-0.578l0.055-0.755l0.06,0l0.332,0.61l0.181,0.186l0.256,0.146l0.15,0.186l0.262-0.06l-0.133-0.656
		l-0.129-0.253l0.149-0.173l0.179-0.039l0.225,0.066l0.232,0.036l-0.069-0.231l-0.112-0.141l-0.411,0.033l-0.224-0.006l-0.359-0.012
		l-0.128-0.141l-0.076-0.164l-0.141,0.121l-0.141,0.121l-0.061-0.112l-0.027-0.688l-0.016-0.338l-0.446-0.773l-0.378-0.216
		l-0.351-0.049l-0.342-0.064l-0.054-0.287l0.22-0.137l0.52-0.04l0.462,0.101l0.338-0.357l0.184-0.61l0.07-0.524l-0.09-0.273
		l0.035-0.288l0.055-0.691l0.169-0.254l-0.057-0.34l0.083-0.187l0.347,0.322l0.409,0.269l0.255,0.1l0.369,0.431l0.542,0.725
		l0.544,0.389l0.44,0.011l0.563-0.389l0.281-0.608l0.49-0.171l0.931,0.166l0.797,0.708l0.205,0.625l-0.116,0.727l-0.049,0.799
		l-0.074,0.268l0.01,0.343l0.112,0.577l0.089,0.83l0.273,0.899l0.38,3.073l0.619,1.149l1.013,0.492l0.962-0.106l0.648-0.754
		l0.438-0.462l0.383-0.851l-0.103-0.194l-0.057-0.307l0.081-0.202l0.081-0.105l-0.165-0.066l-0.189,0.064l-0.131-0.073l-0.138-0.146
		l0.179-0.089l0.252-0.024l-0.041-0.219l0.032-0.187l0.204-0.162l-0.05-0.171l0.073-0.13l0.21-0.512l0.13-0.081l0.292,0.049
		l0.237,0.351l0.502,0.048l0.203,0.098l0.186,0.349l0.178,0.226l0.308,0.268l0.008,0.162l-0.041,0.057L451.747,159l-0.057,0.146
		l-0.033,0.227l0.097,0.057l0.23,0.037l0.411,0.131l0.492,0.304l0.251,0.098l0.228-0.048l0.202,0.154l0.12,0.292l0.201,0.373
		l0.186,0.13l0.382,0.245l0.307-0.008l0.429-0.161l0.342-0.339l0.441-0.541l0.846-2.075l0.206-0.77l0.113-1.827l0.123-0.42
		l-0.031-0.238l0.123-0.324l0.228-0.202l0.18-0.284l0.116-0.512l-0.152-0.816l-0.296-0.711l-0.424-0.731l-0.607-0.731l-0.463-0.338
		l-0.455-0.038l-0.18,0.396l-0.133,0.232l-0.185,0.241l0.014,0.109l0.128,0.029l0.119-0.194l0.133-0.165l0.062-0.052l-0.005,0.095
		l-0.038,0.137l-0.209,0.326l-0.688,0.599l-0.383,0.112l-0.46,0.373l-0.294,0.37l-0.492-0.076l-0.586-0.271l-0.279,0.066
		l-0.298-0.085l-0.298,0.18l-0.345,0.454l-0.791-0.01l-0.349,0.269l-0.317-0.076l-0.259,0.066l-0.704,0.492l-0.287,0.482
		l-0.336-0.003l-0.665-0.449l-0.01-1.081l0.005-0.309l0.259-0.298l0.134-0.773l-0.089-0.459l0.261-0.724l0.127-0.673l0.081-0.498
		l-0.001-0.229l0.247-0.219l0.174-0.743l0.076-0.626l0.198-0.84l0.337-0.332l0.627-1.017l0.29-0.24l0.064-0.134l0.124-0.543
		l-0.029-0.337l-0.129-0.304l0.086-0.109l0.071-0.285l0.133-0.228l0.276,0.372l0.489,0.313l0.28,0.352l0.28,0.313l0.307,0.181
		l0.212,0.109l0.368,0.081l0.905,0.082l0.872,0.473l0.723,0.84l0.344,0.441l0.417,0.315l0.084,0.225l0.226,0.281l0.836,0.536
		l0.831,0.394l0.86,0.004l0.635-0.196l0.685-0.339l0.579-0.487l0.431-0.43l0.347-0.338l0.255-0.324l0.068,0.115l0.063,0.184
		l-0.133,0.164l0.062,0.261l-0.033,0.091l-0.165,0.113l0.037,0.12l0.088,0.11l-0.05,0.287l-0.25,0.309l-0.111,0.411l-0.164,0.579
		l-0.167,0.474l-0.306,1.533l-0.095,0.711l-0.011,0.274l-0.266,1.629l0.078,0.623l0.076,0.275l-0.079,0.318l0.005,0.37l0.034,0.304
		l-0.207,1.673l0.036,1.447l0.045,1.178l0.057,0.331l0.257,2.852l0.362,2.471l0.292,1.508l0.679,2.078l0.247,0.524l0.19,0.318
		l0.577,0.658l0.263,0.178l0.323-0.005l0.23-0.211l0.332-0.078l0.135,0.256l0.147,0.289l0.708,0.561l1.178,1.361l0.204,0.235
		l0.58,0.795l0.143,0.514l0.364,0.266l0.201,0.389l0.102,0.284l0.293,0.675l0.057,0.171l0.06,0.326l0.147,0.233l0.366,0.454
		l0.554,1.047l0.237,0.684l-0.159,0.308l-0.201,0.09l-0.191,0.219l-0.102,0.271l0.064,0.247l0.259,0.212l0.552,0.228l0.251,0.201
		l0.251,0.549l-0.233,0.324l-0.38,0.326l-0.202,0.553l0.1,0.649l0.258,0.413l1.328,1.239l0.221,0.128l0.223,0.071l0.172,0.131
		l0.119,0.581l0.089,0.285l0.037,0.285l-0.095,0.266l-0.241,0.334l-0.059,0.182l0.221,0.484l0.129,0.216l0.141,0.178l0.119,0.234
		l0.074,0.825l0.067,0.345l0.485,1.652l0.053,0.131l-0.02,0.141l0.06,0.186l0.04,0.206l-0.08,0.206l-0.226,0.261l-0.055,0.129
		l-0.151,0.627l-0.06,1.187l-0.055,0.392l-0.276,0.591l-0.09,0.376l0.12,0.352l0.948-0.997l0.487-0.085l-0.105,0.25l-0.042,0.177
		l0.037,0.147l0.11,0.156l-0.181,0.452l0.07,0.281l0.582,0.567l0.104,0.08l0.082,0.093l0.045,0.165l-0.02,0.259l-0.095,0.107
		l-0.11,0.085l-0.055,0.193l-0.13,0.089l-0.723,0.905l-0.326,0.205l-0.677,0.258l-0.274,0.282l0.368,0.466l0.522-0.053l0.465-0.376
		l0.204-0.494l0.156-0.156l0.293,0.181l0.161,0.285l-0.253,0.147l-0.129,0.165l-0.032,0.381l-0.005,0.432l-0.134,0.179l-0.432,0.042
		l-0.194,0.055l-0.194-0.02l-0.221,0.052l-0.191,0.145l-0.442,0.41l-0.236,0.172l0.522,0.253l-0.221,0.36l-0.544,0.414l-0.445,0.424
		l0.398,0.148l0.455-0.146l0.418-0.281l0.284-0.266l0.055,0.634l-0.41,0.387l-1.004,0.47l0.164,0.117l0.124,0.175l0.077,0.23
		l-0.171-0.016l-0.351,0.034l-0.167-0.017l-0.018,0.348l0.018,0.361l0.666,0.022l0.32-0.053l-0.005,0.031l0.05,0.544l-0.395,0.419
		l-0.574,0.209l-0.482-0.086l0.062,0.402l0.248,0.151l0.669-0.009l-0.216,0.453l-0.423,0.281l-0.529,0.144l-0.529,0.043l0.356,0.369
		l0.982,0.759l0.092,0.319l-0.47,0.217l-1.131-0.391l-0.376,0.356l0.875,0.465l0.249,0.275l-0.232,0.098l-0.248,0.058l-0.254,0.022
		l-0.264-0.013v0.197l0.221,0.128l0.291,0.247l0.156,0.239l-0.171,0.109l-0.841-0.199l-0.825,0.123l-0.427-0.036l-0.368-0.267
		l0.01,0.385l0.112,0.305l0.161,0.283l0.139,0.308l-0.237-0.039l-0.197,0.045l-0.281,0.355l0.306,0.113l0.115,0.248l-0.075,0.247
		l-0.269,0.114l-0.268-0.099l-0.271-0.239l-0.224-0.295l-0.142-0.271l0.269-0.129l0.152-0.249l-0.875-0.04l-0.261,0.301l0.045,0.535
		l0.097,1.115l0.483,1.33l0.099,0.546l-0.442-0.327l-0.059-0.126l-0.074-0.358l-0.074-0.155l-0.11-0.069l-0.107,0.037l-0.129,0.074
		l-0.152,0.039l-0.395,0.006l-0.207,0.079l-0.084,0.241l-0.015,0.493l0.05,0.51l0.065,0.238l-0.047,0.18l-0.284,0.334l-0.878,0.679
		l-0.182,0.335l0.212,0.127l0.141,0.187l0.211,0.408l0.37,0.315l0.114,0.268l-0.127,0.398l-0.137,0.106l-0.109-0.08l-0.11-0.117
		l-0.129-0.006l-0.102,0.084l-0.256,0.373l-0.196,0.149l-0.51,0.177l-0.212,0.132l-0.363,0.295l0.002,0.155l0.221,0.27l0.233,0.115
		l0.967,0.064l0.06,0.168l-0.145,0.371l-0.212,0.37l-0.13,0.169l-0.912,0.733l0.329,0.321l0.328,0.412l0.321,0.18l0.298-0.373
		l0.269,0.41l0.11,0.389l-0.01,0.433l-0.089,0.545l-0.228-0.071l-0.156-0.147l-0.112-0.217l-0.08-0.265l-0.291,0.987l-0.117,0.251
		l0.119,0.078l0.052,0.085l0.034,0.096l0.064,0.115l-0.515,0.157l-0.236,0.128l-0.02,0.163l0.139,0.29l-0.008,0.228l0.015,0.215
		l0.206,0.25l0.236-0.199l0.398-0.072l0.395,0.109l0.236,0.342l-0.306-0.123l-0.284-0.018l-0.233,0.141l-0.161,0.357l0.493,0.304
		l0.084,0.534l0.01,0.566l0.268,0.401l-0.112,0.198l-0.246,0.714l-0.141-0.069l-0.562-0.574l-0.135-0.084l-0.301-0.013l-0.135-0.082
		l-0.07-0.186l0.07-0.159l0.085-0.142l-0.01-0.138l-0.191-0.205l-0.662-0.333l0.109-0.175l0.182-0.558l-0.239-0.234l-0.177-0.006
		l-0.184,0.073l-0.254,0.006l-0.244-0.083l-0.208-0.121l-0.46-0.441l-0.423-0.177l-0.59,0.029l-1.541,0.362l-0.557,0.218
		l-0.442,0.384l-0.181,0.625l0.059,0.601l-0.109,0.04l-0.361-0.006l-0.09-0.168l-0.326-1.102l-0.177,0.131l-0.177,0.049
		l-0.177-0.039l-0.167-0.141l-0.378,0.278l-0.303,0.374l-0.216,0.457l-0.114,0.516l0.199-0.111l0.231-0.031l0.196,0.086l0.09,0.234
		l-0.06,0.202l-0.166,0.141l-0.211,0.126l-0.196,0.158l-0.728,0.886l-0.604,0.99l-0.435,0.956l-0.843,3.163l-0.147,1.1l0.023,1.097
		l0.264,1.913l0.015,0.066l0.533,1.023l0.699,1.304l0.233,0.921l0.073,0.37l0.191,0.266l0.099,0.338l-0.005,0.525l-0.06,0.21
		l-0.201,0.348l-0.03,0.166l0.074,0.171l0.283,0.372l0.062,0.256l0.281,7.021l-0.117,0.839l-0.447,1.893l0.002,0.813l-0.137,0.341
		v2.397l-0.055,0.283l-0.353,0.853l-0.279,2.267l-0.289,0.915l-0.709,0.702l-0.176,0.063l-0.523,0.112l-0.672,0.466l-0.49,0.143
		l-0.306,0.362l-0.166,0.082l-0.162,0.134l-0.05,0.293l0.007,0.452l-0.102,0.27l-0.085,0.23l-0.851,1.348l-0.202,0.426l-0.987,3.857
		l-1.129,2.003l-0.316,0.861l-0.276,1.845l0.008,0.402l0.268,0.984l0.025,0.409l-0.162,0.658l-0.771,0.843l-0.314,0.552l0.048,0.95
		l0.245,2.162l0.648,1.677l0.743,2.078l2.945,5.194l0.853,1.206l0.223,0.472l0.224,0.124l0.142,0.055l0.114,0.044l0.191,0.111
		l0.105,0.221l-0.219,0.602l-0.167,0.227l-0.284-0.189l-0.137-0.231l-0.245-0.243l-0.517,0.116l-0.663,0.312l-1.03,0.368
		l-0.093-0.412l-1.135,0.257l-1.334,0.925l-2.316,2.176l-1.238,1.903l-0.767,2.766l0.393,1.312l0.166,0.698l-0.185,1.05
		l-0.108,0.941l-0.095,0.642l-0.34,0.509l-0.59-0.105l-0.379,0.572l0.063,0.388l-0.253,0.3l-0.367-0.076l-0.185-0.333l-0.318,0.368
		l-0.526-0.066l-0.328,0.558l-0.767-0.064l-0.916-0.078l-0.43-0.115l-0.589,0.629l-0.106,0.549l-0.52,0.414l-0.41,0.01l-0.707,0.513
		l-0.62,0.45l-0.214,0.326l-0.117,0.435l-0.222,0.357l0.012,0.418l-0.052,0.462l-0.2,0.323l-0.192,0.234l-0.342,0.283l-0.526,0.109
		l-0.367,0.043l-0.253-0.086l-0.305,0.057l-0.261,0.061l-0.102-0.118l-0.332-0.186l0.061-0.232l-0.037-0.34l-0.254-0.216
		l-0.658-0.266l-0.448-0.054l-0.094-0.212l0.007-0.278l0.258-0.017l0.376,0.056l0.223,0.02l0.289-0.068l0.245-0.13l0.137-0.221
		l0.271-0.02l0.377,0.105l0.141-0.094l0.092-0.221l-0.047-0.351l-0.241-0.188l-0.415-0.161l-0.023-0.255l0.237-0.236l0.07-0.281
		l-0.045-0.284l-0.192-0.477l-0.047-0.275l0.013-0.903l-0.359-0.565l0.065-0.325l-0.055-0.363l0.106-0.353l0.562-0.392l0.271-0.237
		l0.024-0.556l-0.37-0.642l0.021-0.55l-0.847-0.301l-0.534-0.219l-0.024-0.098l0.435,0.018l0.452-0.279l0.01-0.468l0.289-0.31
		l0.124-0.426l0.986,0.303l0.311-0.366l-0.011-0.342l-0.148-0.777l0.261-0.286l0.574-0.204l0.368-0.345l0.486-0.062l0.483-0.372
		l0.293-0.449l0.439-0.57l0.626-0.734l0.375,0.051l0.158-0.366l0.087-0.297l-0.327,0.007l-0.064-0.475l-0.07-0.455l-0.324-0.297
		l-0.333-0.39l-0.303-0.258l-0.492-0.475l-0.271,0.078l-0.25-0.303l-0.682-0.1l-0.614,0.266l0.392,0.637l-0.565,0.324l-0.306,0.246
		l-0.124-0.221l-0.241-0.049l-0.176-0.158l-0.136-0.02l-0.287-0.138l-0.144,0.218l-0.123,0.363l-0.275-0.212l-0.073-0.382
		l-0.278-0.004l-0.134,0.494l-0.229,0.389l-0.294-0.364l0.016-0.593l-0.213-0.314l-0.146,0.555l0.219,0.773l0.329,0.518l0.004,0.311
		l0.289,0.711l-0.25,0.324l0.025,0.351l-0.03,0.043l-0.166,0.245l-0.699,0.443l-0.626,0.494l-0.531,0.091l-0.438-0.172l-0.314,0.085
		l-0.192,0.261l0.409,0.196l0.377,0.204l0.141,0.157l-0.11,0.337l0.099,0.457l-0.253-0.003l-0.505-0.245l-0.292,0.225l0.131,0.332
		l0.31,0.289l-0.054,0.948l-0.102,0.322l0.012,0.41l-0.039,0.314l0.188,0.283l0.142-0.306l0.257,0.182l0.355,0.574l0.823,0.089
		l0.231,0.409l-0.401,0.394l0.07,0.1l0.033,0.086l0.027,0.084l-0.087,0.389l-0.806-0.052l-0.459,0.383l-0.121,0.394l0.206,0.459
		l0.201,0.261l0.097,0.23l-0.206,0.1l-0.221,0.041l-0.469-0.121l-0.333,0.197l-0.186-0.056l-0.099-0.2l0.095-0.268l-0.036-0.539
		l-0.257-0.699l0.456-0.246l-0.083-0.204l-0.321-0.113l-0.138-0.364l-0.578-0.759l-0.067-0.182l-0.115-0.273l-0.25-0.025
		l-0.089-0.503l-0.361,0.147l-0.41-0.054l-0.411,0.092l-0.406-0.322l-1.07-0.139l-1.744,0.361l-0.986,0.208l-1.001,0.274
		l-1.024,0.555l-0.772,0.706l-0.073,1.288l0.321,1.196l-0.766-0.347l-0.664,1.01l-0.241,0.878l-0.018,0.55l0.619,0.095l-0.087,0.473
		l-0.096,0.478l-0.217,0.356l0.289,0.566l0.619,0.241l0.244,0.573l0.117,0.932l-0.152,0.866l-0.444,0.079l-0.416,0.282l-0.22,0.347
		l-0.09,0.348l-0.189,0.485l-0.323,0.41l-0.152,0.37l-0.179,0.256l-0.342,0.083l-0.151,0.249l-0.165,0.192l-0.251,0.334l0.079,0.286
		l-0.114,0.17l-0.171,0.341l-0.065,0.453l0.04,0.463l0.125,0.373l-0.231,0.134l-0.201-0.034l-0.161-0.168l-0.494-0.214l-0.922,0.801
		l-0.72,0.388l-0.527,0.44l-0.314-0.161l-0.288-0.283l-0.232-0.315l-0.479-0.525l0.133-0.4l-0.08-0.191l-0.146-0.131l-0.16-0.056
		l-0.146-0.091l-0.11-0.235l-0.013-0.443l-0.04-0.493l0.252-0.215l0.115-0.27l0.256-0.075l-0.319-0.786l-0.219-0.764l0.201-0.413
		l0.089-0.419l-0.04-0.066l0.005-0.509l-0.137-0.253l0.188-0.364l0.283-0.272l0.268-0.049l-0.233-0.382l-0.094-0.241l-0.211-0.612
		l-0.037-0.598l0.306-0.583l0.191-0.584l0.832,0.071l0.592,0.115l0.405-0.027l0.384,0.002l0.283-0.268l-1.113-1.194l-0.306-0.535
		l-0.724-0.562l-1.215-0.325l-0.987-0.104l-0.669,0.297l-0.542,0.28l-1.038,0.041l-0.672,0.46l-0.543,1.137l-0.612,0.458
		l-0.062,0.799l0.249,0.242l0-0.522l0.287-0.188l0.219,0.062l-0.356,0.922l-0.944,0.529l-0.794,0.359l-0.601,0.307l-0.686,0.381
		l-0.283,0.331l-0.133,0.399l-0.214,0.353l-0.167,0.471l0.037,0.248l0.221,0.474l-0.307,0.465l-0.226,0.239l-0.445,0.816
		l-0.899,0.669l-0.689,0.669l-0.294,1.304l-0.166,0.465l0.151,0.498l0.496,0.132l0.314,0.343l-0.145,0.199l-0.886-0.166
		l-2.938-1.334l-1.637-0.297l-1.537-0.029l-2.068,0.707l-2.233-0.784l-1.818-0.161l-0.988-0.003l-2.455,0.238l-1.806,0.507
		l-4.09,1.453l-0.923-0.098l-1.048,0.315l-0.274,0.03l-0.317,0.016l0.154-0.299l0.124-0.181l0.264-0.489l0.2-0.73l0.424-0.445
		l0.581,0.636l0.07,0.178l0.13,0.165l0.161-0.207l0.048-0.099l0.329-0.198l0.332-0.143l0.298-0.134l0.612-0.431l0.898-0.569
		l0.382-0.187l0.463-0.676l0.328,0.074l0.03,0.534l-0.082,0.391l0.16,0.044l0.134-0.429l-0.014-0.477l0.48,0.133l0.169-0.155
		l-0.585-0.253l0.174-0.465l0.072-0.29l-0.057-0.164l-0.485-0.596l-0.369-0.273l-0.277,0.124l-0.425-0.163l-0.472-0.166
		l-0.311,0.343l-0.273-0.111l-0.074,0.458l-0.043,0.465l-0.368,0.156l0.013-0.505l-0.288,0.072l-0.348-0.166l-0.39-0.013
		l-0.413,0.094l-0.288,0.214l-0.303-0.224l-0.463,0.184l-0.439-0.064l-0.217-0.078l-0.328-0.478l-0.137-0.143l-0.39-0.436
		l-0.378-0.171l0.086-0.642l0.415-1.009l-0.077-0.651l-0.192,0.316l-0.261,0.671l-0.376,0.597l-0.154,0.365l-0.108,0.454
		l-0.209,1.309l0.227,0.309l0.219,0.44l0.522,0.277l0.189,0.539l-0.007,0.425l-0.537-0.051l-0.662-0.31l-0.721-0.441l-0.455-0.282
		l-0.234-0.319l-0.035-0.413l0.208-0.463l0.081-0.43l0.16-0.42l-0.01-0.375l-0.164-0.5l-0.264-0.367l-0.323-0.02l-0.098-0.593
		l-0.024-0.598l0.01-0.471l0.025-0.415l0.202-0.432l0.216-0.436l0.269-0.466l0.184-0.443l0.287-0.456l0.06-0.683l0.06-0.456
		l-0.286-0.105l-0.303,0.794l-0.168,0.56l-0.097-0.535l-0.02-0.359l-0.268-0.095l0.189,1.163l-0.541,0.129l-0.083-0.538
		l-0.195,0.007l-0.032,0.615l-0.399,0.092l-0.548-0.144l-0.144,0.068l-0.395-0.096l-0.913,0.661l-0.452,0.426l-0.191,0.378
		l-0.025,0.158l-0.105,0.236l-0.023,0.129l0.049,0.143l0.347,0.047l-0.331,0.269l0.056,0.456l-0.184,0.565l-0.477,0.891l-1.05,1.337
		l-0.618,0.862l-0.156,1.111l-0.117,0.488l-0.043,0.522l0.043,0.119l0.217,0.399l0.084,0.087l0.207,0.127l-0.015,0.293l-0.092,0.342
		l-0.023,0.262l0.226,0.342l0.351,0.14l0.903,0.012l0.43,0.119l0.325,0.284l0.284,0.343l0.298,0.292l1.546,1.021l1.054,0.451
		l0.224,0.23l0.216-0.085l0.286,0.007l0.276,0.09l0.202,0.158l0.139,0.295l0.038,0.262l0.057,0.243l0.201,0.237l0.268,0.104
		l0.219-0.031l0.186,0.016l0.171,0.249l0.03,0.276l-0.186,0.915l-0.249-0.125l-0.238-0.03l-0.204,0.088l-0.162,0.237l0.095,0.164
		l0.151,0.141l0.206,0.078l0.261-0.027l-0.32,0.307l-0.117,0.163l-0.11,0.195l0.164,0.264l0.134,0.416l0.05,0.459l-0.094,0.389
		l-0.199,0.161l-0.723,0.278l-0.316,0.071l-0.348-0.03l-0.5-0.137l-0.391-0.217l-0.035-0.279l0.298-0.107l0.438,0.088l0.418,0.182
		l0.248,0.176l-0.042-0.164l-0.032-0.231l-0.054-0.129l0.268,0.184l0.159-0.524l-0.201-0.333l-0.391-0.121l-0.41,0.113l0.048,0.168
		l-0.002,0.079l-0.029,0.082l-0.018,0.181l-0.699-0.51l-0.346,0.293l-0.632,0.127l-0.477-0.103l0.115-0.394l0.311-0.505
		l-0.341-0.075l-0.627,0.197l-0.542,0.306l0.375,0.113l-0.023,0.29l-0.251,0.296l-0.656,0.284l-0.305,0.249l-0.319,0.048
		l-0.38-0.444l-0.12,0.154l-0.087,0.065l-0.05,0.083l-0.02,0.222l-0.569-0.304l-0.204-0.035l-0.107,0.296l-0.114,0.225l-0.13,0.144
		l0.184,0.413l-0.244,0.018l-0.642-0.246l-0.913,0.626l-0.221,0.237h-0.662l-0.979,0.503l-0.775,0.739l-0.04,0.71l0.233,0.195
		l0.166,0.087l0.053,0.136l-0.114,0.344l-0.104,0.122l-0.167,0.108l-0.187,0.079l-0.159,0.03l-0.212-0.113l-0.254-0.479
		l-0.166-0.086l-0.13,0.124l-0.331,0.533l-0.241,0.173v0.187l0.299-0.004l0.221,0.09l0.137,0.194l0.045,0.32l0.371,0.38l0.186,0.268
		l-0.065,0.122l-0.042,0.14l0.017,0.664l-0.045,0.212l-0.299,0.137l-0.233-0.139l-0.179-0.272l-0.132-0.264l-0.271,0.297
		l-0.291,0.241v0.153l0.467,0.087l0.147,0.33l-0.127,0.249l-0.358-0.158l-0.099,0.442l-0.152,0.15l-0.701,0.117l-0.089,0.069
		l-0.161,0.177l-0.207,0.312l-0.115,0.076l-0.231,0.025l-0.432-0.046l-0.728,1.098l-1.074,2.798l-0.48,1.177l-0.065,0.092
		l-0.202,0.73l-0.393,0.258l-0.089,0.415l-0.416,0.204l0.034,0.334l0.434,0.268l-0.284,0.377l-0.689,0.743l-0.377,0.149
		l-0.194,0.312l-1.166,0.379l-0.388,0.212l-0.23,0.243l-0.309,0.549l0.149,0.48l-0.02,0.304L344.711,353l-0.247,0.285l-0.127-0.449
		l0.348-0.41l-0.107-0.328l-2.001-0.22l-0.631-0.102l-3.017-1.149l-0.944-0.237l-0.733-0.576l-0.24-0.207l-0.209-0.283l-0.01-0.34
		l0.114-0.273l-0.239-0.45l-0.117-0.149l-0.115-0.045l-0.221-0.228l-0.343-0.074l-0.293-0.345l0.313-0.561l0.745-0.104l0.476-0.074
		l-0.221-0.308l-1.044-0.784l-0.4-0.188l-0.191-0.312l-0.372,0.045l-0.61-0.435l-0.653-0.017l-0.056-0.409l-0.686-0.401
		l-0.475-0.583l-0.423-0.929l-0.7-0.423l-0.382,0.077l-0.713,0.106l-0.135,0.137l0.05-0.244l0.107-0.162l-0.188-0.121l0.141-0.117
		l0.306,0l-0.023-0.31l-0.173-0.3l0.312-0.286l0.339-0.303l-0.128-0.105l-0.363-0.007l-0.033-0.459l0.334-0.361l0.437-0.034
		l0.301-0.129l0.519-0.276l0.174-0.377l0.023-0.366l-0.199-0.219l-0.406-0.241l-0.457-0.185l-0.341-0.047l0.42-0.848l0.05-0.04
		l0.167-0.068l0.065-0.061l0.038-0.115l0.002-0.227l-0.16-0.365l0.533-0.024l0.786,0.053l0.06-0.34l-0.211-0.403l-0.285-0.519
		l-0.351,0.027l-0.274-1.046l-0.325-0.361l-0.554-0.44l-0.65-0.184l0.211-0.461l0.693-0.804l2.137-0.601l0.978-0.858l0.508-0.515
		l0.789-0.781l0.694-0.965l0.392-0.425l0.035-0.58l-0.022-0.279l0.366-0.118l0.167-0.232l0.189-0.201l0.125-0.428l0.018-0.545
		l0.011-0.74l-0.174-0.614l-0.077-0.617l0.192-0.829l-0.316,0.147l-0.336,0.124l-0.369-0.195l-0.452-0.486l-0.489,0.039
		l-0.629,0.038l0.009,0.637l-0.693,0.074l0.026-0.598l-0.716,0.253l0.458,1l-0.646-0.111l-0.133-0.552l-0.378,0.059l-0.042,0.594
		l-1.494,0.269l-0.653,0.315l-0.694,0.07l-0.595-0.429l-0.773,0.029l-0.39-0.065l-0.478-0.593l-0.604-0.256l-0.396-0.347
		l-1.131-0.748l-0.676-0.238l-0.783-0.652l-0.37-0.239l-0.989-0.241l-2.66,0.241l-0.144-0.044l-0.112-0.084l-0.11-0.041
		l-0.132,0.082l-0.099,0.086l-0.13,0.086l-0.135,0.062l-0.12,0.023l-0.271-0.031l-0.206-0.09l-0.11-0.202l0.015-0.362l-0.137,0.044
		l-0.13,0.084l-0.104,0.127l-0.037,0.172l-0.027,0.205l-0.062,0.02l-0.092-0.026l-0.114,0.058l-0.527,0.732l-0.176,0.122
		l-0.291-0.017l-0.216-0.131l-0.176-0.147l-0.171-0.061l-0.266,0.096l-0.219,0.216l-0.114,0.278l0.037,0.278l-0.562,0.02
		l-1.034-0.273l-0.587-0.073l-0.557-0.258l-0.246,0.011l0.166,0.403l0.207,0.1l1.067,0.242l-0.161,0.049l-0.398,0.063l-0.141,0.057
		l-0.418,0.595l-0.087,0.104l-0.164,0.054l-0.328,0.234l-0.371,0.079l-0.156,0.071l-0.316,0.228l0.141,0.116l0.167,0.037
		l0.194-0.039l0.201-0.114l-0.251,0.56l-0.602,0.436l-0.718,0.284l-0.604,0.103l-0.294-0.108l-0.452-0.469l-0.381-0.106
		l-0.708,0.004l-0.311,0.07l-0.522,0.322l-0.353,0.144l-0.238,0.234l0.089,0.418l0.269,0.149l0.304-0.233l0.549-0.615l0.343-0.135
		l0.381-0.059l0.336,0.085l0.216,0.297l-0.01,0.44l-0.251,0.285l-0.326,0.22l-0.256,0.245l0.052,0.083l0.02,0.049l0.069,0.211
		l-0.592-0.213l-0.341,0.554l-0.261,0.813l-0.361,0.563l-1.587-0.29l-0.766,0.018l0.095,0.613l-0.657-0.134l-0.286-0.509
		l-0.239-0.615l-0.515-0.445l-0.144,0.086l-0.13-0.115l-0.097-0.236l-0.048-0.278l-0.141,0.187l-0.341-0.146l-0.306,0.146
		l-0.321,0.232l-0.592,0.227l-0.913,0.483l-0.206,0.164l-0.059,0.176l-0.137,0.134l-0.161,0.085l-0.378,0.072l-0.147,0.098
		l-0.107,0.113l-0.124,0.088l-1.275,0.524l0.806-0.95l0.271-0.522l-0.438-0.227l-0.224,0.065l-0.447,0.314l-0.246,0.116
		l-0.539-0.015l-0.231,0.126l-0.089,0.416L296.412,328.22z M511.706,69.491l0.314,0.168l0.933,0.008l0.383,0.107l-0.728,0.261
		l-0.903-0.194l-1.701-0.645l0.08-0.206l0.383-0.009l0.478,0.091l0.452,0.174L511.706,69.491z M550.161,91.435l0.259,0.035
		l0.682,0.211l0.241,0.141l-0.132,0.259l-0.169,0.104l-0.462,0.006l-0.209,0.122l-0.361,0.545l-0.271,0.121l-0.79,0.18l-0.196,0.119
		l-0.306,0.335l-0.226,0.066l-0.601-0.121l-0.303,0.069l-0.161,0.179l-0.12,0.252l-0.186,0.29l-0.547,0.542l-0.156,0.227
		l-0.125,0.308l-0.181,0.696l-0.115,0.328l-0.127,0.22l-0.586,0.76l0.278,0.173l-0.241,0.068l-0.413-0.041l-0.422-0.118
		l-0.532-0.333l-0.35,0.052l-0.644,0.2l-2.088,0.042l-0.457,0.239l-0.452,0.438l-0.559,0.236l-1.584,0.249l-0.321,0.116
		l-0.266,0.228l-0.127,0.393l0.07,0.504l0.261,0.11l0.345-0.009l0.329,0.147l-0.189,0.251l-0.202,0.118l-0.784,0.076l-0.064,0.119
		l-0.03,0.182l-0.147,0.233l-0.485,0.299l-0.502,0.025l-0.99-0.324l0.393,0.683l0.109,0.309l-0.079,0.367l-0.192,0.191l-0.291,0.094
		l-1.365,0.222l-0.699-0.034l-0.636-0.253l-0.55-0.525l-0.032-0.274l0.054-0.35l-0.06-0.302l-0.383-0.127l-0.236-0.021l-0.13-0.031
		l-0.104-0.007l-0.161,0.058l-0.144,0.132l-0.221,0.368l-0.141,0.076l-0.179,0.151l-0.209,0.355l-0.171,0.416l-0.072,0.334
		l0.121,0.4l0.286,0.304l0.326,0.267l0.251,0.285l-0.853,0.296l-2.936-0.699l-1.591,0.142l-0.532,0.304l-0.637-0.107l-1.526-0.544
		l-0.174-0.142l-0.187-0.226l-0.094-0.242l-0.074-0.32l-0.141-0.278l-0.264-0.12l-0.457,0.031l-2.875,0.737l-2.901,1.399
		l-3.198,2.311l-1.975,2.435l-3.113,2.691l-1.308,1.613l-2.613,4.137l-2.037,3.781l-0.355,1.165l-0.141,1.32l0.238,1.574l0.03,0.632
		l-0.04,0.568l-0.1,0.632l-0.567,2.246l-0.229,0.57l-0.552,0.511l-0.258,1.24l-0.234,0.382l-0.318-0.117l-0.472-0.375l-0.426-0.434
		l-0.186-0.291l-0.206-0.505l-0.47-0.556l-0.518-0.484l-3.197-2.143l-4.153-1.469l-4.342-2.557l-1.776-0.576l-3.678-2.647
		l-1.209-1.259l-1.119-1.339l-2.162-0.303l-1.678-1.101l-1.131-1.348l-0.341-0.193l-0.435-0.119l-1.46-0.833l-1.872-0.491
		l-1.842,0.039l-1.786,0.409l-2.504,1.026l-3.397,2.681l-0.572,0.266l-0.402,0.394l-0.242,0.088l-0.249,0.028l-0.236,0.08
		l-0.226,0.116l-1.586,1.155l-0.376,0.408l-1.161,1.697l-0.324,0.313l-0.231,0.095l-0.256,0.05l-0.259-0.024l-0.252-0.121
		l-0.136-0.15l-0.181-0.265l-0.11-0.25l0.09-0.11l0.81,0.171l0.179-0.069l0.055-0.3l-0.251-0.189l-0.569-0.183l-0.42-0.333
		l-0.176-0.205l-0.12-0.223l-0.221-1.121l-3.447-3.995l-0.974-0.419l-0.48-0.018l-1.347,0.226l-1.475-0.249l-0.513,0.041
		l-0.887,0.416l-0.833,0.729l-0.743,0.923l-1.139,2.014l-0.442,1.109l-0.316,1.191l-0.146,1.26l0.211,1.257l0.614,0.712l2.106,1.156
		l0.664,0.533l1.519,1.7l0.381,0.173l0.475-0.064l0.784-0.271l1.315-0.123l0.393-0.114l0.418-0.203l1.234,0.867l0.323,0.766
		l0.982,1.409l0.341,0.343l0.783,0.545l0.343,0.348l1.353,1.801l0.368,0.32l0.398,0.233l0.455,0.138l0.532,0.045l0.487,0.124
		l0.487,0.3l1.559,1.475l0.353,0.52l-0.206,0.236l-0.953,0.141l-0.452,0.177l-0.361,0.247l-1.248,1.282l-0.759,0.323l-0.953-0.271
		l-1.761-0.999l-1.034-0.343l-1.005,0.008l-0.927,0.563l-0.452,0.122l-0.194-0.394l0.167-0.394l0.323-0.255l0.226-0.284
		l-0.127-0.488l-0.375-0.36l-0.497-0.152l-0.502,0.076l-0.386,0.332l-0.211,0.49l-0.321,1.174l-0.236,0.508l-1.223,0.652
		l-0.204,0.202l-0.234,0.181l-1.097,0.316l-0.353,0.169l-0.403,1.001l0.204,2.226l-0.223,0.903l-0.652,0.489l-2.589,0.841
		l-0.311,0.265l-0.376,0.425l-0.316,0.529l-0.13,0.569l-0.216,0.441l-0.492-0.074l-0.978-0.471l-0.219,0.013l-0.351,0.154
		l-0.192,0.037l-0.246-0.09l-0.522-0.398l-0.224-0.09l-0.284-0.217l-0.207-0.517l-0.291-1.138l-0.624-1.582l-0.079-0.584l0.09-0.589
		l0.395-0.866l0.331-1.714l1.06-1.742l0.244-1.118l0.09-0.12l0.452,0.047l0.171-0.03l0.186-0.263l0.062-0.254l0.033-0.615
		l-0.015-0.165l-0.129-0.236l-0.01-0.163l0.08-0.134l0.147-0.12l0.207-0.122l0.043-0.325l0.017-0.447l0.077-0.172l-0.134-0.438
		l-0.114-0.527l-0.025-0.52l0.135-0.418l-0.682-0.788l-1.044-1.907l-0.688-0.707l-2.057-0.925l-0.373-0.49l-0.023-0.118
		l-0.105-0.132l-0.4-0.815l-0.191-0.137l-0.636-0.241l-0.927-0.759l-0.224-0.302l-0.202-0.677l-0.206-1.107l0.097-0.542l0.249-0.566
		l0.858-1.425l0.217-0.608l0.264-1.265l-0.007-1.25l-0.34-2.083l0.219-1.065l0.689-1.019l0.828-0.387l1.989-0.122l0.49-0.124
		l0.329-0.228l0.855-1.109l0.199-0.148l0.212-0.084l0.249-0.025l0.171-0.116l0.172-0.276l0.524-1.088l0.279-0.402l0.35-0.114
		l0.463,0.363l0.47,0.795l0.308,0.335l0.427,0.104l0.447-0.349l0.137-0.658l0.038-0.638l0.151-0.287l0.376-0.221l0.301-0.528
		l0.515-1.145l0.328-0.413l1.4-1.414l0.863-0.594l0.37-0.456l0.122-0.539l-0.211-0.408l-0.306-0.443l-0.156-0.642l-0.146-0.398
		l-0.988-1.445l-0.681-0.738l-0.785-0.645l-0.614-0.773l-0.179-1.134l0.632-2.103l1.015,0.014l0.502-0.106l0.39-0.294l0.109-0.258
		l0.062-0.3l0.08-0.268l0.169-0.157l0.284,0.035l0.258,0.204l0.217,0.231l0.161,0.108l0.351,0.15l1.763,1.319l0.368,0.348
		l0.616,0.806l0.42,0.338l1.484,0.703l0.202,0.224l0.309,0.42l0.202,0.145l0.283,0.086l2.111-0.33l1.556-0.644l0.472-0.056
		l0.228,0.147l-0.207,0.374l-0.161,0.492l0.361,0.509l0.217,0.076l0.766,0.098l0.843,0.357l0.507,0.107l0.432,0.265l0.259,0.061
		l0.373-0.018l0.279-0.06l0.549-0.306l1.571-1.205l1.375-1.508l0.547-0.819l0.532-1.077l0.345-1.24l-0.008-1.303l-0.261-0.758
		l-1.154-1.772l-0.226-0.75l0.053-0.561l0.248-0.487l0.346-0.526l-0.383-1.111l-0.179-0.264l0.06-0.534l-0.473-1.246l-0.134-0.644
		l0.127-0.531l0.299-0.691l0.552-1.011l0.351-0.35l0.467-0.313l0.477-0.225l0.875-0.138l0.4-0.15l0.373-0.246l1.163-0.975
		l0.637-0.78l0.512-1.003l0.376-1.31l0.169-1.18l0.062-1.188l-0.303-6.026l0.211-1.028l1.676-3.206l0.915-4.98l0.089-1.292
		l-0.259-3.575l-0.614-3.48l-0.652-2.023l-2.783-6.088l-0.238-1.239l0.182-1.293l0.122-0.205l0.415-0.516l0.164-0.277l0.097-0.31
		l0.043-0.278l0.062-0.26l0.442-0.778l0.02-0.478l-0.229-0.925l-0.04-0.453l0.049-0.488l0.176-0.471l0.365-0.387l0.238,0.179
		l0.13,0.238l0.055,0.312l0.01,0.387l0.11,0.293l0.253,0.006l0.478-0.199l0.954-0.118l1.01-0.282l0.706-0.521l0.223-0.079
		l0.142-0.151l0.039-0.352v-0.401l0.03-0.298l0.313-0.484l0.525-0.449L471.594,30l0.318,0.298l0.351,0.864l0.206,0.36l0.293,0.148
		l0.328,0.227l0.8,1.572l0.82,0.87l1.78,1.354l0.783,0.771l6.539,8.196l1.541,3.329l0.338,0.584l0.719,0.496l0.994,1.751
		l3.976,4.595l0.664,0.367l0.856,1.392l1.26,0.911l1.556,1.673l1.768,1.43l0.42,0.138l0.326,0.176l0.778,0.869l0.376,0.33
		l0.888,0.234l0.232,0.158l0.351,0.853l0.013,0.147l0.562,0.67l0.181,0.158l3.024,1.865l4.608,1.814v0.198l-1.671-0.215
		l-0.306,0.215l0.095,0.184l0.492,0.518l0.115,0.187l0.281,1.085l0.209-0.129l0.082-0.084l0.301,0.308l0.259,0.184l0.278,0.089
		l3.011,0.049l0.166,0.072l0.582-0.677l0.353-0.283l0.328-0.115l2.469,0.141l0.694,0.338l0.383,0.322l-0.003,0.094l-0.264,0.059
		l-0.376,0.219l-0.279,0.368l-0.438,1.39l0.676,0.311l0.298,0.024l0.291-0.158l0.217-0.282l0.229-0.431l0.182-0.484l0.074-0.437
		l0.286-0.83l0.572-0.221l0.422,0.326l-0.156,0.813l0.256,0.859l0.206,0.361l0.316,0.149l0.176,0.213l0.336,0.941l0.189,0.211
		l0.181,0.1l0.88,0.68l0.328,0.16l0.721,0.237l2.875,0.507l3.498,0.29l0.979-0.204l0.887-0.583l2.392-2.625l1.843-2.184l0.231-0.336
		l1.455-0.926l0.974-1.032l0.375-0.142l0.345-0.296l0.999-1.894l0.811-0.778l0.411-0.501l0.177-0.574l0.09-0.157l0.191-0.125
		l0.194,0.018l0.164,0.561l0.365,0.664l0.12,0.306l-0.025,1.247l-0.452,1.066l-1.219,1.638l-0.234,0.589l-0.204,1.397l-0.181,0.451
		l-1.867,2.404l-0.52,0.924l-0.452,1.024l-0.333,1.035l0.202,0.522l-0.125,0.584l-0.234,0.545l-0.191,0.629l-0.298,0.418
		l-0.067,0.326l0.017,0.372l0.05,0.222l0.848,1.903l0.291,0.434l1.33,1.446l0.261,0.392l0.226,0.489l0.159,0.564l0.057,0.616
		l0.067,0.23l0.299,0.269l0.109,0.458l0.253,0.698l0.542,2.388l0.43,1.091l0.699,0.963l0.984,0.772l-0.656,0.11l-1.285-1.124
		l-0.599-0.145l-0.196,0.221l-0.045,0.324l0.127,0.293l0.325,0.128l0.366,0.083l0.35,0.179l0.117,0.196l-0.341,0.121l0.358,0.435
		l0.606,0.306l0.669,0.181l1.743,0.17l0.483,0.238l0.517,0.44l0.1-0.344l-0.177-0.216l-0.248-0.23l-0.097-0.384l0.134-0.197
		l0.776-0.681l0.852-0.963l0.259-0.2l0.534-0.145l0.266-0.147l0.134-0.186l0.07-0.201l0.112-0.194l0.256-0.171l0.294-0.061
		l0.97,0.061l0.174-0.062l0.263-0.276l0.122-0.066l0.139,0.028l0.09,0.066l0.062,0.069L550.161,91.435z M98.935,565.948l0.411-0.084
		l0.768,0.121l0.789,0.239l0.492,0.272l0.033,0.588l-0.422,0.781l-0.873,1.096l-0.448,0.028l-2.168-0.547l-1.281-0.092l-0.313-0.255
		l0.319-0.606l0.08,0.067l0.067,0.038l0.146,0.064l0.186-0.286l0.216,0.113l0.241,0.179l0.269-0.09l0.117-0.222l0.105-0.787
		l0.249-0.827l0.032-0.187l0.062-0.202l0.144-0.031l0.166,0.083l0.131,0.146L98.935,565.948z M82.243,564.084l0.283,0.102
		l0.038,0.237l-0.147,0.262l-0.261,0.185l-0.217-0.085l-0.828,0.085l-0.182-0.107l-0.01-0.239l0.132-0.258l0.226-0.155l0.254,0.044
		L82.243,564.084z M109.509,561.616l0.065,0.283l-0.11,0.222l-0.162,0.184l-0.204,0.411l-0.723,1.06l-0.276,0.964l-0.136,0.981
		l-0.248,0.859l-0.616,0.6l-0.718,0.093l-0.754-0.203l-0.371-0.419l0.428-0.549l-0.216-0.16l-0.079-0.261l-0.124-0.243l-0.35-0.108
		l-0.351-0.064l-0.221-0.147l0.01-0.159l0.346-0.091l0.134-0.16l0.217-0.379l0.08-0.093l0.266-0.043l0.079,0.121l0.03,0.164
		l0.112,0.081l0.166,0.154l0.176,0.107l0.232,0.048l0.482-0.011l0.224-0.05l0.201-0.107l0.216-0.317l0.162-0.41l0.204-0.355
		l0.336-0.153l0.243-0.2l0.662-1.343l0.284-0.394l0.141-0.067L109.509,561.616z M459.523,556.955l0.159,0.269l-0.169,0.098
		l-0.301,0.029l-0.248,0.068l-0.211,0.238l-0.365,0.549l-0.268,0.167l0.005-0.753l0.059-0.309l0.141-0.272l0.251-0.134l0.381-0.052
		l0.365,0.022L459.523,556.955z M131.257,557.123l0.358,0.086l0.445,0.216l0.381,0.274l0.161,0.267l-0.177,0.175l-0.422,0.112
		l-0.816,0.12l-1.73,0.029l-0.84-0.175l-0.04-0.414l0.095-0.275l0.256-1.271l0.017-0.825l-0.077-0.258l-0.221-0.394l0.045,0.019
		l0.246,0.048l0.221,0.111l0.104,0.078l0.087,0.099l0.161,0.272l0.246,0.627l0.152,0.295l0.104,0.139l0.649,0.637l0.15,0.061
		L131.257,557.123z M251.869,532.272l0.452,0.379l-0.136,0.108l-0.13,0.167l-0.1,0.208l-0.04,0.231l-0.1,0.184l-0.226,0.007
		l-0.221-0.067l-0.383-0.168l0.013-0.283l0.174-0.325l0.306-0.374l0.102-0.083l0.124-0.027L251.869,532.272z M160.503,521.355
		l0.005,0.215l-0.06,0.228l-0.109,0.207l-0.131,0.147l-0.042,0.097l0.028,0.091l0.002,0.076l-0.129,0.049l-0.134-0.024l-0.144-0.092
		l-0.11-0.13l-0.045-0.146l-0.162-0.318l-0.38-0.167l-0.442-0.121l-0.336-0.19l-0.12-0.315l0.186-0.232l0.346-0.157l0.371-0.086
		l0.214-0.022l0.365,0.062l0.355,0.182l0.294,0.285L160.503,521.355z M476.695,514.598l-0.243,0.042l-0.12,0.128l-0.01,0.197
		l0.105,0.259l-0.417-0.304l-0.43-0.701l-0.569-1.35l0.13-0.013l0.097,0.03l0.194,0.125l0.08,0.191l0.154,0.103l0.211,0.036
		l0.254-0.015v0.156l-0.238,0.185l0.027,0.169l0.209,0.109l0.296,0.008v0.171l-0.095,0.077l-0.015,0.039l0.005,0.056l-0.048,0.128
		l0.187-0.084l0.09-0.017l0.06,0.078L476.695,514.598z M191.902,511.126l-0.089,0.09l-0.064,0.133l-0.008,0.159l0.09,0.169
		l0.07,0.201l-0.089,0.176l-0.134,0.142l-0.07,0.102l-0.281,0.572l-0.018,0.079l0.018,0.3l-0.033,0.089l-0.08-0.01l-0.087-0.029
		l-0.069,0.029l-0.662,1.125l-0.433,0.44l-0.539,0.176l-0.923,0.05l-0.274,0.108l-0.149,0.146l-0.181,0.246l-0.156,0.268
		l-0.065,0.203l0.06,0.076l0.12,0.028l0.1,0.076l-0.012,0.214l-0.07,0.173l-0.07,0.059l-0.109,0.019l-0.5,0.185l-0.378,0.057
		l-0.385-0.031l-0.323-0.149l-0.402,0.532l-1.074,1.122l-0.249,0.151l-0.248,0.023l-0.186,0.095l-0.075,0.357l-0.144,0.078
		l-1.432,0.008l-0.221,0.041l-0.167,0.101l-0.264,0.367l0.085,0.178l0.241,0.103l0.206,0.149l0.104,0.299l0.074,0.657l0.1,0.297
		l0.217,0.293l0.438,0.368l0.201,0.308l-0.371,0.106l-0.406-0.132l-0.423-0.199l-0.425-0.104l-0.258,0.176l-1.044,1.9l-0.134,0.386
		l-0.054,0.432l0.144,0.287l0.331-0.008l0.378-0.085l0.281,0.056l-0.192,0.477l-0.356,0.6l-0.435,0.411l-0.428-0.081l-0.271,0.222
		l-0.336,0.596l-0.313,0.119h-1.201l0.11-0.856l-0.435-1.593l0.047-0.536l0.417,0.055l0.396-0.419l0.306-0.587l0.156-0.455
		l0.371,0.047l0.268-0.351l0.161-0.455l0.057-0.259l-0.067-0.48l-0.293-1.009l-0.075-0.483l0.037-0.538l0.181-0.229l0.338-0.045
		l0.686,0.014l0.259-0.034l0.236-0.112l0.1-0.239h0.075l0.309-0.576l0.037-0.123l0.693-0.396l0.79-0.247l0.716-0.361l0.467-0.735
		l0.045-0.411l-0.134-0.295l-0.314-0.177l-0.952-0.156l-0.179-0.251l-0.017-0.356l0.02-0.41l-0.161-0.761l0.007-0.182l0.147-0.036
		l0.709,0.036l0.918-0.061l0.467,0.097l0.286,0.292l-0.035,0.194l-0.144,0.197l-0.082,0.237l0.145,0.316l0.181,0.103l0.216-0.002
		l0.873-0.228l1.104-0.673l-0.161-0.396l0.166-0.281l0.843-0.646l0.095-0.129l0.102-0.461l0.149-0.093l0.142-0.031l0.069-0.077
		l0.176-0.337l0.779-0.471l0.179-0.299l0.08-0.425l0.326-0.737l0.013-0.504l1.569,1.679L191.902,511.126z M476.695,504.329
		l0.274-0.124l0.294-0.028l0.254,0.093l0.161,0.231l-0.132,0.791l-0.331,0.224l-0.41-0.248l-0.378-0.623l0.702,0.33l-0.075-0.208
		l-0.105-0.188l-0.124-0.15L476.695,504.329z M199.364,495.933l0.037,0.074l0.007,0.02l0.013,0.007l0.07,0.042l-0.191,0.299
		l-0.572,0.339l-0.288,0.254l-0.314,0.59l-0.201,0.208l-0.258-0.093l-0.104,0.356l-0.172,0.058l-0.191-0.049l-0.166,0.043
		l-0.266,0.202l-0.299,0.06l-0.298-0.07l-0.266-0.192l-0.115-0.228l-0.035-0.296l0.02-0.289l0.055-0.215l0.104-0.204l0.094-0.055
		l0.167-0.006l0.308-0.058l0.796,0.117l0.381-0.006l0.338-0.189l0.311-0.253L199.364,495.933z M205.286,487.667l0.221,0.193
		l0.281,0.176l0.236,0.213l0.102,0.298l-0.11,0.388l-0.493,0.67l-0.221,0.471l-0.271,0.278l-0.321,0.226l-0.281,0.102l-0.361-0.124
		l-0.156-0.33l-0.054-0.34l-0.06-0.158l-0.448-0.136l-0.075-0.318l0.172-0.642l-0.418-1.284l0.11-0.281l0.087-0.379l0.124-0.887
		l0.11-0.107l0.315-0.103l0.654-0.321l0.38,0.46l0.243,1.342L205.286,487.667z M211.613,480.488l0.594-0.091l0.448,0.386
		l0.064,0.476l-0.544,0.184l-0.361-0.362l-0.06-0.044l-0.055-0.105l-0.116,0.034l-0.095,0.091l-0.003,0.052l0.007,0.096
		l-0.109,0.171l-0.129,0.102l-0.062-0.115l-0.052-0.03l-0.199-0.303l-0.018-0.064l-0.231-0.021l-0.435,0.078l-0.189-0.057
		l-0.069-0.163l-0.044-0.577l-0.038-0.215l-0.557-0.814l-0.127-0.356l0.308-0.122l0.656,0.005l-0.127,0.449l0.227,0.123l0.754-0.097
		l-0.11,0.174l-0.162,0.192l-0.114,0.19l0.027,0.169l0.254,0.211l0.485,0.222L211.613,480.488z M226.693,474.564l0.015,0.396
		l-0.196,0.589l-0.284,0.578l-0.251,0.365l-0.355,0.167l-0.445-0.025l-0.883-0.287l1.275-1.077l0.878-0.5L226.693,474.564z
		 M220.059,472.491l0.08,0.152l0.12,0.126l0.09,0.146l-0.013,0.214l-0.104,0.134l-0.154,0.009l-0.164-0.029l-0.137,0.03
		l-0.251,0.178l-0.868,0.368l-0.291,0.061l-0.122,0.046l-0.05,0.101l-0.033,0.161l-0.084,0.151l-0.191,0.066l-0.418,0.225
		l-0.567,0.987l-0.422,0.224l-0.07,0.095l-0.641,0.636l-0.238,0.116l-0.537-0.214l-0.283,0.018l0.152,0.319l-0.146,0.255
		l-0.167,0.17l-0.189,0.115l-0.211,0.097l0.236,0.208l0.519,0.357l0.227,0.232l-1.084,0.7l-0.179,0.029l-0.102,0.493l-0.264,0.011
		l-0.361-0.103l-0.396,0.156l0.259,0.152l0.207,0.326l0.1,0.328l-0.07,0.149l-0.211-0.084l-0.579-0.567l-1.047-0.709l-0.13-0.293
		l0.023-0.334l-0.013-0.321l-0.236-0.253l-0.266,0.345l-0.286,0.008l-0.711-0.353l-0.704-0.155l-0.301-0.106l-0.271-0.217v-0.145
		l0.179-0.097l0.172-0.054l0.176,0.023l0.187,0.128l0.582-0.188l0.669,0.184l0.605,0.023l0.401-0.671l-0.754-0.011l-0.291-0.135
		l-0.242-0.332l0.283-0.186l0.226-0.209l0.236-0.171l0.5-0.099l0.152-0.077l0.423-0.322l0.294-0.316l0.015-0.054l0.534-0.054
		l0.48,0.037l0.39-0.116l0.283-0.504l0.39,0.149l0.383-0.12l0.313-0.299l0.189-0.384l0.145,0.24l0.211,0.145l0.241,0.116
		l0.246,0.154l0.351-0.869l0.562-0.482l1.345-0.739l-0.253,0.812l0.052,0.221l0.329,0.086l0.238-0.114l0.211-0.289l0.391-0.715
		l-0.017-0.114l-0.077-0.174l-0.032-0.185l0.12-0.16l0.301,0.02l0.211,0.33L220.059,472.491z M220.21,444.453l0.639-0.154
		l0.161,0.37l-0.204,0.547l-0.468,0.382l-0.167-0.547l-0.03-0.313L220.21,444.453z M223.883,439.238l0.079,0.66l0.613,0.499
		l-0.105,0.065l-0.035,0.083l-1.172-0.117l-0.227-0.347l-0.25-0.249l-0.152-0.553l0.374-0.324l0.501,0.199l0.087-0.019l0.092,0.006
		l0.095,0.033L223.883,439.238z M239.936,427.36l-0.105,0.832l-0.458,1.17l-0.892,0.905l-0.544,0.394l-0.626,0.107l-0.598,0.093
		l-0.652,0.041l-0.992-0.314l-0.217-0.394l-0.339-0.857l-0.501-1.144l-0.149-0.626l-0.057-0.68l0.211-0.088l0.758-0.02l0.366-0.556
		l0.411-0.449l0.122-0.383l0.436,0.005l0.218-0.261l0.508,0.437l0.907,0.327l0.653,0.56l0.803,0.233L239.936,427.36z
		 M247.694,416.239l0.196-0.008l0.018,0.384l0.23,0.597l0.295,0.406l-0.344,0.318l-0.005,0.765l0.164,0.914l-0.518,0.889
		l0.083,0.467l-0.004,0.742l-0.129,0.339l-0.277,0.189l-0.003,0.403l-0.044,0.36l-0.363,0.146l-0.298-0.002l-0.193,0.444
		l-0.234,0.316l-0.045,0.53l-0.278,0.422l0.019,0.36l-0.065,0.19l0.169,0.171l0.104,0.276l-0.129,0.274l-0.044,0.254l0.168,0.361
		l-0.298,0.337l-0.023,0.318l-0.381-0.045l-0.402,0.123l-0.361,0.084l-0.319,0.252l-0.107,0.276l-0.317-0.001l-0.062-0.233
		l-0.21-0.298l0.065-0.318l0.108-0.423l-0.061-0.635l-0.189-0.402l-0.082-0.487l0.043-0.212l0.211,0.107l0.169,0.043l0.129-0.402
		l0.511-0.548l0.598-0.887l0.245-0.691l0.181-0.602l0.007-0.358l-0.06-0.743l-0.104-0.319l0.044-0.233l-0.126-0.192l0.277-0.317
		l0.279-0.381l0.386-0.678l0.002-0.277l0.297-0.104l0.173-0.53l-0.039-0.512l0.43-0.721l0.248-0.289l0.124-0.13L247.694,416.239z
		 M229.217,383.36l0.472,0.01l0.231,0.17l0.141,0.484l-0.069,0.287l-0.353,0.978l-0.129,0.243l-0.371,0.093l-0.301-0.182
		l-0.14-0.348l0.114-0.408l-0.207-0.238l-0.167-0.401l-0.082-0.434l0.045-0.347l0.16-0.123l0.224,0.032L229.217,383.36z
		 M234.498,375.869l0.621-0.302l0.346-0.039l0.236,0.34l-0.693,0.46l-0.863,2.328l-0.627,0.54l-0.074-0.121l-0.017-0.273
		l0.015-0.529L233.344,378l-0.221,0.056l-0.383,0.292l-0.823,0.056l-0.403,0.095l-0.47,0.198l-0.416-0.642l-0.177-0.357l0.012-0.339
		l0.102-0.135l0.134-0.055l0.288-0.051l0.181-0.105l0.41-0.478l0.462-0.335l0.306-0.149l0.748-0.251l0.442-0.31l0.162,0.001
		l0.129,0.101l0.05,0.185l0.075,0.144l0.174,0.017L234.498,375.869z M229.369,375.022l0.596,0.598l0.196,1.014l0.052,2.062
		l0.054,0.191l0.055,0.155l0.032,0.194l-0.057,0.648l-0.045,0.189l-0.085,0.148l-0.176,0.224l-0.191,0.129l-0.487,0.195
		l-0.095,0.167l-0.406,0.93l-0.114,0.09l-0.462,0.225l-0.172,0.173l-0.452,0.589l-0.286,0.216l-0.497,0.294l-0.512,0.222
		l-0.339-0.001l-0.022-0.224l0.303-1.269l-0.243,0.197l-0.226-0.008l-0.216-0.038l-0.36,0.204l-0.007-0.118l0.067-0.237l0.084-0.147
		l0.636-0.583l0.418-0.266l0.278-0.052l0.248,0.018l0.227-0.049l0.228-0.249l-0.207-0.004l-0.166-0.032l-0.326-0.131l-0.442,0.188
		l-0.356-0.208l-0.241-0.451l-0.092-0.545l0.027-0.268l0.08-0.224l0.134-0.178l0.174-0.139l-0.132-0.385l0.11-0.478l0.249-0.485
		l0.278-0.405l0.211-0.529l-0.1-0.481l-0.462-0.761l0.258,0.014l0.191,0.123l0.169,0.142l0.211,0.07l0.273-0.053l0.42-0.239
		l0.532-0.135l0.36-0.155l0.401-0.117L229.369,375.022z M203.017,371.909l0.314,0.398l0.152,0.261v0.023l-0.038,0.084l-0.377,0.004
		l-0.473-0.026l-0.826,0.215l-0.046-0.298l-0.458-0.139l-0.105,0.097l-0.174,0.042l-0.077,0.104l-0.075,0.259l0.06,0.116
		l0.102,0.057l0.305,0.359l-0.056,0.297l-0.042,0.282l-0.351,0.359l-0.364-0.216l-0.398-0.561l-0.486-0.02l-1.019,0.068l-0.21,0.256
		l-0.701-0.45l-0.372-0.113l0.069-0.401l0.14-0.291l0.06-0.188l0.095-0.23l0.126-0.187l0.156-0.063l0.025,0.107l0.065,0.53
		l0.05,0.21l0.02-0.149l0.268-0.651l0.033-0.245l0.005-0.266l-0.022-0.262l-0.059-0.237l-0.055-0.111l-0.06-0.1l-0.05-0.108
		l-0.007-0.137l0.037-0.129l0.13-0.274l-0.177-0.412l0.189-0.343l0.203-0.18l0.375-0.003l0.138,0.293l0.286,0.664l0.117-0.09
		l0.339-0.167l0.438-0.098l0.741-0.448l0.101-0.283l0.501-0.287l0.073,0.428l-0.025,0.184l-0.005,0.216l0.352,0.102l0.3,0.06
		l0.154,0.409l-0.158,0.95l0.27,0.366L203.017,371.909z M427.32,360.613l0.455,0.284l0.529,0.174l0.482,0.238l0.311,0.476
		l-0.166,0.297l-0.497,0.704l-0.194,0.172l-0.304-0.012l-0.371-0.176l-0.314-0.27l-0.231-0.529l-0.678-0.948l-0.075-0.359
		l0.228-0.295l0.348-0.114L427.32,360.613z M207.53,364.22l0.241,0.132l1.232-0.562l0.271,0.518l-0.141,0.434l-0.404,0.208
		l-0.393,0.498l-0.404,0.057l-0.353,0.412l-0.161,0.304l-0.041,0.37l0.163,0.4l-0.01,0.163l-0.029,0.282l-0.213-0.007l-0.376-0.096
		l-0.132,0.313l0.148,0.225l-0.003,0.325l-0.074,0.198l-0.395-0.105l0.029-0.474l-0.138-0.52l0.022-0.814l0.13-0.342l-0.304-0.572
		l-0.181-0.112l-0.729-0.153l-0.192-0.085l0.042-0.312l0.341-0.151l0.459-0.345l0.3,0.324l0.399-0.292l-0.244-0.511l0.124-0.967
		l0.341-0.107l0.05,0.609l0.207-0.032l0.129-0.073l0.007-0.486l-0.068-0.333l0.1-0.476l0.326-0.166l0.101-0.447l-0.166-0.326
		l-0.047-0.267l0.245-1.014l0.195,0.192l-0.026,0.447l-0.087,0.224l-0.073,0.224l0.15,0.207l0.164,0.118l-0.115,0.507l-0.13,0.447
		l-0.19,0.388l-0.071,0.461l-0.041,0.431L207.53,364.22z M216.938,353.841l0.133,1.093l-0.129,0.326l-0.285,0.43l-0.298,0.3
		l0.222,0.194l-0.246,0.3l-0.247,0.131l0.001,0.247l-0.272,0.196l0.027,0.363l-0.193,0.494l-0.956,1.146l-0.699,0.496l-0.752,0.211
		l-0.369-0.178l-0.32-0.066l0.05-0.26l0.101-0.572l0.223,0.362l0.495,0.374l0.316-0.054l0.13-0.205l-0.07-0.089l-0.146-0.121
		l-0.233-0.037l-0.144-0.259l0.089-0.351l0.246-0.261l0.469,0.064l-0.171-0.415l-0.041-0.519l0.634-0.534l0.075-0.703l0.036-0.561
		l1.078-0.252l0.271-0.586l0.156,0.091l0.144,0.246l0.337-0.273l-0.326-0.273l0.038-0.354L216.938,353.841z M272.188,344.402
		l0.181,0.196l0.445,0.325l-0.023,0.091l-0.321,0.062l-0.432-0.062l-0.656-0.336l-0.331,0.06l0.144-0.342l0.276-0.163l0.35,0.006
		L272.188,344.402z M221.474,344.893l0.477,0.212l0.002,0.341l-0.325,0.318l-0.483,0.022l-0.52,0.014l-0.253,0.494l-0.035,0.47
		l-0.217-0.076l-0.401-0.365l-0.281-0.333l0.079-0.374l-0.214-0.146l-0.28,0.188l-0.161-0.333l-0.054-0.414l0.622,0.298l0.207,0.038
		v-0.169l-0.55-0.435l-0.041-0.494l-0.027-0.294l0.441,0.013l-0.108-0.428l0.119-0.415l0.16-0.268l0.04-0.281l0.248,0.237
		l1.368,0.421l0.016,0.195l-0.12,0.334l0.014,0.267l0.08,0.253l0.294,0.24l0.325,0.147l-0.115,0.036l-0.192,0.095l-0.114,0.036
		V344.893z M272.034,342.527l-0.102,0.127l-0.099,0.081l-0.208,0.131l-0.166-0.491l-0.306-0.556l-0.146-0.583l0.321-0.584
		l0.497-0.197l0.565,0.065l0.532,0.22l0.385,0.266l0.575,0.846l0.286-0.022l0.269-0.153l0.428-0.333l0.127-0.018l0.31,0.051
		l0.122-0.033l0.12-0.154l0.053-0.269l0.121-0.1l0.247-0.048l0.542,0.057l0.32-0.009l-0.239,0.254l-0.438,0.598l-0.166,0.025
		l-0.196-0.078l-0.502,0.157l-0.201,0.127l-0.084,0.193l-0.027,0.607l-0.04,0.244l-0.07,0.256l-0.236-0.093l-0.452,0.012
		l-0.169-0.074l-0.082-0.212l0.025-0.23l-0.02-0.23l-0.206-0.204l-0.141,0.183l-0.281-0.202l-0.129,0.131l-0.062,0.257l-0.089,0.168
		l-0.254,0.028l-0.36-0.13l-0.226,0.102L272.034,342.527z M421.072,337.775l0.15-0.794l0.597-0.487l0.676-0.027l0.385,0.582
		l-0.283,0.793l-0.55,0.51l-0.584,0.041L421.072,337.775z M278.591,337.513l-0.472-0.267l-1.114,0.04l-0.467-0.19l0.383-0.424
		l0.48-0.296l0.261-0.365l-0.271-0.626l0.201-0.267l0.261-0.164l0.271-0.073l0.222,0.015l0.169,0.151l-0.052,0.107l-0.023,0.115
		l-0.057,0.088l-0.149,0.027l0.172,0.3l0.057,0.288l0.01,0.295l0.042,0.32l0.537-0.256l0.06,0.473l-0.221,0.595L278.591,337.513z
		 M287.723,334.11l-0.732,0.41l-0.186-0.157l0.166-0.504l0.135-0.114l0.336-0.097l0.104-0.128l0.017-0.252l-0.09-0.164l-0.164-0.083
		l-0.197-0.011l0.391-0.507l0.437-0.454l0.411-0.101l0.306,0.553l0.221,0.764l-0.08,0.499l-0.348,0.372L287.723,334.11z
		 M211.94,332.335l0.087-0.366l0.53,0.035l0.093,0.151l-0.085,0.216l-0.357,0.172l-0.155,0.324l0.061,0.436l0.077,0.287
		l-0.317,0.254l-0.245,0.01l0.011,0.136l0.094,0.097l-0.059,0.285l-0.033,0.394l-0.018,0.285l-0.056,0.094l-0.137,0.039
		l-0.084,0.189l-0.005,0.286l-0.142,0.419l-0.247,0.132l-0.044,0.231l-0.233,0.172l-0.057,0.19l-0.256-0.021l-0.083,0.148
		l-0.234,0.147l-0.09-0.235l-0.11-0.04l-0.255-0.274l-0.164-0.095l-0.261,0.146l-0.123,0.053l-0.026-0.993l0.174-0.57l-0.06-0.64
		l0.095-0.788l0.18-0.174l-0.009-0.381l0.145-0.583l0.054-1.076l0.181-0.325l0.368,0.047l0.066,0.165l-0.084,0.203l-0.006,0.477
		l0.136,0.002l0.165-0.147l0.195-0.029l0.284-0.182l0.272,0.004l-0.093-0.192l-0.038-0.178l0.232-0.01l0.189,0.126l0.269,0.25
		l-0.021,0.49L211.94,332.335z M416.618,329.442l0.189-0.169l0.246-0.293l0.194-0.084l0.032,0.453l-0.125,0.794l-0.266,0.772
		l-0.321,0.352l-0.291-0.465l0.02-0.301l0.221-0.875L416.618,329.442z M328.898,324.143l0.524,0.435l0.04,0.304l-0.241,0.319
		l-0.311,0.361l-0.162,0.533l-0.231,0.61l-0.572,0.521l-0.488,0.783l-0.608,0.859l-0.118,0.934l-0.03,0.218l0.065,0.297l0.015,0.294
		l0.341,0.268l0.048,0.445l0.156,0.296l0.499,0.526l0.16,0.422l-0.417,0.189l-0.586,0.139l-0.505,0.316l-0.592,0.211l-0.458,0.234
		l-0.695,0.643l-0.99,0.219l-0.477,0.025l-0.037-0.473l-0.442-0.199l-0.066-0.08l0.235-0.467l0.212-0.315l-0.735,0.225l-0.444-0.546
		l-0.192-0.564l0.256-0.345l0.28-0.651l0.45,0.126l0.322-0.165l1.606-2.914l0.52-0.35l0.376-0.235l0.162-0.136l0.124-0.189
		l0.176-0.433l0.13-0.222l0.257-0.496l0.794-0.414l0.322-0.12l0.513-0.747l0.376-0.539L328.898,324.143z M214.82,323.868
		l0.211,0.258l0.314,0.3l-0.058,0.216l-0.047,0.228l-0.182,0.626l-0.373,0.986l-0.899,0.826l-0.47,0.724l0.099,0.713l-0.462,0.462
		l-0.049,0.37l0.33-0.095l0.363-0.408l0.026,0.186l-0.12,0.341l-0.088,0.156l0.079,0.415l0.235,0.292l0.172,0.086l-0.148,0.34
		l-0.302,0.166l-0.142,0.164l-0.224,0.429l-0.502,0.177l-0.397-0.107l-0.391-0.505l0.317-0.223l0.497,0.164l0.04-0.712l-0.255-0.118
		l-0.378,0.451l-0.228-0.018l-0.021-0.471l0.018-0.257l0.09-0.298l-0.245,0.182l-0.204,0.282l0.122,0.416l-0.145,0.126l-0.295-0.304
		l-0.487,0.107l-0.398-0.091l0.133-0.312l0.5-0.035l0.259-0.153l0.029-0.927l-0.107-0.501l0.175-0.211l0.201-0.039l0.099,0.059
		l0.117-0.169l0.277-0.323l-0.041-0.158l-0.32,0.337l-0.259,0.067l-0.096-0.288l0.267-0.625l0.327-0.824l0.436-0.378l-0.012-0.172
		l-0.351-0.451l-0.36,0.108l-0.038-0.344l0.293-0.425l0.092-0.414l0.318-1.114l0.273-0.008l0.501,0.01l0.357,0.079l0.247-0.24
		l0.396-0.517l0.331-0.066l-0.155-0.19l0.104-0.242l0.315,0.034l0.247-0.182l0.286,0.005l0.126,0.203l0.207,0.217l0.144,0.19
		l-0.092,0.342l-0.117,0.141l-0.174,0.112l0.185,0.046l0.199,0.118l0.01,0.258l-0.151,0.394l-0.175,0.078l-0.216-0.128
		L214.82,323.868z M419.657,319.833l0.401,0.223l0.253,0.379l0.137,0.492l0.037,0.553l-0.013,0.629l-0.084,0.274l-0.228,0.056
		l-0.433-0.012l-1.28-0.628l-0.168-0.443l0.017-1.183l0.091-0.748l0.908,0.215L419.657,319.833z M287.99,288.717l0.241-0.274
		l0.432,0.142l0.442,0.342l0.256,0.328l-0.291-0.036l-0.763,0.036l-0.134-0.054l-0.107-0.131L288,288.895L287.99,288.717z
		 M295.278,282.113l0.304,0.421l-0.053,1.261l-0.121,0.268l-0.271,0.154l-0.157-0.303l-0.186-0.021l-0.189,0.139l-0.171,0.185
		l0.239,0.184l0.075,0.238l-0.08,0.24l-0.234,0.19l-0.157-0.007l-0.823-0.167h-0.452l-0.135-0.084l-0.969-0.866l-0.206-0.093
		l-0.1-0.259l0.176-1.576l0.271-0.49l1.696-1.155l0.017,0.304l0.164,0.119l0.214,0.04l0.184,0.062l0.069,0.089l0.062,0.228
		l0.06,0.114l0.129,0.102l0.266,0.085l0.11,0.075l0.11,0.156l0.087,0.237L295.278,282.113z M399.946,235.79l0.728,0.076l0.948-0.255
		l0.708,0.064v1.023l-0.191,0.489l-0.853,1.38l-0.231,0.486l-0.261,0.993l-0.288,0.389l-2.387,1.64l-2.163,0.792l-0.452,0.057
		l-0.217-0.04l-0.204-0.119l-0.156-0.191l-0.06-0.256l0.069-0.283l0.172-0.102l0.992-0.21l0.228-0.159l0.095-0.33v-1.171
		l0.221-0.428l0.662-0.768l0.241-0.39l-0.57-0.798l-1.375,0.495l-0.313-0.763l-0.002-0.615l0.062-0.544l0.135-0.505l0.224-0.492
		l0.855-1.198l0.316-0.835l0.391-0.362l0.392-0.284l0.176-0.282l0.928-0.984l0.549-0.395l0.84-1.49l0.177-0.167l0.236-0.076
		l0.507-0.016l0.12,0.119l-0.015,0.29l-0.251,1.728l-0.422,1.573l-0.878,2.066l-0.117,0.49l-0.013,0.514l0.117,0.309l0.171-0.013
		L399.946,235.79z M422.335,123.489l0.323,0.322l-0.211,0.56l-0.684,1.028l-0.144,0.73l-0.02,0.678l-0.077,0.635l-0.309,0.609
		l-0.793,0.755l-0.199-0.09l-0.211-0.224l-0.122-0.301l0.06-0.313l-0.105-0.245l-0.045-0.242v-0.563l-0.048-0.236l-0.202-0.346
		l-0.042-0.278l0.072-0.513l0.196-0.529l0.271-0.433l0.311-0.225l0.237-0.026l0.448-0.135l0.242-0.031l0.243-0.098l0.6-0.413
		L422.335,123.489z M540.791,85.597l0.676,0.494l0.328,0.316l0.05,0.281l-0.261,0.149l-0.783,0.211l-0.16,0.211l-0.141,0.343
		l-0.284,0.135l-0.212-0.127l0.075-0.448l0.226-0.265l0.634-0.291l0.274-0.217l-2.665-1.374l1.738,0.364L540.791,85.597z
		 M523.047,75.667h0.141l-0.125,0.005L523.047,75.667z M458.894,40.179l0.174,0.425l-0.147,0.295l-0.247,0.283l-0.13,0.389
		l-0.115,0.128l-0.741,0.558l-0.353,0.053l-0.326-0.096l-1.101-0.703l-0.652-0.598l-0.39-0.671l0.296-0.572l-0.095-0.183
		l-0.11-0.294l-0.075-0.121l0.726-0.867l0.258-0.128l0.472-0.138l0.669,0.228l0.681,0.46l0.507,0.554L458.894,40.179z
		 M453.254,32.052l0.335,0.227l0.094,0.527l-0.298,3.006l-0.196,0.849l-0.286,0.819l-0.135-0.398l0.018-0.158l0.117-0.241
		l-0.517-1.041l-0.239-0.65l-0.097-0.615l0.141-1.408l-0.095-0.325l-0.607-0.973l0.151-0.125l0.134-0.036l0.112,0.044l0.09,0.119
		l0.055,0.134l0.276,0.539l0.276,0.017l0.315-0.187L453.254,32.052z M449.497,501.407l-0.042-0.363l0.129-0.099l0.082,0.13
		L449.497,501.407z M181.053,512.543l0.028,0.654l-0.525,0.101l-0.557-0.237l-0.08-0.361l0.291-0.125l0.554,0.058L181.053,512.543z
		 M184.867,504.329h0.115l-0.161,0.578l-0.358,0.623l-0.485,0.495l-0.542,0.197l0.204-0.354l1.055-1.235L184.867,504.329z
		 M230.594,425.048l0.469,0.19l0.396,0.395l0,0.286l-0.442,0.002l-0.181,0.272l-0.398,0.068l-0.398-0.45l0.027-0.3l-0.082-0.218
		l-0.355,0.164l-0.206-0.341l-0.233-0.218l-0.206-0.273l0.479-0.014l0.534,0.327l0.232-0.137L230.594,425.048z M315.839,325.495
		l-0.084,0.222l0.05,0.226l0.1,0.26l0.075,0.313l-0.11,0.723l-0.452,1.335l-0.099-0.221l-0.192-0.127l-0.259-0.043l-0.293,0.037
		v-0.155l0.391-0.061l0.095-0.217l-0.184-0.163l-0.443,0.1l-0.291,0.314l-0.221,0.431l-0.243,0.352l-0.37,0.079l0.089-0.884
		l-0.114-0.266l-0.406-0.212l-0.381,0.019l-0.39,0.138l-0.323,0.014l-0.181-0.342l0.212-0.167l0.017-0.268l-0.03-0.306l0.082-0.278
		l0.59,0.191l0.503-0.148l0.883-0.556l0.246-0.074l0.736-0.079l0.713-0.189L315.839,325.495z M461.48,569.768l0.149-0.112
		l0.201,0.025l0.015,0.159l-0.057,0.122L461.689,570l-0.152-0.085L461.48,569.768z M718.822,568.251l0.169-0.128l0.09,0.096
		l-0.04,0.184l-0.11,0.012l-0.129-0.054L718.822,568.251z M458.078,542.698l-0.263-0.213l-0.085-0.303l0.087-0.245l0.278-0.033
		l0.191,0.165l0.04,0.239l-0.079,0.234L458.078,542.698z M252.58,530.526l0.254-0.042l0.395,0.125l0.135,0.243l-0.115,0.229
		l-0.117,0.091l-0.144,0.007l-0.166-0.091l-0.219-0.272L252.58,530.526z M168.974,515.682l0.217-0.042l0.197,0.093l0.037,0.238
		l-0.15,0.167l-0.201-0.008l-0.251,0.048l-0.124-0.104l0.124-0.252L168.974,515.682z M194.301,505.35l0.01,0.433l-0.129,0.186
		l-0.353-0.022l-0.421-0.206l-0.099-0.104l-0.094-0.042l-0.109-0.088v-0.191l0.11-0.039l0.146-0.003l0.144-0.206l0.273-0.155
		l0.316,0.09l0.15,0.194L194.301,505.35z M476.613,503.088l-0.102-0.297l0.022-0.365l0.115-0.256l0.196,0.044l0.075,0.217
		l-0.047,0.258l-0.12,0.239L476.613,503.088z M476.739,492.588l-0.326-0.311l0.075-0.161l0.201,0.076L476.739,492.588z
		 M474.38,489.854l-0.04-0.239l0.075-0.061l0.059,0.089L474.38,489.854z M189.824,486.378l0.04,0.131l0.1,0.085l-0.038,0.276
		l-0.191-0.174l-0.05-0.375L189.824,486.378z M217.675,449.283l-0.085-0.192l0.08-0.23l0.141-0.104l0.06,0.024l0.05,0.042
		l0.094,0.008l0.053,0.086l0.097,0.244l-0.063,0.28h-0.261L217.675,449.283z M216.362,438.584l0.018-0.156l0.14-0.022l0.162,0.04
		l0.141,0.101l0.089,0.151l-0.06,0.093l-0.239,0.089l-0.141-0.086L216.362,438.584z M224.913,437.091l0.033,0.087l0.055,0.051v0.021
		l-0.146,0.128l-0.352-0.112l-0.215-0.071l-0.211-0.236l-0.05-0.041l-0.018-0.073l0.029-0.12l0.05-0.087l0.181-0.179l-0.069-0.177
		l0.09-0.023l0.176-0.105l0.106,0.269l0.144,0.268L224.913,437.091z M437.938,424.581h0.196l0.181,0.143l-0.151,0.23l-0.249,0.046
		l-0.1-0.169l-0.003-0.133L437.938,424.581z M214.318,416.091l0.055-0.043l0.06,0.088l-0.09,0.088L214.318,416.091z
		 M224.967,416.132l0.246,0.185l0.032,0.199l-0.194,0.224l-0.224,0.141h-0.241l-0.325-0.152l-0.032-0.053l-0.012-0.094l-0.12-0.204
		l0.087-0.096l0.157-0.084l0.199-0.183l0.135-0.052l0.161,0.067L224.967,416.132z M432.509,401.761l0.02-0.047l0.025,0.042
		L432.509,401.761z M432.463,401.736l0.002-0.056l0.037,0.046l-0.033,0.035L432.463,401.736z M426.607,377.314l0.015-0.44
		l0.343,0.716L426.607,377.314z M417.208,347.94l-0.06-0.024l0.06,0.009V347.94z M423.862,342.118l0.139,0.342l-0.017,0.149
		l-0.121,0.222l-0.261,0.097l-0.328-0.046l-0.266-0.193l-0.032-0.44l0.261-0.384l0.353-0.014l0.192,0.155L423.862,342.118z
		 M418.725,143.4l0.11,0.08l0.074,0.155l-0.155,0.253l-0.591,0.301l-0.097-0.114l-0.09-0.374v-0.202l0.08-0.146l0.161-0.011
		l0.156,0.057H418.725z M718.683,567.823l-0.263,0.364l-0.263-0.428l0.268-0.098L718.683,567.823z M127.469,555.672l0.162,0.21
		l0.129,0.462l-0.243,0.263l-0.763,0.091l-0.36-0.076l-0.216-0.273l0.02-0.276l0.176-0.076l0.162-0.042l0.043-0.24l0.08-0.231
		l0.276-0.04l0.36,0.138L127.469,555.672z M172.005,524.502l0.023,0.104l0.002,0.157l-0.06,0.288l-0.089,0.299l-0.052,0.31
		l-0.156,0.229l-0.167-0.098l-0.053-0.274l-0.01-0.224l0.007-0.131l0.074-0.473l0.164-0.288l0.204-0.055L172.005,524.502z
		 M474.885,489.62l0.075-0.061l0.059,0.089l-0.092,0.212L474.885,489.62z M224.701,391.505l-0.1,0.094l-0.015,0.106l0.04,0.148
		l-0.033,0.167l0.008,0.148l0.055,0.097l0.007,0.07l-0.047,0.163l-0.144,0.167l-0.194,0.008l-0.194,0.034l-0.276,0.177l-0.286-0.013
		l-0.151-0.173l-0.11-0.059l-0.087-0.068l-0.034-0.118l-0.075-0.16l-0.13-0.2l-0.018-0.181l0.144-0.103l-0.064-0.054l-0.224,0.091
		l-0.159,0.24l-0.156,0.035l-0.075-0.079l-0.005-0.154l0.057-0.27l0.179-0.254l0.271-0.171l0.401,0.122l0.771,0.664l0.162,0.059
		l0.059-0.15l-0.089-0.24l0.102-0.144l0.311-0.047L224.701,391.505z M231.084,380.976l0.336,0.164l0.127,0.195l-0.07,0.139
		l-0.194,0.235l-0.221,0.208l-0.209,0.105l-0.196,0.042l-0.166,0.107l-0.09-0.065l0.005-0.253l0.04-0.265l0.085-0.249l0.12-0.125
		l0.115-0.024l0.055-0.05l0.022-0.086L231.084,380.976z M235.254,373.791l0.12,0.151l0.025,0.258l-0.06,0.406l-0.105,0.265
		l-0.286,0.065l-0.151,0.074l0.062,0.232l-0.127-0.084l-0.251-0.207l-0.05-0.286l0.095-0.315l-0.075-0.191l-0.166-0.114
		l-0.018-0.165l0.304-0.498l0.06-0.009l0.007,0.095l0.067-0.037l0.172-0.149l0.166-0.073l0.204,0.099l0.132,0.137l-0.059,0.189
		L235.254,373.791z M278.732,370.243l0.135,0.19l0.06,0.217l-0.015,0.201l-0.155,0.179l-0.279,0.138l-0.132-0.101l-0.055-0.319
		l-0.013-0.3l0.08-0.288l0.099-0.127l0.13,0.081l0.062,0.054L278.732,370.243z M203.456,368.381l0.064,0.102l0.117,0.313
		l-0.027,0.179l-0.254,0.3l-0.258,0.402l-0.144,0.044l-0.182-0.036l-0.381-0.243l-0.16-0.066l-0.1-0.247l0.015-0.766l-0.027-0.197
		l0.053-0.165l0.184-0.026l0.221,0.118l0.134,0.274l0.057,0.281l0.075,0.153l0.082,0.058l0.023-0.074l-0.017-0.064l-0.017-0.085
		l-0.053-0.201l-0.094-0.228l-0.067-0.242l0.107-0.063l0.495,0.345L203.456,368.381z M204.553,367.013l0.047,0.272l0.053,0.529
		l-0.074,0.264l-0.154,0.066l-0.049,0.113l0.065,0.088l0.033,0.157l-0.089,0.221l-0.095-0.002l-0.04-0.208l-0.134-0.102
		l-0.184-0.023l-0.05-0.066l0.072-0.095l-0.002-0.123l-0.079-0.131l-0.092-0.093l-0.119-0.088l-0.291-0.342l-0.125-0.042
		l-0.134,0.054l-0.05-0.163l0.209-0.203l0.371,0.11l0.316,0.365l0.105,0.042l-0.055-0.304l0.045-0.061l0.179,0.096l0.092-0.108
		l0.025-0.272l0.065-0.096l0.095,0.092L204.553,367.013z M206.088,366.386l0.034,0.197l0.01,0.077l-0.037,0.807l-0.084,0.186h-0.127
		l-0.01-0.211l-0.077-0.052l-0.145-0.144l-0.201-0.048l-0.291,0.108l-0.105-0.043l-0.077-0.123l-0.089-0.06l-0.03-0.054l-0.08-0.388
		l0.01-0.213l0.172-0.006l0.385,0.212l0.08-0.017l-0.023-0.117l-0.117-0.12l-0.104-0.157l-0.03-0.141l-0.053-0.1l-0.007-0.092
		l0.069-0.074l0.042-0.07l-0.002-0.076l0.161-0.006l0.353,0.121l0.227,0.191l0.08,0.197L206.088,366.386z M208.301,356.57
		l0.161,0.37l0.141,0.204l-0.012,0.184l-0.314,0.256l-0.144,0.273l-0.167,0.024l-0.328-0.065l-0.228-0.154l-0.13-0.114l-0.124-0.03
		l-0.097,0.034l0.023-0.218l0.266-0.356l0.301-0.14l0.192-0.06l0.311-0.25L208.301,356.57z M216.943,351.792l0.36-0.052l0.062,0.191
		l-0.172,0.243l-0.279,0.124l-0.31-0.042l-0.258-0.13l-0.161,0.056l-0.053,0.114l-0.092,0.014l-0.181-0.018l0.072-0.232l0.37-0.356
		l0.351-0.241l0.206,0.01l0.064,0.174L216.943,351.792z M280.362,338.934l0.052,0.066l0.008,0.261l-0.032,0.271l-0.037,0.148
		l-0.082,0.117l-0.04,0.109l-0.012,0.248l-0.291,0.273l-0.408,0.097l-0.232-0.162l-0.045-0.328l0.194-0.279l0.207-0.205l0.151-0.12
		l0.085-0.04l0.135-0.085l0.244-0.228L280.362,338.934z M289.656,334.957l0.116-0.022l0.053,0.105l-0.151,0.263l-1.012,1.043
		l-0.356,0.17l-0.221-0.181l-0.005-0.433l0.065-0.331l0.115-0.119l0.125,0.008l0.104,0.021l-0.059-0.201l-0.159-0.368l0.141-0.329
		l0.46-0.103l0.331,0.137l0.105,0.184l0.13,0.139L289.656,334.957z M282.36,334.393l0.34,0.195l0.13,0.297l-0.109,0.241
		l-0.179,0.122l-0.152,0.066l-0.05-0.042l-0.005-0.169l-0.117-0.073l-0.164,0.013l-0.529-0.262l-0.184-0.212l0.127-0.255
		l0.284-0.079l0.408,0.112L282.36,334.393z M286.113,332.396l0.151-0.166l0.079,0.228l-0.079,0.57l-0.192,0.473l-0.048,0.274
		l-0.226,0.219l-0.467,0.11l-0.41,0.004l-0.271-0.166l-0.142-0.33l0.07-0.293l0.156-0.119l0.065-0.02l0.592-0.278l0.229,0.007
		l0.227-0.153L286.113,332.396z M274.135,331.721l0.121,0.219l0.025,0.226l-0.01,0.114l-0.4,0.429l-0.609,0.534l-0.341,0.121
		l-0.234-0.152l-0.013-0.228l0.398-0.635l0.251-0.326l0.321-0.204l0.291-0.144L274.135,331.721z M302.444,329.438l0.181,0.291
		l0.028,0.325l-0.11,0.188l-0.155,0.109l-0.135,0.12l-0.065,0.072l-0.15-0.076l-0.151-0.283l0.07-0.305l0.276-0.333l0.06-0.137
		L302.444,329.438z M333.06,328.582l0.736-0.602l0.331,0.47l-0.671,0.485l-0.285-0.14L333.06,328.582z M309.296,327.489
		l-0.196-0.098l-0.059-0.062l0.035-0.063l0.157-0.109l0.182-0.029l0.353-0.24l0.234-0.056l0.082,0.072l0.164,0.146l0.132,0.013
		l0.055,0.029l-0.033,0.232l-0.388,0.527l-0.161-0.023l-0.171-0.148l-0.017-0.008L309.296,327.489z M367.731,326.932l0.144-0.184
		l0.205,0.042l-0.042,0.205l-0.091,0.202l-0.232,0.158l-0.164,0.108l-0.116-0.195l-0.102-0.198L367.731,326.932z M367.694,326.071
		l0.129-0.18l0.279-0.042l-0.156,0.203l0.014,0.174l-0.29,0.061l-0.31,0.228l-0.365,0.082l-0.146-0.122l0.345-0.157L367.694,326.071
		z M365.801,317.44l0.265,0.002l0.258,0.357l0.05,0.325l-0.231,0.069l0.006,0.16l-0.15,0.018L365.801,317.44z M370.941,259.599
		l-0.059,0.186l-0.017,0.216l0.03,0.221l-0.147,0.207l-0.34,0.146l-0.38,0.025l-0.368,0.133l-0.271,0.172l-0.194,0.002l-0.328,0.117
		l-0.074-0.009l-0.182-0.278l-0.396-0.506l-0.211-0.409l0.127-0.189l0.167,0.09l0.08,0.19l0.1,0.06l0.122-0.104l0.142-0.068
		l0.184-0.008l0.187-0.067l0.151-0.114l0.144-0.038l0.156,0.05l0.161,0.154l0.206,0.151l0.196-0.029l0.159-0.109l0.224-0.267
		l0.299-0.116L370.941,259.599z M94.651,535.376l-0.034,0.006l-0.087-0.014l0.049-0.139L94.651,535.376z M93.399,534.856h-0.338
		l-0.358,0.085l0.05-0.252l0.36-0.097l0.124,0.002L93.399,534.856z M96.023,531.044l-0.02,0.028l-0.007-0.052L96.023,531.044z"/>
</g>
</svg>
