<?xml version="1.0" encoding="utf-8"?>
<!-- Generator: Adobe Illustrator 23.0.1, SVG Export Plug-In . SVG Version: 6.00 Build 0)  -->
<svg version="1.1" xmlns="http://www.w3.org/2000/svg" xmlns:xlink="http://www.w3.org/1999/xlink" x="0px" y="0px"
	 viewBox="0 0 800 600" style="enable-background:new 0 0 800 600;" xml:space="preserve">
<g id="South_Korea">
	<path fill="#bc3237" class="st0" d="M410.215,30l2.405,4.767l3.755,7.441l0.747,3.261l1.914,4.937l7.111,14.083l5.544,14.76l0.904,1.604
		l2.89,3.582l1.108,3.006l13.422,19.221l5.21,7.593l6.239,6.923l0.885,0.725l4.181,4.924l0.216,2.078l0.02,2.5l0.498,2.118
		l2.851,1.588l0.826,1.704l2.353,7.67l1.049,1.776l1.258,0.756l1.055,1.094l3.664,7.214l2.202,2.771l0.76,1.525l0.295,1.616
		l0.557,1.566l3.886,4.28l1.239,3.508l1.101,7.657l1.514,4.21l4.129,5.76l0.315,1.207l-0.472,1.166l-0.747,1.113l-0.472,1.088
		l-0.033,0.977l0.583,3.155l0.708,9.004l0.747,4.154l2.674,8.477l0.216,4.147l-0.839,3.834l-1.815,3.481l-1.475,4.128l0.02,0.167
		l0.413,3.943l1.101,4.112l0.439,4.142l-0.498,8.547l-0.492,1.836l-2.49,3.016l-0.97,1.697l-0.426,1.977l-0.341,12.07l0.275,1.636
		l0.492,0.909l0.537,0.365l0.432,0.503l0.465,3.393l0.596,2.596l0.649,0.454l0.433,0.56l-0.302,1.557l-0.649,0.876l-0.839,0.405
		l-0.793,0.26l-1.342,1.109l-0.074,1.363l1.697,1.576l1.22,1.369l1.286,1.573l1.633,0.281l2.068-1.623l5.118-5.608l0.984-1.651
		l1.329,1.059l0.295,1.711l0.57,1.779l0.419,1.981l-1.257,1.97l-2.904,5.78l-0.221,2.588l-0.862,6.804l-2.087,5.907l0.116,3.693
		l-2.136,6.412l-1.574,3.115l-0.686,1.557l0.67,1.768l0.742,0.887l0.538,0.954l-0.305,2.157l-0.172,2.556l-0.544,3.841l-0.819,1.626
		l-1.324,1.787l-1.219,0.66l-0.531-1.742l-0.472-2.27l-1.042-1.703l-1.121-0.29l-0.668,1.933l1.101,0.254l0.655,0.833l0.315,1.22
		l0.072,1.404l-0.354,1.328l-0.826,0.31l-0.924,0.085l-0.642,0.644l0.118,0.708l0.103,1.838l0.328,1.896l-0.751,1.215l-0.682,1.215
		l0.672,0.949l0.538,0.543l-0.11,1.342l-1.656,0.544l-1.559,0.941l-2.238,2.221l-1.894-0.071l-0.409,1.415l-0.139,1.819
		l-0.476,0.944l-0.544,0.808l0.455,1.345l0.026,0.554l-0.911,1.849l-1.281,2.729l-1.432,1.727l-0.774,1.613l-0.543,1.096
		l-1.244-0.025l-0.919-0.04l-1.133,0.186l-0.832-0.048l-0.876,0.395l-0.962,0.113l-0.077,1.384l0.643,0.959l0.106,1.15l-0.413,1.31
		l-1.803,0.843l-1.459-1.271l-0.883-0.732l-0.657-0.81l-2.111,2.265l-0.961,1.804l-0.308,1.921l-0.653,0.46l-0.386-0.967
		l-0.961-1.042l0.08,0.93l0.192,2l-0.615-0.001l-0.271-0.662l-0.346-0.156l-0.825,0.554l-0.784,0.492l-0.538-0.663l-0.651-2.216
		l0.269-1.997l0.615-2.535l0.116-1.421l-0.384-0.346l-0.73,1.076l-2.458,4.34l-1.113,0.077l-0.077-1.997l0.077-1.882l-0.536-0.078
		l-0.699,1.561l-0.569,2.359l-1.996-0.23l-5.303,0.086l-0.305-1.808l-0.539-0.959l-0.732,2.731l-0.807,0.386l-1.875-0.846
		l-0.877-1.647l-0.963-0.112l-1.239,0.957v-4.306l-0.334-0.357l-0.688,0.284l-0.583,0.906l-0.046,1.522l-1.278-1.001l-0.996-1.443
		l-1.101-0.894l-1.619,0.649l0.354-1.391l-0.668-1.976l0.315-0.734l-0.806-2.591l-0.472-0.273l-0.924,0.842l-1.003,1.58l-0.02,1.054
		l1.022,2.137l0.57,2.605l0.334,0.913l0.688,1.186l1.343,1.814l0.197,0.913l-0.38,1.309l0.636,0.088l0.996,0.432l0.57,0.152
		l-0.708,0.472l-0.708,0.188l-1.632,0.004l-0.859-0.2l-0.242-0.52l-0.039-0.657l-0.269-0.633l-0.773-0.817l-0.55-0.448l-4.345-1.534
		l-1.219-0.076l-2.667,0.509l-0.727,0.361l0.052,0.693l0.931,1.313l-1.494,0.3l-2.759,1.393l-3.165,0.865l-0.413,1.245l-0.157,1.353
		l-0.859,0.888v0.668l8.035-4.274l1.363-0.092l0.275,1.729l0.485,1.268l0.164,1.128l-0.649,1.308l-1.029,0.576l-1.573,0.264
		l-1.573-0.072l-1.042-0.432l-0.544,0.96l0.374,0.464l0.727,0.424l0.544,0.84l0.079,0.512l0.026,0.736l-0.105,2.047l-0.603,4.02
		l0.741,0.707l0.708-0.236l0.557-0.783l0.249-0.967l1.088,1.279l-1.121,2.013l-2.032,2.652l-1.803,0.543l-2.42-0.162l0.041-1.501
		l1.553-0.021l0.662-0.12l0.4-0.659l-5.001-0.563l-1.042-0.415l-1.154-1.606l-0.164-0.807l0.826-0.519l1.855-0.719l-1.828-3.677
		l-1.317,1.303l-1.324,2.558l-1.868,0.12l-1.704-2.294l-0.891-0.572l-1.828-0.188l-0.806,0.488l-0.446,1.187l-0.164,1.507
		l0.039,1.454l-1.704-0.288l-3.742,0.168l-1.475-0.823l-0.17-0.531l-0.02-1.439l-0.085-0.38l-0.374-0.096l-0.898,0.164l-1.16-0.268
		l-1.894-0.164l-0.668-0.364l-0.374-0.787l0.039-0.772l0.203-0.74l0.131-0.66l-0.131-7.284l0.131-1.173l0.236-0.544l0.413-0.721
		l0.354-0.945l0.098-1.205l-1.258,1.509l-1.036,1.761l-1.278,1.321l-1.933,0.168l1.475,3.481l-1.003,0.68l-2.182-0.048l-2.084,1.32
		l-0.845-2.36l-0.511-0.964l-0.904-0.7l-0.236,3.168l-0.865,2.504l-1.684,1.511l-2.15,0.192l-0.859-0.34l-0.767-0.196l-0.636,0.072
		l-0.491,0.464l-1.199-0.991l-0.839-0.228l-0.531-0.148l-3.264,0.032l-1.088-0.184l-0.432-0.5l-0.197-0.748l-0.472-0.952
		l-0.924-0.736l-0.216,0.756l0.138,1.176l0.177,0.516l-0.583,1.811l-0.321,0.62l-0.747,0.863l-3.047,2.438l-1.691,0.755
		l-1.213-1.043l-1.52-3.101l-1.258-0.504l-0.878,1.255l-0.433,1.966l0.092,1.642l0.747,1.738l1.245,2.245l1.429,1.956l1.278,0.822
		l0.904,1.173l0.845,0.407l1.003-0.631l2.497-2.347l1.73-0.232l1.475,0.288l1.376,0.088l1.514-0.811l-0.092,1.936l-0.262,1.373
		l-0.799,2.773l-0.924,4.894l-0.668,1.132l-2.831,0.949l-2.241-1.124l-1.796-0.383l-1.475,3.237l-0.472-0.311l-0.118,0.028
		l-0.111,0.179l-0.4,0.104l0.629,1.291l0.472,1.379l0.59,4.374l-0.367,0.812l-0.832-0.462l-1.317-1.386l-1.927-0.239l-1.435-0.793
		l-0.924-1.446l-0.393-2.191l0.492-2.073l1.049-2.041l0.76-1.93l-0.374-1.655l-0.649-0.922l-1.278-2.765l-0.334-0.216l-0.452-0.012
		l-0.472-0.072l-0.393-0.423l-0.039-0.503l0.138-0.591l0.236-0.375l-1.219-2.571l-0.21-0.958l0.072-0.579l0.354-0.959l0.079-0.503
		l-0.177-0.551l-0.374-0.431l-0.374-0.124l-0.177,0.408l-0.275,0.22l-1.376,3.499l-0.531,0.743l-0.275,0.192l-0.413,0.048
		l-2.746,0.97l-1.599,0.2l-3.48-0.088l-1.311,0.391l1.062,0.874l2.077,0.91l1.711,0.503v0.618l-3.421,1.093l-1.73,0.973
		l-0.295,1.336l0.688,0.562l1.514-0.61l0.806,0.347l0.57,0.933l-0.17,0.343l-0.432,0.112l-0.223,0.263l1.121,3.899l2.327,2.088
		l2.517,1.618l1.724,2.478l-0.826-0.127l-1.416-0.008l-0.603,0.135l3.46,1.334l0.447,1.084l0.228,2.039l-0.737,0.738l-0.829,0.705
		l-1.573-0.076l-0.996,0.251l-3.664-2.285l-1.18-0.382l-1.042,0.199l-1.298,0.597l-1.101,0.788l-0.465,0.748l0.19,0.31l0.963,2.029
		l1.129,0.248l0.682,0.453l3.061-0.799l1.675,1.428l-3.82,3.509l-1.357,1.929l-1.476-0.677l-2.321,1.762l0.243,1.704l1.029,1.121
		l-2.228,0.011l-3.289-4.352l-1.134-2.333l-3.021-3.273l-0.924,0.211l-3.192,1.671l0.321,1.002l0.229,0.39l-1.311-0.453
		l-1.265-0.246l-1.081-0.569l-0.747-1.404l-0.098-1.436l0.511-0.836l1.789-1.062l0.577-0.513l1.625-2.154l1.003-2.11l0.577-0.725
		l1.173-0.573l-0.079,1.633l-0.393,1.585l-1.18,2.858l2.359-0.155l1.973-0.72l1.18-1.632l-0.026-2.891l-0.472-1.131l-0.623-0.645
		l-0.478-0.757l-0.072-1.482l0.433-0.777l2.32-2.571l0.839,0.442l0.551,0.598l0.138,0.765l-0.426,0.932l0.485,1.279l0.688,0.892
		l0.924,0.303l1.245-0.466l0.524-0.681l1.101-2.367l0.629-1.02l-1.121-1.67l-0.432-1.746l-0.57-0.79l-1.527,1.192l-1.756,0.746
		l-1.455-1.216l-1.986-3.211l-1.14,1.795l-1.625,4.182l-1.127,1.379l-1.16,0.47l-0.983-0.052l-2.019-0.418l-0.95,0.335l-0.885,0.813
		l-1.455,1.924l-0.649,0.55l-2.949,1.725l-1.593,1.215l-1.022,0.597l-0.983,0.259l-0.609,0.314l-0.138,0.808l0.039,1.079
		l-0.151,1.142l-0.531,0.804l-0.747,0.875l-0.374,1.043l0.603,1.273l-4.443,4.375l0.144,4.039l-0.754,0.671l-2.143-1.073
		l-0.708,0.854l-0.334,0.958l0.039,1.049l0.452,1.14l-1.042-0.33l-2.254-1.609l-3.093-0.906l-0.708-0.429l-0.629-1.872l0.334-4.95
		l-0.308-1.917l0.446-1.221l-0.098-1.504l-0.531-1.317l-0.918-0.689l-0.872,0.251l-0.878,0.828l-0.675,1.059l-0.269,0.931
		l0.328,1.353l0.511,1.177l0.026,0.823l-2.484,0.831l0.321,1.193l1.802,2.294l-3.087,1.793l-1.16,1.069l1.199,0.477l0.275,0.219
		l0.079,0.477l-0.092,0.477l-0.262,0.215l-0.491-0.099l-0.747-0.453l-0.393-0.107l-1.062,0.159l-0.216,0.449l-0.013,0.727
		l-0.413,0.965l-0.629,0.425l-2.386,0.604l-0.898,0.758l-0.321,0.631l-1.96,6.589l-0.164,0.944v1.127l-1.966-0.421l-3.709,1.222
		l-0.931-0.19l-0.111-1.15l0.76-2.345l-0.151-1.107l-0.734-0.631l-1.016-0.202l-2.104,0.107v-0.607l0.426-0.564l0.138-0.389
		l0.157-1.536l0.275-0.052l0.361,0.119l0.347-0.238l1.14-2.073l0.216-0.997l-0.308-0.997l-0.4-0.318l-0.59-0.207l-1.199-0.143
		l-0.865-0.238l-0.118-0.528l0.236-0.481l0.184-0.139l0.033-1.252l0.302-1.204l-0.144-0.644l-1.291,0.429l0.354-2.357l1.606-1.185
		l2.143-0.414l2.005-0.048l-0.367-0.756l-0.498-0.581l-0.629-0.406l-0.76-0.262l1.271-0.891l0.786-1.042l0.026-0.915l-0.983-0.545
		l-0.36,0.143l-0.727,0.907l-0.511,0.346l-0.669-0.008l-1.042-0.645l-0.544-0.016l-0.491,0.446l-0.334,0.668l-0.275,0.883
		l-0.714,0.159l-0.688-0.024l-0.786-0.135l-1.724,0.032l-0.944,0.167l-1.186,0.469l-0.151-1.552l-0.688-0.899l-1.914-0.943
		l0.026-0.31l-0.4-0.788l-0.485-0.474l-0.243,0.629l-0.236,0.374l-0.57,0.33l-0.649,0.131l-0.511-0.199l-1.671-1.6l-0.21-0.1
		l-0.275-0.983l0.138-0.283l0.328-0.131l0.315-0.541l0.321,0.458l0.806,0.012l0.583-0.47l-0.334-1.003l-2.156-1.059l-1.671-1.227
		l-0.138-2.82l0.701-3.136l0.845-2.181l0.085-0.742l-0.066-0.909l0.118-0.766l0.655-0.319l0.603,0.06l0.629,0.18l0.472,0.323
		l0.531,1.168l2.458,3.684l-0.767,1.012l-0.236,0.98l0.138,1l0.262,1.076l1.665,4.68l1.003,0.601l3.991,0.669l1.711,1.182
		l0.924-0.084l0.655-1.7l-0.904,0.135l-0.478-0.239l-1.657-0.361l-0.781-1.222l-1.025-1.027l0.285-2.249l-1.063,0.195l-0.514,1.384
		l-0.836,0.075l-0.506-1.828l-0.248-2.444l0.612-1.394l-0.464-1.713l2.203-0.218l3.375,0.738l0.439,0.783l-0.213,1.273l0.02,0.395
		l-0.033,0.378l0.19,0.59l0.839,0.543l0.488,0.661l1.05,0.686l1.445,0.573l0.874,0.848l1.122,0.808l0.853,0.56l0.349-0.432
		l-1.686-2.23l1.002-0.218l1.488,0.858l1.919,1.049l2.322,0.742l1.685-0.432l-1.697-0.287l-1.376-0.872l-2.418-2.127l0.59-0.729
		l-1.743-1.275l-2.635-3.38l-1.461-0.694l-2.005-0.403l-2.382,0.154l-1.642-1.068l-2.029,0.549l-1.862-0.614l-0.245-0.931
		l1.152-1.444l1.128-0.463l2.4,0.375l3.062-1.37l3.682,2.717l1.239-0.239l0.315,0.215l0.197,0.199l0.216,0.172l0.374,0.144
		l-0.354-1.887l0.157-1.723l0.963-1.261l1.973-0.491l3.69,1.105l1.887,0.14l-0.57-1.245l1.245-0.627l0.668-0.14l0.839,0.044
		l-1.199-1.381l-1.829-0.335l-4.181,0.375l0.315-0.95l-0.105-0.647l-0.21-0.671v-1.022l0.295-0.647l0.426-0.479l0.354-0.599
		l0.026-1.019l-0.649-1.45l-1.108-0.336l-1.199,0.563l-0.885,1.222l-0.098,0.815l0.531,1.653l0.118,0.887l-0.138,0.132l-0.963,1.932
		l-0.905,3.344l-0.839,1.141l-1.599,0.144v-0.227l-0.505-0.383l0.328-0.523l0.433-1.022l0.334-0.519l-1.095-0.559l-0.734,0.327
		l-0.708,0.623l-1.062,0.331l-2.143-0.479l-0.682,0.323l-0.135,1.013l-1.104-0.019l-1.737,0.575l-0.845-0.431l-0.275-1.041
		l0.577-0.974l1.645-1.645l0.596-0.902l0.334-0.711l0.138-0.667l0.033-0.763l-0.216-1.466l0.275-0.723l1.042-0.919l-1.003-0.791
		l-0.878-1.642l-0.479-1.922l0.157-1.615l1.121-1.031l1.52-1.044l0.472-0.864l-2.012-0.48l-0.918,0.168l-0.537,0.468l-0.432,0.488
		l-0.609,0.22l-0.786,0.404l0.118,0.96l0.393,1.128l0.026,0.919l-1.127,1.027l-1.455,0.1l-1.409-0.46l-1.009-0.667l0.767-0.528
		l0.334-0.144l-0.708-0.508l-0.603-0.612l-0.498-0.732l-0.393-0.888l0.924-0.476l0.904,0.048l2.012,0.428l-0.243-2.112l2.248-2.236
		l-0.596-2.061l-2.294-3.182l-1.416-1.297l-1.54-0.529l0.636,2.21l-0.557,1.265l-1.14,0.04l-1.14-1.497l0.754-1.049l-2.071-2.755
		l-0.288-1.634l1.16-1.35l1.645-0.22l1.462,0.749l0.642,1.559l1.022-0.657l0.57-1.13l0.649-2.252l0.57,1.122l0.105,0.946
		l-0.216,1.819l-0.36,0.921l-0.098,0.569l0.157,0.585h0.321l0.374-0.14l0.249,0.168l0.321,1.298l0.079,0.557l0.295,0.32l0.963,0.577
		l0.78,0.276l1.357,0.048l0.61,0.348l-0.465,1.121l0.131,1.081l0.577,1.004l0.859,0.884l2.032-4.607l0.21-1.561l-0.039-1.754
		l-0.393-0.629l-1.514-0.38l-0.642-0.361l-0.531-0.541l-0.826-2.212l-2.641-3.09l-0.609-1.423l0.177-0.481l0.374-0.405l0.38-0.533
		l0.177-0.91l-0.852-0.602l-0.413-0.782l0.157-1.364l-1.036,0.409l-1.068,0.173l-2.294,0.028l0.898-1.111l1.475-0.341l1.671-0.092
		l1.461-0.357l-0.478-0.184l-0.256-0.225l-0.295-0.197l-0.629-0.124l0.393-0.891l0.472-0.522l0.518-0.401l0.524-0.57l0.275-0.747
		l-0.131-0.646l-0.256-0.622l-0.138-0.683l0.275-1.538l0.701-1.518l1.77-2.704l0.472,0.49l1.18,1.535l1.422,0.434l0.721-0.048
		l-0.197-0.723l-2.654-3.022l-0.393-1.053l0.59-2.336l1.383-2.892l2.182-5.102l1.84-2.652l2.627-0.943l2.993-0.617l2.56-0.139
		l1.181-0.947l1.134-1.639l1.604-0.412l1.437,1.615l1.475,1.824l1.081,0.362l-1.049-3.697l-0.747-1.68l-1.219-0.701l-11.426,1.869
		l-3.98-2.483l0.242-2.665l0.066-1.066l1.886-0.939l1.646-1.627l1.524-1.748l2.417-1.411l2.965-1.636l2.252-3.148l0.343-2.963
		l1.237-0.737l0.915-0.579l0.486-0.423l2.889-0.292l2.827,0.35l1.792,1.384l1.284,0.323l0.859,1.486l0.334-0.808l0.275-1.123
		l0.118-1.167l-1.076-0.858l-0.741-0.542l-1.54-0.765l-1.749-1.194l-1.421-1.065l-0.747-0.38l0.216-0.857l0.668-0.922l0.669-0.55
		l0.734-0.17l4.496,0.291l0.983-0.081l0.727-0.38l0.492-0.894l0.184-0.732l0.387-0.506l1.108-0.19l0.354-0.324l-0.419-0.728
		l-0.859-0.748l-0.95-0.352l-0.255,0.202l-5.918,2.395l-1.986,0.097l-3.899-0.255l-3.85-0.305l-0.036-1.711l-0.244-2.355
		l-0.744-0.649l-2.403-0.825l-3.544,0.556l-0.348-3.001l7.299-0.787l3.969-0.495l4.015-0.237l1.298-0.782l1.383,0.405l1.691-0.867
		l2.969-2.256l3.768-1.503l1.592-1.143l0.144-1.439l-4.719,1.459l-1.658,0.511l-1.625,1.123l-1.363,1.313l-1.507,0.725l-1.796,0.304
		l-1.684,0.745l-1.225-0.599l-0.413-0.693l-0.131-0.911l-0.419-1.252l-0.668-1.082l-1.357-1.788l-0.728-1.212l1.121-0.908
		l-0.524-0.624l-1.101-0.462l-1.008-0.337l-1.843-3.171l-1.416-0.616l-1.071,0.62l-0.507-0.004l-0.041-1.098l-1.82-1.166
		l-1.572,0.248l-0.489,1.878l-0.268,0.645l-0.551-0.507l0.321-2.913l2.734-1.389l2.415-0.763l3.378,0.975l-1.193-1.973l-0.675-0.776
		l-0.898-0.658l-0.537-0.126l-0.642,0.378l-0.459-0.252l-0.603-0.658l-0.498-0.707l1.691-4.656l0.97-2.053l1.18-0.785l-0.891-1.094
		l-3.421-1.049l-1.232-0.655l1.212-1.123l3.585-0.87l0.747-1.042l-0.518-1.327l-1.271-0.334l-2.654-0.016l-0.551-0.383l-0.95-1.16
		l-0.649-0.574v-0.676h1.049l-1.207-2.243l1.459-0.809l1.662-0.504l1.549-2.263l3.316-0.925l1.569-0.84h-4.699l-1.134,0.648
		l-1.737,2.591l-1.278,0.244l-0.799-0.974l-0.734-1.85l-0.465-1.899l0.052-1.121l1.678-1.969l0.78-1.215l-0.256-0.546l-1.544,0.559
		l-0.697-0.657l-0.632-0.42l-0.382-0.079l-0.374-0.921l0.352-0.84l-0.068-0.919l-0.405-1.723l-0.49-0.731l-0.035-0.42l1.111-0.07
		l1.61-0.749l1.68,0.055l0.125-1.222l0.483-1.081l-0.657-0.871l-0.955-0.199l-1.293-1.281l0.818-1.176l1.133-0.913l-0.767-1.392
		l-1.931-0.363l-0.39-1.677l0.617-1.236l1.884-0.3l-1.081-1.235l-0.374-0.622l-0.249-0.883l-0.675,0.577l-1.14,1.247l-1.278,0.548
		l-0.256,0.711l0.046,0.707l0.569,0.874l0.1,1.703l-0.593,1.958l0.354,2.628l-0.855,2.243l-0.729,0.917l-1.491-1.165l-1.557-0.069
		l-1.549-1.021l0.388-5.422l0.478-1.959l-0.925-0.441l0.279-2.547l-0.865-1.039l-1.298,0.229l-0.727,1.308l-0.197,1.607
		l-0.583,1.177l-1.835,0.029l0.754,1.545l1.468,2.349l0.531,1.654l-0.885,0.751l0.118,0.829l1.357,1.841l-1.232,0.245l-1.042,0.596
		l-0.872,0.857l-0.701,1.041l0.013-0.735l-0.092-0.747l-0.184-0.678l-0.275-0.58l1.108-2.45l-2.366-3.889l0.708-1.949l-0.609-2.743
		l-1.488,0.834l-2.13,2.697l-1.573,0.584l-0.924,0.184l-0.826,0.327l-0.826,0.057l-0.976-0.568l-0.236-0.466l-0.334-0.936
		l-0.124-0.924l0.393-0.417l3.323,0.033l0.846-0.576l-0.02-1.517l-0.865-1.578l-1.239-0.609l-1.298-0.38l-1.042-0.859l-0.413,1.202
		l-0.236,2.502l-0.452,1.161l-0.944,0.858l-0.314-0.809l0.098-2.518l-0.157-2.446l0.223-0.679l2.064-2.627l0.406-0.917l0.321-1.285
		l0.256,0.974l0.347,0.876l0.433,0.827l0.557,0.818l0.426-0.401l0.531,0.041l0.609,0.213l0.688,0.147l-0.845-1.195l-0.859-1.547
		l2.294,0.688l0.944-0.246l0.609-1.195l-2.058-0.147l-1.265-0.573l-0.151-1.253l1.33-2.146l-1.822-1.511l0.118-1.401l1.389-1.131
		l1.966-0.709l-0.511,2.458l0.197,0.68l1.107,0.238l1.999-0.037l0.537-0.373l0.524-0.905l0.144-2.266l-0.203-3.045l0.374-2.485
		l1.874-0.578l-0.242,1.39l0.059,2.177l0.354,2.205l1.003,2.651l-0.492,0.934l-0.786,0.836l-0.492,0.872l0.026,0.926l0.505,1.482
		l0.066,0.401l-0.439,0.475l-1.448,0.95l-0.301,0.262l0.079,0.868l0.262,0.917l0.426,0.536l0.577-0.266l1.357-1.252l1.016-0.029
		l2.32,1.596l-1.665-3.61l-0.59-2.248l0.859-1.007l1.298,1.663l0.793,0.516l0.367-1.089l0.341-0.34l0.839-0.34l1.612-0.41v-0.627
		l-0.642-0.098l-1.553-0.651v-0.627l1.94-0.455l1.14-1.856l0.295-2.262l-0.629-1.673l-0.701-0.234l-2.11-0.037l-1.042-0.422
		l-0.78-0.951l-0.256-0.935l0.387-0.328l1.16,0.841l0.531-1.563l-0.57-0.927l-1.239-0.377l-1.475,0.111l0.596-0.775l0.799-0.558
		l0.865-0.148l0.786,0.447l0.767,0.591l0.675,0.135l0.308-0.312l-0.354-0.759v-0.751l2.969-0.049l1.422,0.501l0.603,1.333
		l-0.406,0.825l-0.773,0.874l-0.472,1.144l0.511,1.632l0.708-0.709l0.911-0.496l0.786,0.016l0.334,0.845l0.092,0.705l0.374,0.64
		l0.085,0.689l-0.144,0.262l-0.727,0.869l-0.229,0.623v4.499l0.269,1.302l0.59,0.913l0.59,0.344l0.262-0.471l0.328-2.506l1.475-4.81
		l0.341-2.369l0.433-0.558l0.976,0.664l1.396,1.55l0.57,1.09l0.413,1.008l0.609,0.664l1.147,0.049v-0.623l-0.577-0.766l-0.701-2.054
		l-0.616-1.025l-4.935-5.225l-0.354-0.283l0.275-1.087l0.688,0.123l0.826,0.78l1.285,1.608l0.682,0.607l0.826,0.377l1.003,0.004
		l0.754-0.443l0.072-0.693l-0.551-0.648l-1.14-0.283l-1.533-0.739l-1.668-1.564l-0.752-2.329l-0.175-1.562l1.475-0.041l1.284,0.62
		l1.154,1.014l1.612,1.153l1.539,1.065l0.631,0.645l1.222,0.834l1.178,0.651l0.805,1.376l-0.38,1.363l-0.782,0.922l0.157,0.722
		l0.799,1.534l0.098,0.943l-0.295,1.656l0.885-0.615l0.354-0.746l0.216-0.836l-0.306-2.472l0.328-0.817l0.511-0.861l0.745-1.404
		l1.329-0.623l1.247-0.012l1.395,0.179l1.543,0.566l1.953,0.525l1.4,0.92l1.697,1.747l0.118,2.153l-1.265,4.352l0.963-0.639
		l1.514-1.955l0.826-0.152l0.577,0.828l0.334,1.483l0.177,2.876l-0.085,0.614l-0.374,1.368l-0.079,0.794l0.157,0.827l0.714,1.203
		l0.682,3.131l-0.229,0.896l-1.324,0.405l0.242,0.847l0.315,0.577l0.465,0.393l0.669,0.307l0.472-2.258l0.793-1.342l0.406-1.432
		l-0.669-2.521l1.632,0.475l1.711,0.213l-2.766-3.071l-0.826-1.691l1.645-0.737l1.481-0.246l3.5-1.413l2.576-1.967l1.212-0.574
		l0.872-0.984l0.551-2.443l-0.157-0.435l-0.747-0.792l-0.144-0.209l0.432-0.406l0.433-0.053l0.413,0.016l1.121-0.623l0.714-0.107
		l0.531-0.353l0.21-1.169l-4.817,1.354l-0.728,1.03l0.256,3.117l-0.583,0.705l-1.874,0.615l-2.667-0.373l-3.165-1.849l-2.857-2.813
		l-1.087-2.694l4.822-0.531v-0.628l-0.334-0.16l-0.76-0.583l0.904-0.119l0.859,0.049l0.786,0.271l0.695,0.542l-0.341-1.921
		l-1.101-1.712l-0.8-1.963l0.59-2.662l-0.911-0.411l-0.701,0.933l-0.433,1.606l-0.144,1.622l-0.374,1.761l-0.767,0.406l-0.76-0.763
		l-1.54,0.32l-1.553,0.398l-3.709-1.117l0.025-1.143l-0.349-1.004l0.292-1.359l-0.157-1.73l0.934-1.714l1.113-1.53l1.282-0.618
		l1.371-0.525l2.038-0.032l2.176-0.592l0.452-0.674l0.124-1.871l-0.498-0.366l-1.121,0.613l-1.671,1.452l-1.042-0.214l-0.767-0.452
		l-0.413-0.798l0.007-1.234l-1.914,0.979l-1.553,1.11l-2.871,3.116l-0.741,0.592l-0.931,0.333l-0.865-0.029l-0.524-0.518
		l0.033-0.929l0.492-0.904l1.186-1.677l-2.346,0.543l-0.747-0.234l-0.256-1.382l0.432-1.024l0.983-0.58l1.121-0.382l0.813-0.457
		l0.977-1.337l-0.256-0.346l-2.156,0.3l-0.714-0.44l-0.564-1.086l-0.537-1.358l-0.649-1.26l0.36-0.103l0.229-0.161l0.511-0.486
		l0.59,0.453l0.891-0.049l1.566-0.403l1.278,0.354l1.068,0.663l1.055,0.342l1.239-0.609l-0.098,1.128l0.098,1.095l0.393,0.848
		l0.767,0.383l0.845-0.333l0.393-0.951l0.4-2.169l1.357-2.034l1.114,0.156l1.258,0.762l1.776-0.259l-0.38-0.828l-0.491-0.614
		l-0.623-0.412l-0.754-0.222l-1.119,0.042l-0.511-0.772l-1.203-0.219l-0.97,0.308l-0.965-0.055l-1.524-0.304l-2.523-0.8
		l-3.505-2.665l-0.186-1.169l1.56-2.273l1.061-1.073l-0.232-0.688l-4.221-0.54l-1.966,2.511l-2.034-1.556l0.829-1.842l1.067-1.609
		l-0.67-1.138l-1.442-0.784l-1.322-0.701l0.186-1.853l-0.264-1.455l0.785-1.362l2.31-0.698l0.691-0.354l0.172-0.845l-1.086-0.296
		l-0.294,0.884l-1.657,0.181l-0.431-1.014l-0.177-1.858l0.394-2.457l-0.393-0.893l-0.628-1.502l-0.713-1.18L265.823,135l-0.92-0.9
		l-0.018-1.372l-0.332-2.051l-0.865-3.204l-1.16-8.367l0.315-1.376l1.068-0.199l4.437,1.592l1.416-0.307l1.18-0.555l1.049-0.207
		l1.075,0.721l0.4,1.202l0.157,1.877l-0.118,1.926l-0.439,1.317l-0.033,2.385l2.471,2.074l3.133,1.32l1.946,0.12l-1.514-1.568
		l-4.64-3.353l1.35-3.612l0.4-2.163l-0.341-1.525l-0.76-1.596l-0.066-0.872l-0.092-1.164l0.367-2.045l0.845-1.63l-0.603-0.759
		l-0.793,0.112l-1.222,0.836l-0.559-8.774l0.424-2.432l0.97-0.71l1.49-0.164l2.077-0.792l3.204-2.56l6.879-10.532l1.407-1.433
		l3.105-2.412l1.328-1.537l1.635-4.053l1.095-2.715l0.993-1.268l0.471-0.602l4.416-3.645l5.131-3.22l5.398-2.193l5.194-0.562
		l2.564,0.273l9.929-0.87l7.637,2.32l2.426-0.223l4.732-1.437l15.535-1.363l0.662,0.451l1.028,1.49l0.99,1.002l1.107,0.284
		l5.323-1.122l8.448,0.493l5.485-0.435l5.527-1.973l5.144-3.332l4.286-4.502l1.864-2.672l1.556-2.853l1.049-3.173l0.349-3.651
		l-0.682-3.522l-0.175-1.796l0.508-1.331l2.197-1.744L410.215,30z M252.413,249.967l0.606,1.852l1.088,1.678l0.459,1.564
		l-0.767-0.358l-3.578,0.204l-1.16-0.187l-0.22-1.497l0.388-0.533l0.619-0.57l0.327-0.887l-1.92,1.214l-0.898-0.432l0.249-1.495
		l1.455-2.017l-0.55-0.619l-1.101,1.304l-0.373-0.9l-0.845,0.453l0.44-2.404l-0.309-3.67l-0.371-2.219l-0.832-2.8l0.696-0.913
		l1.427-1.328l1.535-0.524l1.071,1.718l0.144,0.616l-0.35,0.735l-0.614,0.493l0.072,0.689l1.357,3.076l0.216,0.979l-0.354,0.816
		l0.416,0.719l0.914,0.542l0.716,1.25h-1.691v0.62l0.551,0.11l1.14,0.64l-0.089,0.631l-0.081,0.496L252.413,249.967z
		 M243.542,114.238l1.586-0.025l1.475,0.232l0.747,0.846l-0.531,1.808l-1.429,1.235l-1.77,0.116l-3.355-0.721l-0.741,0.29
		l-0.904,0.481l-0.78,0.021l-0.321-1.107l0.177-0.348l0.924-2.811l0.99-0.962l1.134-0.307l1.291,0.332L243.542,114.238z
		 M295.952,542.968l0.609,1.253l-0.373,0.428l-0.78,0.228l-0.557,0.668l0.039,0.562l0.511,0.891v0.522l-0.275,0.518l-0.688,0.907
		l-0.138,0.283l-1.453,1.681l-2.736,2.187l-0.849,1.823l-1.211,2.128l-0.058,0.853l-0.536,1.254l-1.986,0.231l-0.767,0.404
		l-2.115-0.186l-3.088,2.442l-8.139,1.497l-2.722,2.317l-3.333,0.742l-3.569-0.357l-4.079,0.761l-3.391-1.02l-7.653,0.11
		l-2.387,1.118l-1.421,2.519L241.51,570l-1.298-0.623l-1.833-2.972l-2.442-0.831l-2.37-2.485l-0.826-3.026l1.435-3.921l1.357-2.432
		l0.839-0.855l2.798-1.66l2.39-4.159l2.198-0.564l1.016-2.197l3.768-1.302l8.216-2.358l2.058-1.775l7.852-0.824l5.344-2.333
		l1.28,0.362l6.508-1.051l3.773-0.313l2.497,0.421l0.954,1.436l1.186,0.928l3.886,1.545l1.18,1.199l0.793,2.892l0.78,1.131
		l0.374-0.44l0.511-0.42L295.952,542.968z M314.23,445.295l2.517-0.298l1.311,0.099l1.101,0.533l0.878,1.586l-0.262,1.816
		l-1.062,1.486l-1.488,0.612l-3.323,0.612l-1.285-0.183l-0.944-0.461l-1.927-1.295v-0.727l0.439-0.544l0.079-0.453l-0.315-0.437
		l-0.754-0.509l1.114-0.823l1.284-0.525L314.23,445.295z M250.371,443.856l0.124,1.344l-0.216,1.503l-0.433,1.455l-1.586,3.401
		l-0.642,1.033l-0.799,0.54l-0.138-0.302l-1.376-1.303l-0.636-0.397v0.612l-0.328,1.565l-7.668,4.185l-0.924,0.318l-3.388,0.286
		l-0.937-0.238l-0.177-0.85l0.452-0.715l0.596-0.595l0.229-0.5l-0.433-0.603l-2.32-1.461v2.065l-1.691-1.997l1.003-3.261
		l2.294-2.639l2.248-0.167l0.727-2.111l0.472-0.751l0.747-0.835l0.865-0.477l0.767-0.131l0.583-0.433l0.223-1.384l0.944,1.161
		l1.278,0.131l1.14-0.752l0.492-1.488l-0.616-1.221l-2.071-1.635l0.537-0.812l1.304-0.096l1.33,0.728l1.154,0.919l0.858,0.454
		l0.197,0.274l0.236,0.617l0.387,0.672l0.537,0.434l0.367-0.119l1.822-1.15l0.072,0.847L250.371,443.856z M363.278,425.649
		l0.839,0.215l0.734,1.164l0.577,1.434l0.682,2.453l0.072,1.43l-0.243,1.39l-0.583,1.345l-0.806,0.828l-0.904,0.072l-0.904-0.486
		l-2.851-2.906l-0.334-1.131l0.485-1.8l0.354-0.47l1.507-1.143l0.269-0.586l0.609-2.486l-1.219-1.299l0.144-0.793l0.878-0.407
		l1.003-0.116l0.865,0.391l0.216,0.917l-0.413,1.08L363.278,425.649z M218.88,422.831l0.963,0.873l0.249,0.407l0.105,0.749
		l-0.177,0.769l-0.334,0.717l-1.219,1.646l-0.564,0.414l-0.557,0.048l-0.826-0.076l-0.007-0.307l-1.167-0.685l-1.265-0.538
		l-0.354,0.131l-0.727-1.634l0.55-0.757l2.379-0.957l1.461-2.009l0.498-0.255l0.301,0.199L218.88,422.831z M220.342,416.203
		l0.033,2.082l-0.374-0.172l-0.917-0.259l-0.406-0.239l-0.695,0.921l-1.101,0.008l-1.009-0.215l-0.446,0.255l-0.164,1.316
		l-0.433,1.156l-0.701,0.865l-0.957,0.435l-0.944-0.112l-0.695-0.658l-0.419-1.041l-0.138-1.292l0.242-1.22l0.642-0.862l0.885-0.574
		l0.983-0.383l1.094,0.423l1.442-0.315l2.635-1.009l0.537-0.072l0.387,0.064l0.295,0.287L220.342,416.203z M224.274,403.182
		l0.347-1.303l0.786-0.196l0.898,0.619l0.636,1.107l0.19,1.414l-0.249,1.37l-0.616,1.174l-0.937,0.811l-1.16,0.348l-0.669-0.256
		l-0.524-0.455l-0.682-0.248l-2.628,0.591l-0.99,0.02v-0.611l0.793-0.695l1.448-2.317l1.101-1.007l0.518,0.032l0.767,0.212
		l0.669-0.012L224.274,403.182z M386.432,412.863l0.413,1.113l-0.236,0.982l-0.446,1.041l-0.236,1.281l0.223,2.022l-0.066,1.156
		l-0.459,0.503l-0.642,0.363l0.682,1.989l-0.334,0.996l-1.239,0.231l-1.18-0.71l-1.271-0.558l-1.494,0.693l-1.311,0.175
		l-0.799-1.897l-0.904-3.96l-1.324-0.718l-1.055,0.73l-0.714,1.651l-0.269,2.046l-0.491,0.861l-1.14,0.036l-1.206-0.415
		l-0.734-0.482l-0.498-0.881l-0.118-0.726l-0.02-0.857l-0.177-1.244l-2.222-7.242l-0.295-1.749l0.216-1.725l0.924-1.766l0.616-0.451
		l0.629-0.116l0.485-0.328l0.38-2.17l0.472-0.619l1.291-1.011l1.062-0.516l1.219,0.376l1.068,0.955l0.623,1.227l-0.111,1.291
		l-0.708,1.234l-1.809,1.893l0.328,0.679l0.374,1.717l0.452,0.894l0.688,0.479l1.724,0.579l0.97,1.736l1.56-0.275l1.979-0.778
		l1.868-0.399l2.713,0.455L386.432,412.863z M441.11,407.569l-0.092,1.162l-0.36,1.234l-0.708,0.687l-1.094-0.463l0.446,1.317
		l1.042,2.219l0.216,1.52l-0.616,0.243l-1.409-0.487l-1.514-0.798l-0.918-0.663l-0.249,1.369l-0.249,0.742l-1.396,1.628
		l-0.452,1.272l0.957,0.734l1.324,0.554l0.669,0.754l-1.258,1.108l-5.833,1.81l-1.756,0.12l2.753-2.001l-1.14-0.542l-0.433-0.869
		l0.066-1.168l0.406-1.436l-2.497,1.28l-0.741-0.514l-0.36-1.129l0.046-1.133l0.505-0.515l2.005-0.407l0.57-1.081l0.039-1.529
		l0.432-1.729l-1.101-0.671l-0.826,1.022l-2.89,1.281l-1.278,1.05l-0.918-1.429l-1.147-1.262l-0.937-1.413l-0.249-1.869l0.518-1.126
		l1.062-1.039l1.225-0.799l1.049-0.448l3.015-0.623l0.826,0.016l1.324,0.559l1.055,0.691l1.081,0.531l1.494,0.104v-0.611
		l-1.494-0.983l-0.852-1.466l-0.38-1.675l-0.085-1.571l1.062,0.132l5.643-3.215l-0.963-1.804l0.452-1.792l1.239-0.992l1.422,0.56
		l0.354,0.816l0.026,0.952l-0.524,3.648l0.039,0.576l0.374,1.156l0.491,0.923l0.354,0.951l-0.02,1.291l-0.321,1.171l-1.271,3.336
		l1.632-0.575l0.78-0.539l0.262,0.192L441.11,407.569z M228.671,389.664l-0.433,0.112l-2.143-0.572l-0.767,0.124l-0.295-0.22
		l-0.197-0.216l-0.21-0.168l-0.354-0.06l0.629-3.123l0.426-0.913l0.557-0.32l0.957-0.32l0.885-0.433l0.393-0.633l0.609-1.338
		l1.455-0.946l1.652-0.393l1.232,0.333l-2.451,1.43l-0.564,0.829l-0.066,0.986l0.354,1.013l1.081,1.75l-0.865,0.36l-0.904,0.885
		l-0.688,1.033L228.671,389.664z M265.128,143.538l0.316,0.326l0.315,0.496l0.427,0.404l0.333,0.684l0.2,0.532l-0.438,0.183
		l-0.68,0.507l-0.275,0.368l-1.407,0.338l-0.623-0.104l-0.856,0.403l-1.881,0.823l-1.014,0.911l-0.561,0.993l-3.511,2.654
		l-0.791-0.18l-0.738,0.085l-0.32-0.08l-0.337-1.237l-0.637-0.404l-0.293,0.321l-0.266,0.091L252,151.445l0.137-0.357l-0.201-0.494
		l-0.49-0.063l-0.324,0.429l-0.498,0.392l-0.601-0.272l-0.866-0.218l0.512-0.509l-0.178-0.55l-0.881-0.84l-0.215-0.529l0.309-0.752
		l0.479-0.145l0.666,0.347l3.649-2.559l2.613-0.286l1.776,0.043l1.637-0.865l0.56-2.275l1.141-0.423l0.93,0.94l0.452,0.178
		l0.465,0.264l0.459,0.19l0.452,0.025l0.485,0.095L265.128,143.538z M614.658,140.35l1.376,1.041l-0.098,2.578l-0.891,2.871
		l-0.937,1.907l-1.534,0.772l-2.051-0.4l-1.992-1.197l-1.324-1.598l-0.419-2.069l0.682-1.545l1.448-0.967l2.864-0.488l1.914-0.707
		L614.658,140.35z M248.49,125.171l1.003,0.795l0.773,0.878l0.157,0.969l-0.852,1.101l-1.632,0.099l-5.466-4.264l0.708-0.646
		l0.334-0.808l0.459-1.914l0.249-0.493l0.393-0.522l0.452-0.381l0.465-0.116l0.301,0.17l0.197,0.311l0.118,0.431l0.249,1.864
		l0.092,0.352l0.387,0.671l0.511,0.572L248.49,125.171z M260.66,135.165l-0.616,0.07l-0.485-0.223l-0.846-0.918l-0.609-0.372
		l-0.432,0.153l-0.334,0.343l-0.308,0.19l-4.234,0.232l-1.573-0.736l-1.652-2.213l2.477-0.65l0.59-0.393l0.682-1.072l-0.092-0.493
		l-0.452-0.31l-0.413-0.555l-2.87-5.483l-0.177-0.833l0.295-1.094l-0.079-4.825l0.334-1.099l0.78-0.294l1.901-2.211l1.468-0.382
		l1.285,0.929l1.212,1.439l1.219,1.12l2.589,1.306l1.029,1.036l0.413,1.637l-0.092,0.82l-0.419,1.38l-0.092,0.613l0.184,0.688
		l0.747,1.375l0.17,0.754l0.262,3.66l-0.262,0.853l0.446,0.546l0.452,1.088l0.256,0.447l-1.042,0.625l-0.904,2.143L260.66,135.165z
		 M117.704,96.076l0.885,1.102l-0.131,1.496l-1.114,0.819l-1.566-0.947l-2.051,0.179l-0.426,0.204l0.033,1.072l0.786,0.395
		l0.944,0.17l0.439,0.39l-1.645,1.296l-3.29-0.461l-2.451-2.098l0.839-3.616L111,96.808l4.47-1.571L117.704,96.076z
		 M325.188,490.465l0.472,0.419l0.577,0.162l0.21,0.332l-0.098,0.478l-1.14-0.553l-1.101-0.257l-0.197-0.304l-0.275-0.664
		l-0.177-0.811l-0.302-0.214l-0.249-0.308l-0.197-0.664l0.118-0.392l-0.039-0.451l0.059-0.404l0.256-0.083l0.295,0.099l0.374-0.119
		l0.216-0.253l0.118-0.036l0.197,0.415l-0.275,0.902l0.138,1.004L325.188,490.465z M343.132,448.53l0.361,0.97v0.576l-0.609,0.656
		l-1.468,0.953l-1.285,0.393l-0.459-0.262l-0.033-0.834l-0.544-0.572l-0.813-0.262l-0.374-0.505l0.216-0.389l-0.878-0.56
		l-0.537-0.401l0.288-0.731l-0.052-0.548l-0.138-0.437l0.393-0.223l0.57,0.246l0.603,0.35l1.127,0.286l0.02,0.254l0.374-0.095
		l0.727-0.723l0.741-0.04L343.132,448.53z M363.35,443.021l0.531,0.294l0.354,0.561l-0.177,0.608l-1.003,0.346l-0.655,0.028
		l-0.17-0.171l-0.262-0.394l-0.747-0.417l-1.173-0.394l-0.786-0.608l-0.361-0.831l-0.393-0.604l-0.662-0.358l-0.57-0.688
		l0.433-0.835l1.357-0.648l1.475-0.199l1.049,0.78l1.219,2.379l-0.144,0.684l0.039,0.35L363.35,443.021z M227.826,434.244
		l0.184,0.183l0.151,0.498l-0.072,1.015l-0.249,1.086l-0.072,0.943l-0.452,0.489l-0.649,0.481l-0.675,0.641l-1.586,0.943
		l-0.878,0.135l-0.931-0.271l-0.288-0.501l0.465-0.163l0.492-0.024l0.406-0.41l0.478-0.366l-0.079-0.334l-1.789-0.398l0.433-0.517
		l1.114-0.171l1.167-0.036l0.917-0.704l0.4-0.955l-0.393-0.979l-0.806-1.294l-0.511-1.644l0.61-0.458l0.983,0.792l0.583,0.609
		l0.99,0.557L227.826,434.244z M222.832,436.91l-0.767,0.354l-0.649-0.545l-0.314-3.395l0.288-1.887l0.675-0.86l1.029,2.258
		l0.859,1.254l0.675,1.373l-0.223,1.146l-0.727,0.247L222.832,436.91z M175.134,425.266l0.924-0.239l0.157,0.398l-0.708,0.701
		l-0.374,0.446l-0.21,0.558l-1.271,1.486l-0.249,0.689l-0.531,0.888l-0.413,0.569l-0.328,0.362l-0.786-0.331l-0.518-1.402
		l0.085-1.307l0.446-1.191l0.537-1.052l0.583-0.921l0.675-0.502l0.662-0.132l0.361,0.283l0.269,0.709L175.134,425.266z
		 M233.783,420.921l0.275,0.857l0.033,1.048l-0.465,0.937l-1.022,0.1l-0.944-0.937l-0.747-1.088l-0.865-0.012l-0.433,0.387
		l-0.282,0.135l-0.603,0.052l-0.57-0.419l-0.138-0.837l-0.734-1.348l-1.586-1.675l-0.334-0.814l0.78,0.207l0.636,0.004l0.596-0.307
		l0.859-0.088l1.016,0.156l0.754,0.335l0.478,0.523l0.708,0.359l0.957,0.064l0.786,0.191l0.537,0.491l0.288,0.538l-0.059,0.491
		L233.783,420.921z M233.351,415.09l-0.256,0.255l-0.275,0.63l0.17,1.324l-0.485,0.519l-0.963,0.255l-0.937-0.534l-1.049-0.902
		l-1.35-0.503l-0.99-0.583l0.793-0.666l2.005-0.331l1.173-0.511l0.61-0.503l0.773,0.343l0.583,0.798L233.351,415.09z
		 M226.161,412.112l-0.675-0.934l-0.557-1.022l0.242-0.779l1.18-0.595l0.963-0.1l0.767,0.435l0.747-0.024l0.216-0.591l-0.157-1.15
		l0.767-0.751l1.055,0.02l0.511-0.052l0.4,0.224l0.387,0.559l0.085,0.607l-1.081,0.695l0.393,1.525l-0.197,0.926l-0.57,0.355
		l-0.793-0.036l-0.505,0.575l0.02,1.094l-0.262,0.934l-0.859,0.487l-0.727-0.06l-0.177-0.579l0.033-0.391L226.161,412.112z
		 M386.688,409.909l0.328,0.26l0.446,0.675l-0.852,0.216l-3.644-0.962l-1.992,0.643l-1.167-0.14l-1.199-0.731l-0.708-1.398
		l0.551-1.514l1.101-1.426l0.701-1.342l0.734-0.947l1.278-0.348l0.413,1.087l-0.564,1.586l-0.282,1.083l0.079,0.903l0.426,0.292
		l0.472-1.066l0.944-1.498l0.773-0.132l0.236,0.687l0.413,0.391l0.4,0.224l0.184,1.178l0.459,1.629L386.688,409.909z
		 M239.61,402.926l-0.714,0.312l-0.983-0.032l-0.4-0.887l0.164-0.935l0.629-0.344h1.376l0.472,0.192l0.02,0.424l-0.262,1.015
		L239.61,402.926z M234.131,389.928l0.203,0.44l0.079,0.504l-0.02,0.96l-0.341,0.312l-0.406,0.228l-0.433-0.164l-0.721-0.8
		l-0.328-0.224l-0.432,0.216l-0.387-0.04l-0.118-0.428l-0.308-0.156l-0.4,0.012l-0.111-0.216l0.583-0.444L230.762,390l-0.36,0.064
		l-0.347-0.104l0.151-0.444l0.623-0.412l0.518-0.08l0.701,0.324l1.029-0.084l0.714,0.204L234.131,389.928z M448.699,392.546
		l-0.354,2.032l-0.531,0.728l-0.413,0.14l-0.197-0.428l-0.393-1.72l-0.609-0.64l-0.216-0.504l0.098-0.696l-0.275-0.816l-0.426-0.776
		l0.223-0.708l0.852-0.484l0.924-0.096l0.806,0.24l0.551,1.241L448.699,392.546z M240.547,338.4l-0.354-0.371l-0.256-0.653
		l0.157-0.629l0.845-0.443l-0.118-0.161l-0.4-0.258l0.197-0.234l0.446-0.25l0.301-0.427l0.485-0.081l0.288-0.133l-0.138-0.544
		l0.347,0.016l0.911,0.165l0.61-0.496l0.295-0.327l0.347,0.266l0.17,0.593l-0.301,0.737l-1.481,1.282l-0.996,1.112l-0.629,0.487
		l-0.262,0.242L240.547,338.4z M227.806,172.563l-0.57,0.321l-0.334-0.115l0.007-0.362l0.249-1.655l0.452-1.367l0.59-0.819
		l0.649,0.449l0.564,0.959l0.577,0.473l1.986,1.046l0.609,0.675l-0.334,0.626l-1.022,1.045l-0.727,0.309l-0.944,0.144l-0.799-0.366
		l-0.524-0.914l-0.21-0.514L227.806,172.563z M258.746,167.405l0.832,0.556l0.315,1.223l-0.354,0.42l-0.865,0.296l-0.334,0.667
		l-0.066,0.622l-0.701,0.823l-0.911,0.222l-0.623-0.461l-0.662,0.066l-0.524-0.329l-0.184-1.276l0.151-1.309l0.662-0.922
		l1.422-0.758L258.746,167.405z M269.206,169.814l0.197,0.469l0.197,0.865l-0.426,0.93l-4.109,3.279l-1.868,0.234l0.02-0.51
		l0.878-1.193l0.118-0.683l-0.367-0.589l1.049-1.198l0.033-1.21l-0.433-1.495l-0.596-1.038l-0.583-0.671l0.177-0.206l1.324,0.642
		l1.134-0.997l0.256,0.082l-0.236,0.877l0.334,0.795l0.944,0.544l1.534,0.642L269.206,169.814z M194.658,126.786l0.885,0.116
		l0.564,0.592l-0.249,1.105l-0.767,0.762l-0.465,0.223l-0.262-0.563l-0.433-1.258l0.098-0.878L194.658,126.786z M116.4,109.708
		l0.642,0.332l0.112,0.639l-0.361,0.913l-0.249,1.045l-0.328,0.879l-0.596,0.328l-0.629-0.054l-0.531,0.191l-0.413,0.431
		l-0.216,0.079v-0.27l0.013-0.133l-0.262-0.498l-0.642-0.838l0.243-0.801l1.357-1.083l0.865-0.905l0.406-0.324L116.4,109.708z
		 M149.516,487.697l-0.393-0.253l-1.573-1.448l-0.898-0.554l-0.197-0.756l0.393-1.025l0.616-0.57l0.891,0.301l0.708,0.878
		l1.153,2.385l0.079,0.771l-0.249,0.435l-0.354-0.067L149.516,487.697z M268,476.018l0.701,0.297l0.668,0.84l-0.197,0.432
		l-0.334-0.305l-0.288-0.048l-0.144,0.38l-0.301-0.119l-0.734-0.404l-0.754,0.02l-0.433,0.424l-0.275,0.523l-0.898,0.61
		l-0.799,0.724L263,480.124l-1.54-0.067l-0.858-1.14l-0.059-1.473l0.708-1.445l1.429-0.998h1.226l1.592,1.018l0.472,0.059
		l0.668-0.206l0.905,0.016L268,476.018z M273.885,477.515l0.321,0.178l0.275,0.475l-0.256,0.293l-0.354,0.055l-0.118,0.578v0.982
		l-0.406,0.764l-0.793,0.218l-0.413-0.245l-0.144-0.451l-0.387-0.309l-0.413-0.091l-0.177-1.306l0.511-2.245l0.177-1.252
		l-0.531-0.495l-0.157-0.448l0.668-0.642l0.039-0.333l0.688,0.008l1.363,0.701l0.19,0.951l-0.767,0.661l-0.138,0.741
		L273.885,477.515z M292.996,473.19l0.773,0.701l0.485,0.547l-0.21,1.22l-0.197,0.523l-0.511,0.907l-0.944,0.511l-1.199,0.103
		l-0.885-0.459l-0.727-0.657l-0.531,0.063l-0.275,0.487l-0.301-0.178l-0.328-1.497l0.498-1.01l0.131-0.927l0.315-0.737l0.57-0.547
		l1.147-0.567l1.376,0.353L292.996,473.19z M269.062,471.197l0.328,0.475l0.066,0.852l-0.557,0.471l-0.282,1.109l-1.173,0.063
		l-0.649,0.135l0.393,0.697l-0.406,0.341l-1.225-0.333l-0.636-0.594l-0.157-0.392l-0.341-0.123l-0.38-0.079l-0.079-0.325
		l0.413-1.165l0.236-0.436l0.033-0.297l-0.157-0.234l0.066-0.214l0.295-0.147l0.19-0.21l-0.052-0.277l-0.413-0.678l0.269-0.234
		l0.636,0.206l0.623,0.337l1.678,0.285l0.865,0.452L269.062,471.197z M226.908,462.451l-0.079,1.083l0.131,0.702l-0.38,0.559
		l-0.78,0.099l-0.452,0.377l-0.354-0.167l-0.334-0.523l-0.275,0.012l-0.138,0.484l-0.511,0.075l-1.665-0.694l-0.564-0.809
		l-0.052-0.531l0.341-0.464l0.039-0.48l0.603-0.401l2.772,0.583l1.16-0.179L226.908,462.451z M288.526,462.391l-0.341,0.353
		l-0.728,0.151l-0.393-0.563l-0.164-0.75l-0.433-0.591l-0.623-0.266l-0.826,0.123l-0.963,0.341l-0.773-0.008l-0.308-0.159
		l-0.308-0.202l-1.783-0.79l-0.111-0.329l0.826-0.107l0.806-0.238l0.354-0.206l0.295-0.143l0.636,0.099l0.734,0.345l0.891-0.373
		l1.088-0.889l0.819-0.206l0.472,0.361l0.583,0.155l0.341-0.024l0.341-0.063l0.898,0.095l1.14,0.278l0.708,0.417l-0.157,0.714
		l-0.465,0.548l-0.125,0.333l-0.079,0.678l-0.505,0.556l-0.695-0.135l-0.747,0.139L288.526,462.391z M307.67,458.844l0.275,0.238
		l0.157,0.456l-0.491,0.103l-0.682-0.345l-0.8-0.179l-0.577,0.226l0.21,0.266l0.491,0.282l-0.583,0.583l-1.422,1.119l-0.826,0.373
		l-0.079-0.861l0.4-0.607l0.511-0.341l-0.288-0.389l-1.763-0.365l0.236-0.389l-0.19-0.492l-0.537-0.326l-1.35-0.127l-0.524-0.179
		l-0.229-0.155l0.19-0.183l0.596-0.119l0.465-0.318l0.747-0.905l0.799-0.667l-0.065-0.254l0.256,0.087l0.57,0.556l0.524,0.786
		l0.301,0.881l0.629,0.278l1.101-0.349l0.806-0.091l0.374,0.329l0.275,0.445L307.67,458.844z M281.285,462.323l0.157,0.603
		l0.452,1.087l-0.275,0.262l-0.393-0.055l-0.393-0.111l-0.721-0.313l-0.616-0.401l-0.341,0.067l-0.079,0.571l-0.387,0.226
		l-0.708-0.325l-1.219-0.286l-1.514-0.531l-0.013-0.631l0.747-0.571l-0.197-0.718l-0.695-0.186l-0.839,0.218l-1.049-0.29
		l-0.944-0.619l-0.564-0.714l-0.236-1.06l-0.079-1.207l0.066-1.231l0.321-1.231l0.636-0.941l0.865-0.417l0.465-0.107l1.416-0.143
		l0.924,0.306l0.865,0.588l0.957,1.132l0.747,1.882l0.223,1.544l0.256,0.714l0.439,0.595l0.249,0.833L281.285,462.323z
		 M281.167,455.132l-0.393-0.028l-0.354-0.361l0.295-0.58l0.374-0.572l0.557-1.231l1.134-1.502l1.593-0.882l1.671-0.397l1.003,0.175
		l0.38,0.584l0.065,0.644l-0.419,0.433l0.065,0.234l0.747,0.457l0.616,0.691l0.537,0.782l0.072,0.596l-0.59,0.099l-1.652-0.508
		l-0.688,0.171l-0.406,0.6l-2.123,0.993l-0.747,1.005l-0.236,1.048l-0.433,0.306l-0.524-0.611l0.013-1.008l-0.17-0.85
		L281.167,455.132z M404.553,430.055l0.203,0.219l-0.118,0.522l-0.773,0.956l-0.347,0.231L403,432.058l-0.76-0.171l-0.629,0.091
		l-0.859,0.426l-0.419,0.394l-0.478,0.103l-0.079-0.366l0.282-0.625l-0.079-0.506l-0.354-0.354l-0.301-0.068l-0.354-0.271
		l0.033-0.49l0.216-0.446l0.033-0.534l0.321-0.311l0.544-0.135l2.549,1.362l0.007,0.605l0.367,0.04L404.553,430.055z
		 M411.899,412.361l0.768-0.316l1.24-0.311l1.406-0.091l0.787,0.773l0.212,1.259l-0.427,0.787l0.293,0.471l-0.35,0.59l-0.81-0.327
		l-0.32,0.195l0.023,0.247l0.662,0.13l0.663,0.548l-0.325,0.591l-0.822,1.033l-1.333,0.015l-0.584-0.747l-0.315-0.767l-0.674-0.026
		l0.158-0.643l-0.222-0.643l-1.039-0.154l-0.371-0.299l0.771-0.613l0.146-0.747l-0.779-0.616l-1.451-0.502l-0.92,0.29l-0.546-0.028
		l-0.173-0.645l0.648-0.713l0.945-0.24l1.241,0.505l0.948,0.726L411.899,412.361z M400.149,410.787l1.206,1.349l0.452,0.762
		l-0.321,0.527h-0.865l-0.406,0.216l0.059,0.694l-0.242,0.299l-0.76-0.216l-0.472-0.231l-0.885-0.619l-0.511-0.766l0.098-0.531
		l0.55-0.902l1.081-0.818L400.149,410.787z M247.199,408.048l1.527,0.539l0.164,2.08l-1.579,1.461l-0.865-0.327l0.511-0.579
		l0.256-0.563l-0.21-0.391l-2.248-1.238l-0.334-0.18l-2.379,0.387l-1.055,0.519l-1.193,0.192l-0.957-0.327l-0.492-0.639l0.433-0.515
		l1.278-0.084l1.638-0.599l0.288-0.367l0.262-0.272l0.079-0.415l1.009-0.311l0.36-0.611l0.039-0.719l-0.629-0.863l-0.269-0.971
		l0.878-0.456l1.396,0.336l1.435,0.727l1.022,1.031l-0.105,0.579l-0.701,0.092l-1.226,0.815l-0.151,0.455l0.046,0.579l0.111,0.459
		l0.518,0.164L247.199,408.048z M238.626,390.068l0.151-0.48l-0.55-0.168l-2.064-0.348l-0.459-0.4l-0.708-0.068l-0.347-0.072
		l-0.347-0.316l-0.459-0.232l-0.432-0.533l-0.865-2.022l0.492-0.793l1.022-0.344l0.944,0.348l0.754,0.505l0.682-0.236l0.773-0.409
		l0.498,0.248l0.17,0.432l0.393-0.016l0.498-0.144l0.203,0.641l-0.557,0.565l-0.74,0.048l-0.315,0.364v0.525l0.885,0.913l0.747,0.34
		l0.839,0.056l0.478,0.681l0.242,0.873l0.406,0.552l0.144,0.752l-0.314,0.952l-0.315,0.256l-0.21-0.308l-0.937-0.216l-0.393-0.504
		l-0.321-0.58L238.626,390.068z M691.765,170.946l0.119,0.091l-0.066,0.152l-0.125-0.08L691.765,170.946z"/>
</g>
</svg>
